<svg xmlns="http://www.w3.org/2000/svg" xmlns:xlink="http://www.w3.org/1999/xlink" viewBox="0 0 1000 700"><defs><style>.cls-1{fill:#ff8b85;}.cls-2{fill:url(#_3);}.cls-3{fill:url(#_3-2);}.cls-4{fill:#fff;}.cls-5{fill:url(#_23);}.cls-6{fill:#fcc;}.cls-7{fill:url(#_2);}.cls-8{fill:url(#_23-2);}.cls-9{fill:url(#_84);}.cls-10{fill:url(#_84-2);}.cls-11{fill:url(#_88);}.cls-12{fill:#d95f76;}.cls-13{fill:#1e1240;}.cls-14{fill:#311e69;}.cls-15{fill:#614cd4;}.cls-16{fill:#ff9791;}.cls-17{fill:#ffc1c0;}.cls-18{fill:#ff6161;}.cls-19{fill:#ad263d;}</style><linearGradient id="_3" x1="186.83" y1="332.98" x2="209.7" y2="47.92" gradientUnits="userSpaceOnUse"><stop offset="0" stop-color="#ff8b85"/><stop offset="0.39" stop-color="#ffa09c"/></linearGradient><linearGradient id="_3-2" x1="583.08" y1="403.46" x2="603.38" y2="150.39" xlink:href="#_3"/><linearGradient id="_23" x1="132.22" y1="248.5" x2="95.6" y2="102.02" gradientTransform="translate(-15.61 58.99) rotate(10.06)" gradientUnits="userSpaceOnUse"><stop offset="0" stop-color="#ffbbb8"/><stop offset="1" stop-color="#fff"/></linearGradient><linearGradient id="_2" x1="189.99" y1="473.7" x2="201.61" y2="258.65" gradientUnits="userSpaceOnUse"><stop offset="0" stop-color="#ffa5a1"/><stop offset="1" stop-color="#fff"/></linearGradient><linearGradient id="_23-2" x1="328.21" y1="317.64" x2="388.13" y2="126.96" gradientTransform="translate(42.53 53.36) rotate(19.37)" xlink:href="#_23"/><linearGradient id="_84" x1="513.76" y1="394.3" x2="519.36" y2="289.48" gradientTransform="matrix(1, -0.09, 0.09, 1, -19.45, 74.48)" gradientUnits="userSpaceOnUse"><stop offset="0" stop-color="#ff9691"/><stop offset="1" stop-color="#fff"/></linearGradient><linearGradient id="_84-2" x1="495.64" y1="175.37" x2="484.67" y2="69.49" gradientTransform="translate(-31.34 163.49) rotate(10.09)" xlink:href="#_84"/><linearGradient id="_88" x1="518.38" y1="763.79" x2="496.47" y2="514.49" gradientUnits="userSpaceOnUse"><stop offset="0" stop-color="#ffaca8"/><stop offset="1" stop-color="#fff"/></linearGradient></defs><title>alpine</title><g id="Layer_2" data-name="Layer 2"><g id="Layer_1-2" data-name="Layer 1"><rect class="cls-1" width="1000" height="700"/><path class="cls-2" d="M384.67,209.37c-9.2,40.52-36.35,76.52-72.27,107.82q-8.1,7.06-16.77,13.8-7.62,6-15.61,11.64-9.69,6.92-19.84,13.46c-12.2,7.9-24.79,15.39-37.56,22.46-18.31,10.15-37,19.46-55.29,27.91q-10.54,4.86-20.9,9.33c-22.92,9.93-44.88,18.47-64.52,25.58L74.58,444c-2.06.73-4.09,1.45-6.09,2.14C27.78,460.32,0,467.56,0,467.56V319.37s10.07-16.06,26.8-39.24c12.79-17.73,29.48-39.62,48.54-61.66,10.92-12.63,22.61-25.3,34.8-37.28q4.52-4.44,9.13-8.74c26.66-24.89,55.26-45.66,83-54.83a105.63,105.63,0,0,1,13.14-3.49,84.22,84.22,0,0,1,14.42-1.57c63.4-1.24,108.07,36.92,132.64,65.69C377.16,195.5,384.67,209.37,384.67,209.37Z"/><path class="cls-3" d="M1000,239.24V449.92C963.34,454,924,458,883.86,461.4c-41,3.5-82.86,6.41-123.38,8.21-16.9.76-33.57,1.33-49.86,1.67q-9.63.21-19.08.3-7.17.07-14.2.07h-2.75q-18.37,0-35.76-.52-3.18-.09-6.32-.21c-2.5-.08-5-.18-7.45-.29-2.74-.12-5.46-.24-8.15-.38l-2.86-.16q-9.33-.51-18.24-1.2-4.62-.36-9.1-.78c-1.85-.16-3.67-.34-5.48-.52q-8.29-.84-16.59-1.64c-31.89-3.09-63.69-5.82-94.62-8.24l-3.11-.24c-53.26-4.14-103.85-7.33-147.77-9.75l-9-.49-12.31-.65c-22.06-1.15-42.07-2.09-59.41-2.85q-9.15-.41-17.29-.74c-6.41-.26-12.33-.5-17.71-.7l-4.79-.18-12.26-.45c-8.52-.3-14.38-.48-17.18-.56l-1.88-.06V342.42s.46-1.31,1.41-3.7c0-.12.09-.24.14-.36.46-1.16,1-2.56,1.7-4.16h0c6.51-15.49,23.08-50.39,51.84-83.26a0,0,0,0,0,0,0c29.28-33.49,71.23-64.88,128.08-71.54q6.09-.72,11.91-1.13c57.16-4.14,94.75,12.2,118.55,30.69h0c1.29,1,2.52,2,3.73,3,24,20.08,32.41,41.5,32.41,41.5s7.4-8.63,22.61-20.66l.33-.27.31-.24c.86-.68,1.74-1.36,2.65-2.06l.65-.49.38-.29.66-.51c.14-.1.28-.2.42-.32l.43-.31c2-1.47,4-3,6.2-4.51l.93-.66.28-.19.52-.37s0,0,0,0a2.11,2.11,0,0,0,.31-.21h0l.32-.22.83-.57.52-.35c.6-.42,1.21-.83,1.83-1.25l2.19-1.45.72-.48,2.4-1.56c6.31-4.05,13.29-8.21,21-12.36a351.75,351.75,0,0,1,50.26-22.18c42.31-14.9,96.55-25.36,163.39-22.39,48,2.13,97.48,19.65,144.7,44.72q8.56,4.54,17,9.42C972.94,221.65,986.64,230.26,1000,239.24Z"/><path class="cls-4" d="M597.93,123.35c0,2.58-3.31,4.67-7.4,4.67s-7.41-2.09-7.41-4.67,3.31-4.68,7.41-4.68S597.93,120.76,597.93,123.35Z"/><path class="cls-4" d="M215.42,114.7c0,2.58-3.32,4.68-7.41,4.68s-7.4-2.1-7.4-4.68S203.92,110,208,110,215.42,112.12,215.42,114.7Z"/><path class="cls-4" d="M215.42,171.94c0,1.29-1.66,2.34-3.7,2.34s-3.71-1.05-3.71-2.34,1.66-2.34,3.71-2.34S215.42,170.65,215.42,171.94Z"/><path class="cls-4" d="M184.39,247.86c-2.23,1.29-5.7-.53-7.75-4.07s-1.89-7.46.35-8.76,5.7.54,7.75,4.08S186.63,246.57,184.39,247.86Z"/><path class="cls-4" d="M582.12,116.28c-.55,1.7-3.18,2.38-5.88,1.51s-4.44-3-3.89-4.66,3.19-2.38,5.88-1.51S582.67,114.58,582.12,116.28Z"/><path class="cls-4" d="M661.48,54.08c-.55,1.71-3.18,2.38-5.88,1.51s-4.44-3-3.89-4.66,3.18-2.38,5.88-1.51S662,52.38,661.48,54.08Z"/><path class="cls-4" d="M681.18,114.56c-.55,1.71-3.18,2.38-5.88,1.51s-4.44-3-3.89-4.66,3.19-2.38,5.89-1.51S681.73,112.86,681.18,114.56Z"/><path class="cls-4" d="M960.44,44.9c-.55,1.7-3.18,2.37-5.88,1.5s-4.44-2.95-3.89-4.66,3.18-2.38,5.88-1.5S961,43.19,960.44,44.9Z"/><path class="cls-4" d="M454.43,87.42c-.55,1.71-3.18,2.38-5.88,1.51s-4.44-3-3.89-4.66,3.18-2.38,5.88-1.51S455,85.72,454.43,87.42Z"/><path class="cls-4" d="M904.53,107c-.55,1.71-3.19,2.38-5.88,1.51s-4.44-3-3.89-4.66,3.18-2.38,5.88-1.51S905.08,105.31,904.53,107Z"/><path class="cls-4" d="M479.91,154c-.55,1.7-3.18,2.37-5.88,1.5s-4.44-2.95-3.89-4.66,3.18-2.38,5.88-1.5S480.46,152.26,479.91,154Z"/><path class="cls-4" d="M965.43,258.31c-.55,1.7-3.19,2.37-5.88,1.5s-4.44-3-3.89-4.66,3.18-2.38,5.88-1.5S966,256.6,965.43,258.31Z"/><path class="cls-4" d="M825,148.32c-1.08,1.43-5.05.24-8.87-2.66s-6-6.4-5-7.82,4.12,1.4,7.94,4.3S826,146.9,825,148.32Z"/><path class="cls-4" d="M767.57,126.48c-.28.85-1.6,1.19-3,.75s-2.21-1.48-1.94-2.33,1.59-1.19,2.94-.75S767.84,125.63,767.57,126.48Z"/><path class="cls-4" d="M277.08,88.48c-.28.85-1.59,1.19-2.94.75s-2.22-1.48-1.95-2.33,1.59-1.19,2.94-.75S277.35,87.63,277.08,88.48Z"/><path class="cls-4" d="M815.81,56.76c-.28.85-1.6,1.19-2.94.75s-2.22-1.48-2-2.33,1.59-1.19,2.94-.75S816.08,55.91,815.81,56.76Z"/><path class="cls-4" d="M460,267.13c-.28.85-1.59,1.19-2.94.75s-2.22-1.48-2-2.33,1.59-1.19,2.94-.75S460.31,266.28,460,267.13Z"/><path class="cls-4" d="M943.41,149.17c-.28.85-1.59,1.19-2.94.75s-2.22-1.48-2-2.33,1.59-1.19,2.94-.75S943.68,148.32,943.41,149.17Z"/><path class="cls-4" d="M732.69,63.93c-.27.85-1.59,1.19-2.94.75s-2.22-1.48-1.94-2.33,1.59-1.19,2.94-.75S733,63.07,732.69,63.93Z"/><path class="cls-4" d="M601.08,107.25c-.27.85-1.59,1.19-2.94.76s-2.22-1.48-1.94-2.33,1.59-1.19,2.94-.76S601.36,106.4,601.08,107.25Z"/><path class="cls-4" d="M768.39,176.42c-.28.85-1.6,1.19-2.94.75s-2.22-1.48-2-2.33,1.59-1.19,2.94-.75S768.66,175.57,768.39,176.42Z"/><path class="cls-4" d="M484.74,202c1.78.21,2.95,2.67,2.61,5.48s-2,4.93-3.82,4.72-2.95-2.67-2.61-5.49S483,201.74,484.74,202Z"/><ellipse class="cls-4" cx="278.85" cy="220.42" rx="5.13" ry="3.24" transform="translate(26.99 471.24) rotate(-83.2)"/><path class="cls-4" d="M893.21,60.28c1,1.48-.1,4-2.45,5.55s-5.07,1.65-6.07.17.1-4,2.46-5.55S892.22,58.79,893.21,60.28Z"/><path class="cls-4" d="M915.63,67.46c2,2.94-.2,7.87-4.86,11s-10.06,3.28-12,.34.2-7.87,4.86-11S913.66,64.51,915.63,67.46Z"/><path class="cls-4" d="M476.7,27.2c1,1.47-2,5.2-6.66,8.33s-9.25,4.48-10.24,3,2-5.21,6.66-8.34S475.71,25.72,476.7,27.2Z"/><path class="cls-4" d="M355.3,111.84c1,1.49-.1,4-2.46,5.55s-5.07,1.66-6.07.17.11-4,2.46-5.55S354.3,110.36,355.3,111.84Z"/><path class="cls-4" d="M283.12,70.27c1,1.48-.11,4-2.46,5.55s-5.07,1.66-6.07.17.1-4,2.46-5.55S282.12,68.78,283.12,70.27Z"/><path class="cls-4" d="M94.69,40.46c1,1.48-.1,4-2.45,5.55s-5.08,1.66-6.07.17.1-4,2.45-5.55S93.69,39,94.69,40.46Z"/><path class="cls-4" d="M136.15,76.94c1,1.49-.1,4-2.45,5.55s-5.07,1.66-6.07.18.1-4,2.46-5.56S135.16,75.46,136.15,76.94Z"/><path class="cls-4" d="M215.65,269.21c1,1.49-.11,4-2.46,5.55s-5.07,1.66-6.07.17.1-4,2.46-5.55S214.65,267.73,215.65,269.21Z"/><path class="cls-4" d="M529,180.31c.58,3.44-3.37,7-8.81,7.88s-10.32-1.14-10.9-4.57,3.37-7,8.81-7.88S528.41,176.88,529,180.31Z"/><path class="cls-4" d="M121.76,180.63c-1.74,3-7,3.22-11.81.46s-7.24-7.44-5.5-10.45,7-3.23,11.81-.47S123.5,177.61,121.76,180.63Z"/><path class="cls-4" d="M184.56,37.37c-1.74,3-7,3.23-11.8.47s-7.25-7.44-5.5-10.46,7-3.23,11.8-.47S186.31,34.36,184.56,37.37Z"/><path class="cls-4" d="M280.83,156c1.63,2.44-.17,6.51-4,9.1s-8.31,2.72-9.94.28.16-6.51,4-9.1S279.19,153.61,280.83,156Z"/><path class="cls-4" d="M166.72,128.23c1.63,2.43-.17,6.51-4,9.1s-8.31,2.71-9.94.28.16-6.51,4-9.1S165.08,125.79,166.72,128.23Z"/><path class="cls-4" d="M666.39,103.13c.58,3.44-3.37,8.81-8.81,9.72s-10.32-3-10.9-6.41,3.37-5.12,8.81-6S665.81,99.7,666.39,103.13Z"/><path class="cls-4" d="M374.23,67.92c.58,3.44-3.37,7-8.81,7.88s-10.32-1.13-10.9-4.57,3.37-7,8.81-7.87S373.66,64.49,374.23,67.92Z"/><path class="cls-4" d="M224.38,90.59c-2.23,2.68-7.48,2-11.72-1.54s-5.88-8.56-3.65-11.24,7.47-2,11.72,1.54S226.6,87.91,224.38,90.59Z"/><ellipse class="cls-4" cx="950.57" cy="208.59" rx="6.31" ry="9.99" transform="translate(182.41 806.1) rotate(-50.25)"/><path class="cls-5" d="M108.18,388s-48,19.18-75.29,3.37C6.27,376,26.36,194.09,70.21,215.42S143.62,372.92,108.18,388Z"/><path class="cls-6" d="M100.06,342.69c-1-1.33-20.94,11.6-26.59,15.29l-.33-26.1S91,315.37,89.52,315.41s-16.47,12.65-16.47,12.65-.21-45.14-2.24-43.18S70.3,312.17,69.52,320c0,0-11.92-11.52-13.15-10.23-.93,1,12.8,13.13,12.8,13.13l.68,11.93s-18.47-13.51-20.19-11.35c-.77,1,17.71,12.36,19,14.41.4.63.53,11.79.52,26.85-5.13-4.16-22.13-17.74-24.12-17s19.86,18.65,24.11,22.09c-.08,33.14-.74,80.17-.74,80.17l6.22-.14-1.13-87.71C79.37,358.31,101,344,100.06,342.69Z"/><path class="cls-7" d="M242.59,449c-2.35-5.71-8.18-7.55-12.51-10.64-2.45-1.75-2.17-3.9-.56-4.72s-1.57-6.44-4.24-9.54c-6.2-7.18-11.33-16-16-24.48,4.35-5.05.08-13.33,1.72-14.43.95-.63,2.6,6.37,8.95,4.83s4.28-10.91.63-14.17c-5.82-5.19-4.83-19.25-3.8-27.43,2.23.82,5.35,4.72,8.11.21,3-4.93-1.34-10.41-2.28-15.09-1.78-8.83,5.26-19.75,11.23-25.8,9.28-9.39-3.44-8.19-9.4-4.88-15.6,8.65-32.42,20.4-48.45,26.77-1.05.42-11.94,9.54-7.16,9.06,1.3-.13,6.62.15,6.28,3.12a7.74,7.74,0,0,0,0,1.08,17.55,17.55,0,0,1-3.48,2.76c-4.37,2.41-13,3.53-14.33,8.82-.68,2.8,1.87,3.21,1.84,5.33-.05,3.74-4.12,5.1-5.37,6.35-2.94,2.92-10.74,2.71-11.17,7.47-.37,4,2.35,10.84,7.38,9,2.89-1.05,6.83-2,9-1.62-3.26,5.24-6,12.42-10.65,16s-9.8,9-7.11,15.7c2.53,6.3,9.74,1,11.68,2,1.53.78.71,6.77,1,10.22.45,6.15,2.67,12.23,7.34,16.34,10.77,9.47,8.33-9.34,9.39-9.76.42-.17,1.71.39,5.2,5.08,5.35,7.2,6.3.84,8.9,2.95,2.22,1.79,2.81,6.17,8.94,9.42s4.21-6.88,5.52-8.61,10.92,8.12,13.38,10.09c3.13,2.51,3.77-3.44,4.35-5.83.46-1.89,18.52,10.43,22.29,12.22C243.43,458.81,245.75,456.74,242.59,449Z"/><path class="cls-8" d="M334.67,313s-47.29,6.84-42.24,14.73,16.33,4.81,12.7,10.29S248.57,342.19,251.6,349s7.46,3,9.69,9.19,3.48,4.62,8.51,6.73-12.91,14.5-21.05,15.38-30.26,2-25.5,8.72,19,5.9,22.45,11.58,10.19,8.73,6.19,11.41-61.4,8.27-62.09,16.05,9,2.36,19.79,8.52,15,8.68,23,10,16.06-3.1,24.38,5.13,23.68,18.73,34.65,24.28,20.51,11.3,22.22,6.45S289.48,433.76,293.13,434s8.67,3.38,12.23,8.72,11.54,7.8,13.68,7.53-12.48-62.2-7.23-60.69,3.4,3.88,7.68,8.13,13.54,13.58,11.63,4.09-8-53.12-.71-51.59,6.3,12.08,12.11,10,.6-36.51,7.36-40.26S352.92,309.64,334.67,313Z"/><path class="cls-9" d="M545,350.36c.56-4.16-1.58-9.92-9.84-4.55s-31,16.29-28.21,21.7,10,2.31,9.13,6.14-28,21.36-24.36,27.42,17.77,2.77,17.94,4.9-12.78,16.36-12.73,22.4,56.74,2.18,61.93,3.84,3-12.29-3.54-19.29.29-5.87,2.22-5.17,6.75-5.26,3.38-10.88-20.81-24.47-16.85-23.63C557.68,376.12,544.42,354.52,545,350.36Z"/><path class="cls-10" d="M476.09,430.61c-2.27-1.77-.78-3.23,1.92-3.86s1.18-5.22-1.45-7.79c-2-1.93-10.95-14.13-15.22-20,8.71-4.54-.69-11.69,2.75-11.57s3.18,5.09,11.63,4.13,6.15-8.91-.54-11.58c-5.2-2.08-11-17-13.35-23.58,3,.74,8.85,4.51,9.72.22,1.07-5.36-4.7-6.88-11.34-14s-9.42-20.1-10.69-27.33c-2.14-12.23-12.66-11.38-15.48-5.22s-17.4,24.92-30,29.1-5.44,9-3.69,8.23,8,.19,8.88,2.82a7,7,0,0,0,.41,1,11.63,11.63,0,0,1-3.06,2.39c-3.83,2.09-14.95,2.84-14.64,7.36.18,2.61,3.1,2.74,3.49,4.5.68,3.12-4.29,4.12-5.72,5.14-5.94,4.25-13.3,1.22-13.75,5.83s3.76,8.69,9.29,7.45c3.95-.88,9-1.45,11.78-1.07-5.33,4.7-11.56,10.95-16.3,12.49-4.15,1.34-16.69,5.67-15.66,12.39s11,.85,15.36,1.87-14.2,13.77-7.56,22.25c8.41,10.74,20.7-8.8,22.43-8.12s2.36.34,3.61,4.34c1.93,6.15,8.59.82,10.64,2.64,1.75,1.55-1.43,5.3,4.47,8.2s12-4.29,16.07-7.26,8.49,6.57,10.94,8.76,9.76-.76,11.61-4.88,17.28,9,22.15,10.74,10.85.08,11.9-6.53S478.37,432.37,476.09,430.61Z"/><path class="cls-11" d="M1000,409.34V700H0V453.91q33.78-5.52,68.53-10.61l6-.88c2.45-.35,4.9-.71,7.35-1.05q36.09-5.17,73.19-9.8l12.23-1.51q11.31-1.38,22.71-2.7,17.25-2,34.69-3.89,43.74-4.73,88.74-8.64Q340,412.52,367,410.52l8.49-.62,5-.36q41.88-3,84.75-5.18,14.12-.74,28.33-1.37,33.92-1.53,68.43-2.53,8.4-.25,16.84-.46,15.17-.39,30.46-.67l3-.05q7.2-.13,14.41-.23l3.69-.05q9.1-.13,18.25-.22l8.62-.07,7.4-.06h2.72q8.32,0,16.69-.05C786.08,398.43,891.49,401.8,1000,409.34Z"/><path class="cls-12" d="M862.89,487.52S534.41,610.86,509.49,615.84s-25.3-14.12-19.55-21.59l.05-.06a5.64,5.64,0,0,1,9.25.46c1.71,2.67,4,5,6.83,5,6.65,0,338.45-121.26,338.45-121.26Z"/><path class="cls-12" d="M824.74,480.31S496.26,603.65,471.35,608.63,446,594.51,451.79,587l0-.06a5.64,5.64,0,0,1,9.25.46c1.71,2.67,4,5,6.84,5,6.64,0,338.44-121.25,338.44-121.25Z"/><path class="cls-12" d="M573.1,280.2s-51.75,47.07-46.61,61.49,21.84,17.12,35.25,6.39c11.15-8.92,49.41-35.53,45.55-52.76C605.25,286.2,573.1,280.2,573.1,280.2Z"/><path class="cls-13" d="M735.14,433.43a1.65,1.65,0,0,0,.16-3.12L504.65,336.83a1.66,1.66,0,0,0-1.24,3.07l230.65,93.47A1.75,1.75,0,0,0,735.14,433.43Z"/><path class="cls-13" d="M725.37,416.88c-1.73-.51-3.62.2-5.31,2a14,14,0,0,0-2.62,4.19,18.89,18.89,0,0,0-.68,1.92c-.12.42-.23.83-.32,1.24-1.14,5.06.12,9.35,3.13,10.25a4,4,0,0,0,2.29,0c2.09-.6,4.12-2.73,5.49-5.81a18,18,0,0,0,.84-2.28c.08-.28.16-.57.23-.85C729.71,422.29,728.46,417.79,725.37,416.88ZM725,427.43a15.17,15.17,0,0,1-.74,2c-1.27,2.77-3,4.11-3.77,3.9s-1.17-1.51-1.17-3.56a12.58,12.58,0,0,1,.21-2.26,14.68,14.68,0,0,1,.38-1.56,13.31,13.31,0,0,1,.58-1.61,10.77,10.77,0,0,1,2-3.18,3.68,3.68,0,0,1,1.51-1.07.78.78,0,0,1,.45,0c.81.23,1.63,2.71.88,6.21A11.08,11.08,0,0,1,725,427.43Z"/><path class="cls-14" d="M535.89,343.42s-3.94-8.55-8-6.79-3.82,7.69-7.32,10.39-2.29,4.88,1,4.06,7.1-6.45,8.89-6S536.39,344.23,535.89,343.42Z"/><path class="cls-14" d="M520.56,348.6s-4.29,3.8-3.47,7.28,8.26,2.35,11.36,3.22,9.45-5.39,9.2-9.07-.42-8.19-4.29-6.61Z"/><path class="cls-14" d="M599.84,314.47c-8.73-6.66-20.63-14.88-28.34-16.66l14,31.23A122.6,122.6,0,0,0,599.84,314.47Z"/><path class="cls-13" d="M676.43,307.4c-6.14-10.27-50.4,8.14-50.4,8.14s-42.23,55.13-47.4,85.78c-4.5,26.73,16.58,115.31,31.83,121.88,17.17,7.39,25.75-1.72,26.56-5.68,5.64-27.85-17.66-84.72-17.66-108.52C619.36,398.87,699.64,346.21,676.43,307.4Z"/><path class="cls-15" d="M626.83,519.83c-.08-3.89-3.5-16.15-7.45-30.34-7-25.18-15.74-56.52-14.71-70.79,1.41-19.6,11.05-31.54,19.55-42.07,1.42-1.76,2.76-3.43,4-5.09,8.74-11.41,22.94-30.16,23.08-30.35l2.17,1.64c-.14.19-14.35,18.94-23.09,30.36-1.3,1.69-2.65,3.37-4.08,5.14-8.25,10.23-17.6,21.82-19,40.56-1,13.81,8,46.21,14.62,69.87,4.16,15,7.46,26.78,7.54,31Z"/><path class="cls-13" d="M728.92,304.29c-19.34-33.15-51.53,11.25-51.53,11.25s-42.24,55.13-47.4,85.78c-4.5,26.73,16.58,115.31,31.83,121.88,17.17,7.39,31.09-4.49,31.89-8.46,5.65-27.85-16.25-104.57-14.45-110.44C681.6,396.65,754.33,347.85,728.92,304.29Z"/><path class="cls-16" d="M605.75,345.4c-5.16-7-10.84-22.65-23.06-34-22.61-21-49.21-36.68-39.61-56.86,11.14-23.42,39.48-49.23,81.78-39.73,13.44,3,84.43,45.79,95.38,69.46,11.25,24.31-15.1,55.2-48.51,63.21C639.34,355.22,613.69,356.15,605.75,345.4Z"/><path class="cls-15" d="M688.26,532.52c-1.12-1-3.61-11-4.09-11.93-1.72-3.43-5.42-5.28-9.68-5.72-2.68-.27-14.46-.31-15.74,1.85-1.15,1.94,7.78,11.31,6,14.92-.76,1.58-17,12-16,18.9.45,3.25,38.15-2.13,43.86-6.28C695.6,542.08,692,536,688.26,532.52Z"/><path class="cls-15" d="M634.93,532.52c-1.13-1-3.62-11-4.09-11.93-1.73-3.43-5.43-5.28-9.68-5.72-2.68-.27-14.46-.31-15.75,1.85-1.14,1.94,7.79,11.31,6,14.92-.75,1.58-17,12-16,18.9.45,3.25,38.15-2.13,43.86-6.28C642.27,542.08,638.62,536,634.93,532.52Z"/><path class="cls-15" d="M680.49,521.53c-.07-.61-6.36-61-10.6-78.41-1.81-7.46-10.42-45.37-1.15-58.79,3.62-5.24,12.82-13.53,21.72-21.55,9.56-8.6,19.44-17.5,20.83-21.25,2.71-7.26-3.12-31.1-5.6-39.67l2.61-.76c.38,1.3,9.11,31.8,5.54,41.38-1.63,4.37-10.86,12.69-21.56,22.32-8.78,7.91-17.87,16.09-21.31,21.07-6.67,9.67-3.33,36.54,1.56,56.61,4.28,17.55,10.4,76.28,10.66,78.77Z"/><path class="cls-12" d="M624.86,214.79c-17.93-4-33.35-1.71-46,4.08,3.84,2,20.5,10.82,34.62,23.95,16.08,14.95,64,34.85,68.38,51.74,2.56,10,4.24,31.53,5.18,47.45,25.56-12.23,42.68-37.32,33.22-57.76C709.29,260.58,638.3,217.81,624.86,214.79Z"/><path class="cls-17" d="M650.18,351.26a.69.69,0,0,1-.67-.59,246.36,246.36,0,0,0-5.87-26.41c-2.29-8.29-16.25-18.09-29.76-27.58-11.36-8-23.1-16.22-27.91-23.64-10.37-16-13-27.74-13-27.86a.68.68,0,1,1,1.32-.29c0,.12,2.6,11.64,12.82,27.41,4.66,7.2,16.3,15.37,27.55,23.27,13.7,9.62,27.87,19.57,30.29,28.33a244.63,244.63,0,0,1,5.9,26.58.68.68,0,0,1-.57.77Z"/><path class="cls-14" d="M697.09,259.17l-41.81,23.9s34.46,2.91,56.18-10.76A152.58,152.58,0,0,0,697.09,259.17Z"/><path class="cls-14" d="M652.52,228.52l-41.23,3.62a99.19,99.19,0,0,0,37.31,10.12,68.08,68.08,0,0,0,22.59-2C664.81,236,658.44,232,652.52,228.52Z"/><path class="cls-14" d="M541.63,228s-2.25-.58-3.44-5.36,14.8-8,18.38-6.11c5.35,2.8,6.78,6.76,6.78,6.76S547.45,231.78,541.63,228Z"/><path class="cls-18" d="M557.22,220.49,576,229.05c2,1.87-2.56,17.9-8.07,18.68-1.62.23-3.3-1.84-4.56-4.67l-6.47-15.85Z"/><path class="cls-14" d="M558.21,230.4c1.69-2.58,3.95-6.14,3.95-6.14a13.1,13.1,0,0,1,3.09,9.07,12.59,12.59,0,0,1-2.81,7.42Z"/><path class="cls-18" d="M549.82,218.94l10.68,4.19a7,7,0,0,1,3.32,9.17c-1.25,2.76-2.46,4.22-5.19,6.81-2.27,2.16-5.59,1.49-8.74-1.11a38.08,38.08,0,0,1-8.26-10C538.51,222.6,542.67,216.72,549.82,218.94Z"/><path class="cls-14" d="M560.5,223.13l-10.68-4.19a10.14,10.14,0,0,0-2.48-.46c1.79,1.27,5.43,4.25,5.67,5.21.6,2.48-.77,1.19-3.18,3.94-1.54,1.75-2.75,4.91-3.43,7a32.15,32.15,0,0,0,3.49,3.39c3.15,2.6,6.47,3.27,8.74,1.11,2.73-2.59,3.94-4.05,5.19-6.81A7,7,0,0,0,560.5,223.13Z"/><path class="cls-4" d="M551.79,229a18.86,18.86,0,0,1-3.81,4.91s1.76,1.59,3.31,1S553.43,231.5,551.79,229Z"/><path class="cls-13" d="M554.89,237.28c1.68-3.13,7.44-1.81,7.53-9.78,0-1.48-1.33-3.38-2.16-4.46l.24.09a7,7,0,0,1,3.32,9.17c-1.25,2.76-2.46,4.22-5.19,6.81a4.87,4.87,0,0,1-5,1C554.05,239.69,554.38,238.24,554.89,237.28Z"/><path class="cls-18" d="M553,222a10.56,10.56,0,0,0-1.5-1.49c-1-.86-2.39-2.38-.36-3.3,3-1.33,8.05,2.82,6.35,5.74C556.25,225.09,554.14,223.38,553,222Z"/><path class="cls-19" d="M538.05,220.38A24.3,24.3,0,0,1,544.73,207c5-5,17.36-2.14,18.84.92,1.77,3.65-2.25,2.81-2.34,3.49-.11,1,4.19,12.41,2.94,12.21-4-.66-7.28-1.69-11.63-2.76C542.09,218.33,537.42,223.51,538.05,220.38Z"/><path class="cls-19" d="M552.16,218.2c-.06,2.4-11.59.7-11.25,6.28a28.06,28.06,0,0,0,1,4s-3.33-2.27-3.57-4.33-1.14-2.91.3-5.33C541.29,214.42,552.22,216,552.16,218.2Z"/><path class="cls-19" d="M561.18,237.67s8.44-4.23,4.77-13.2L565,224s-.18-3.71,6.16-3.06,11,3,11.33,5.5S582,239.21,578,246.19c-2.51,4.39-11.68,7.09-14.21,2.82S559.33,237.64,561.18,237.67Z"/><path class="cls-19" d="M633.47,182.18c1.59-1,1.73-2.08.56-1.62s-8.61,4.64-9,3.68,4.09-3.52,5.17-4.41,2.35-2,1.78-2.66-8.57,5.48-8.71,4.24,6.92-7.26,5.9-7.38-7.69,5.73-7.94,4.92,1.7-2.48,3.23-4.32,1.88-3.57,1.19-3.52-6.21,6.62-6.21,6.62a222.54,222.54,0,0,1-22.92,15.37C582.05,201.68,569.53,223,569.53,223l7.76,14.48s18.38-18.05,25.55-23.24,27.7-22.75,27.7-22.75,7.48-5.25,6-6.13-6.41,3-7.46,2.87-1.37-1.12-1.61-1.68S631.88,183.19,633.47,182.18Z"/><path class="cls-14" d="M630.68,270h-2.19s-4.66,5.21-2,7.81,4.24-4.24,4.19-5.43S630.68,270,630.68,270Z"/><path class="cls-16" d="M600.2,224.9c-3.47-6.93,12.31-19,31.54-22.13s88-15.8,99.3,6.72c11.48,22.87-12.74,52.82-54.17,69.4-35.25,14.12-41.14-10.36-40-18.53s34.65-27.77,34.65-27.77S608.41,241.28,600.2,224.9Z"/><path class="cls-12" d="M731,209.49c-11.3-22.52-80.07-9.85-99.3-6.72a62.51,62.51,0,0,0-15.84,4.81c5.31,2.18,13.72,4.87,20,3.25,9.89-2.54,29.84-9.68,45.94-7.81s17.63,4.76,30,6.11,24.23,2.73,11,14.53-36.83,14-38.7,26.58-22.42,17.5-28,17.16c-4.33-.27-12.88-7.2-19.27-7.39,0,.12,0,.24-.06.35-1.1,8.17,4.79,32.65,40,18.53C718.3,262.31,742.52,232.36,731,209.49Z"/><path class="cls-13" d="M838.86,361.24a1.65,1.65,0,0,0,.16-3.12L608.3,264.82a1.67,1.67,0,0,0-2.16.91,1.65,1.65,0,0,0,.92,2.15l230.72,93.3A1.61,1.61,0,0,0,838.86,361.24Z"/><path class="cls-13" d="M829.07,344.7c-1.73-.51-3.61.2-5.3,2a14,14,0,0,0-2.61,4.2,16.77,16.77,0,0,0-.69,1.92c-.12.41-.23.82-.32,1.23-1.14,5.06.12,9.36,3.14,10.25a4.06,4.06,0,0,0,2.29,0c2.09-.6,4.12-2.74,5.48-5.83a18.39,18.39,0,0,0,.84-2.27c.09-.29.16-.57.23-.86C833.42,350.1,832.16,345.61,829.07,344.7Zm-.34,10.55a14.51,14.51,0,0,1-.73,2c-1.28,2.79-3,4.13-3.77,3.91s-1.18-1.51-1.18-3.57a12.55,12.55,0,0,1,.22-2.25,14.55,14.55,0,0,1,.37-1.56,12.85,12.85,0,0,1,.58-1.61,10.77,10.77,0,0,1,2-3.18,3.66,3.66,0,0,1,1.5-1.07.82.82,0,0,1,.46,0c.81.23,1.63,2.71.88,6.21A11.08,11.08,0,0,1,828.73,355.25Z"/><path class="cls-14" d="M636.83,264c-2.63.27-7.35,3.61-8.5,6.33s1.43,2-.26,4.65c-1.12,1.78-4.45,2.91-2.9,5.82S634.07,286,640,282s9.29-10.86,5.35-15A10.8,10.8,0,0,0,636.83,264Z"/><path class="cls-14" d="M671.48,233.27a.68.68,0,0,1-.39-1.23c.15-.11,15.11-10.39,30.06-12a.68.68,0,1,1,.15,1.35C686.69,223,672,233.05,671.86,233.15A.66.66,0,0,1,671.48,233.27Z"/><path class="cls-13" d="M661.76,544.6a1.65,1.65,0,0,1-1.09-.4,10.81,10.81,0,0,0-5.65-2.49,1.7,1.7,0,0,1,.18-3.39,14,14,0,0,1,7.65,3.29,1.69,1.69,0,0,1-1.09,3Z"/><path class="cls-13" d="M667.84,538.56a1.7,1.7,0,0,1-1.1-.4,10.67,10.67,0,0,0-5.64-2.49,1.7,1.7,0,0,1,.18-3.4,14.05,14.05,0,0,1,7.65,3.29,1.7,1.7,0,0,1-1.09,3Z"/><path class="cls-13" d="M609.25,544.6a1.65,1.65,0,0,1-1.09-.4,10.81,10.81,0,0,0-5.65-2.49,1.7,1.7,0,0,1,.18-3.39,14,14,0,0,1,7.65,3.29,1.69,1.69,0,0,1-1.09,3Z"/><path class="cls-13" d="M614.27,538.94a1.7,1.7,0,0,1-1.1-.4,10.67,10.67,0,0,0-5.64-2.49,1.7,1.7,0,0,1,.18-3.4,14.05,14.05,0,0,1,7.65,3.29,1.7,1.7,0,0,1-1.09,3Z"/><path class="cls-13" d="M552.19,219.6a55,55,0,0,1,11-1.85.62.62,0,0,1,.55.29,5.56,5.56,0,0,1,.63,3.4.62.62,0,0,1-.66.58c-1.57-.1-6-.21-9.19,1.38Z"/><path class="cls-14" d="M552,219.35a1.9,1.9,0,0,0-2.34-.7c-2.14.87-6.52,3-8.79,6.31-3.25,4.73-2.64,5-2.38,5.61a21.55,21.55,0,0,0,3.67,4.08c.52.19,2.87-1.32,3.38-2s-2.51-2.66-1.19-3.85c.89-.8,2.83,1.27,4.25.78s6.23-4.48,5.86-5.81A27.13,27.13,0,0,0,552,219.35Z"/><path class="cls-16" d="M554.88,223.63h0a1.92,1.92,0,0,0-.12-.33,9.24,9.24,0,0,0-.59-1.19c-.15-.29-.33-.6-.52-.92s-.39-.65-.58-1l-.46-.73c-.09-.12-.16-.24-.24-.36a2,2,0,0,0-.4-.46,2.24,2.24,0,0,0-1.81-.55,2.61,2.61,0,0,0-.61.16l-.87.38h0c-.21.08-.43.19-.66.3-.68.33-1.46.73-2.27,1.22l-.27.17h0a17,17,0,0,0-4.55,4,3.79,3.79,0,0,0-.3.4l0,0c-.36.52-.68,1-1,1.42l-.12.18c-1.84,2.89-1.75,3.61-1.4,4.3l0,.11a16.4,16.4,0,0,0,1.58,2A11.11,11.11,0,0,0,542,235c.67.23,2.39-.85,3.32-1.65a3.15,3.15,0,0,0,.52-.51h0c.39-.54-.09-1.17-.59-1.83-.78-1-1.07-1.58-.65-2,.24-.22.89.07,1.51.36a4.47,4.47,0,0,0,2.1.59,1.37,1.37,0,0,0,.49-.09,12.31,12.31,0,0,0,2.89-1.93,15.66,15.66,0,0,0,2.51-2.51A2.48,2.48,0,0,0,554.88,223.63Zm-6.07,5.42-.3.12a2.24,2.24,0,0,1-1.5-.26l-.49-.22a6.91,6.91,0,0,0-1-.39,1.38,1.38,0,0,0-1.44.18,1.5,1.5,0,0,0-.29.34,1.24,1.24,0,0,0-.16.91,4.36,4.36,0,0,0,1,1.82,3.36,3.36,0,0,1,.57.91,2.15,2.15,0,0,1-.34.34,8,8,0,0,1-2.57,1.46,22.64,22.64,0,0,1-3.41-3.87l-.08-.15c-.15-.3-.36-.72,1.25-3.3l.06-.09c.18-.29.4-.62.64-1,.09-.14.2-.29.3-.45l.16-.23.27-.39a18,18,0,0,1,5.88-4.63l.6-.31c.26-.13.5-.25.73-.35q.64-.3,1.11-.48l.13,0a1.31,1.31,0,0,1,.27-.06l.22,0a1.45,1.45,0,0,1,1.25.68l.07.11.76,1.19c.34.57.64,1.08.88,1.52l.09.16a7.64,7.64,0,0,1,.61,1.31c.2.72-2.47,3.31-4.36,4.6A8.11,8.11,0,0,1,548.81,229.05Z"/><path class="cls-15" d="M546.6,221.48s3-2.24,4-1.83,2.58,3.28,2.52,3.85-9.52.44-9.08-.11A18,18,0,0,1,546.6,221.48Z"/></g></g></svg>