<?xml version="1.0" standalone="no"?>
<!DOCTYPE svg PUBLIC "-//W3C//DTD SVG 20010904//EN"
 "http://www.w3.org/TR/2001/REC-SVG-20010904/DTD/svg10.dtd">
<svg version="1.0" xmlns="http://www.w3.org/2000/svg"
 width="272.000000pt" height="174.000000pt" viewBox="0 0 272.000000 174.000000"
 preserveAspectRatio="xMidYMid meet">

<g transform="translate(0.000000,174.000000) scale(0.100000,-0.100000)"
fill="#000000" stroke="none">
<path d="M1645 1530 c-173 -47 -287 -129 -311 -224 -3 -15 -12 -29 -18 -32 -6
-2 -75 -12 -154 -23 -78 -10 -149 -24 -157 -31 -19 -16 -19 -66 3 -252 23
-196 15 -188 191 -188 l136 0 29 -117 c54 -223 61 -233 161 -241 l55 -4 0
-110 c0 -60 5 -118 10 -129 10 -17 22 -19 121 -19 178 0 321 43 436 131 58 45
62 58 34 97 -37 53 -82 153 -97 219 -23 97 -15 265 15 302 39 49 53 83 52 134
0 29 1 68 2 87 6 129 0 197 -20 240 -27 60 -86 117 -153 149 -75 35 -231 40
-335 11z m326 -38 c98 -48 150 -127 153 -231 l1 -65 -147 -18 -147 -18 -25 25
c-22 22 -34 25 -96 25 -63 0 -80 5 -152 41 -76 38 -84 40 -139 34 -69 -8 -74
0 -33 60 35 52 59 71 133 107 106 52 182 68 301 65 85 -2 114 -7 151 -25z
m-483 -244 c5 -7 19 -101 29 -208 17 -173 18 -197 5 -212 -14 -16 -38 -18
-238 -18 l-224 0 -4 23 c-3 12 -8 46 -11 76 -6 51 -5 53 15 48 27 -7 77 10 84
28 7 19 -20 27 -34 9 -22 -26 -70 -10 -70 23 0 9 17 13 55 13 52 0 55 1 55 25
0 30 -41 75 -67 75 -11 0 -14 3 -7 10 11 11 266 50 332 50 31 0 42 -4 42 -15
0 -8 7 -15 15 -15 18 0 18 2 3 35 -9 20 -18 25 -48 25 -62 0 -343 -40 -356
-51 -7 -5 -15 -21 -18 -34 -10 -41 -26 -28 -26 20 0 25 1 45 3 46 11 4 399 57
423 58 17 1 36 -5 42 -11z m91 -38 c43 -21 40 -13 62 -180 l11 -85 -44 -40
-43 -40 -17 160 c-19 178 -20 205 -13 205 3 0 23 -9 44 -20z m195 -36 c23 -9
20 -24 -4 -24 -22 0 -25 -16 -13 -83 4 -25 13 -41 25 -46 18 -7 18 -7 1 -23
-16 -14 -93 -41 -100 -35 -1 2 -7 36 -13 77 -6 41 -13 90 -16 108 l-5 32 55 0
c30 0 61 -3 70 -6z m346 -29 c0 -19 -5 -25 -22 -25 -13 0 -39 -10 -58 -21 -23
-14 -70 -26 -139 -35 -57 -8 -106 -12 -108 -10 -2 2 -6 19 -9 38 l-6 34 168
21 c93 11 170 21 172 22 1 0 2 -10 2 -24z m-1010 -60 c18 -22 9 -27 -41 -23
-41 3 -42 4 -25 21 22 21 49 22 66 2z m1018 -17 c6 -29 -18 -96 -44 -127 -13
-16 -45 -37 -69 -47 -55 -21 -59 -39 -7 -31 l37 6 0 -127 c0 -146 16 -208 85
-326 23 -38 37 -73 33 -77 -41 -38 -142 -94 -207 -116 -65 -21 -107 -27 -208
-31 l-128 -4 0 116 c0 114 0 116 23 116 41 0 122 47 173 101 70 74 99 118 86
131 -7 7 -23 -7 -49 -44 -51 -68 -115 -126 -162 -145 -21 -9 -68 -16 -112 -16
-99 -1 -140 20 -152 78 -4 22 -19 83 -32 136 -14 53 -25 100 -25 106 0 6 36
14 84 18 l83 7 68 68 c44 44 80 72 99 76 65 14 104 35 116 63 10 24 19 29 63
35 29 3 69 6 89 6 23 0 51 10 75 25 41 28 76 29 81 3z"/>
<path d="M1430 705 c-11 -13 -7 -15 26 -15 22 -1 60 -2 87 -4 26 -2 47 0 47 5
0 28 -139 40 -160 14z"/>
<path d="M1470 653 c0 -15 35 -26 60 -18 35 11 23 30 -20 30 -25 0 -40 -4 -40
-12z"/>
<path d="M837 1184 c-14 -14 -7 -35 11 -32 9 2 17 10 17 17 0 16 -18 25 -28
15z"/>
<path d="M130 1174 c0 -4 17 -53 38 -110 42 -119 60 -132 85 -61 8 23 26 72
40 110 24 61 24 67 9 67 -14 0 -25 -21 -46 -85 -15 -47 -31 -83 -36 -80 -5 3
-20 41 -35 85 -17 50 -32 80 -41 80 -8 0 -14 -3 -14 -6z"/>
<path d="M350 1070 c0 -91 3 -110 15 -110 11 0 15 11 15 40 0 36 3 40 25 40
19 0 29 -10 45 -40 11 -22 27 -40 35 -40 19 0 18 7 -4 50 -18 33 -18 35 1 61
15 20 18 35 13 58 -8 39 -30 51 -94 51 l-51 0 0 -110z m108 68 c30 -30 1 -68
-52 -68 -24 0 -26 4 -26 40 0 39 1 40 33 40 18 0 38 -5 45 -12z"/>
<path d="M540 1071 l0 -110 33 -1 c17 0 40 -1 51 -1 49 -1 80 75 52 130 -18
35 -54 48 -85 31 -19 -10 -21 -8 -21 25 0 24 -4 35 -15 35 -12 0 -15 -19 -15
-109z m104 13 c20 -20 20 -53 0 -82 -28 -41 -74 -16 -74 42 0 52 40 74 74 40z"/>
<path d="M905 1138 c-10 -21 -12 -34 -5 -36 5 -2 10 -23 10 -47 0 -64 14 -95
45 -95 30 0 33 15 5 30 -16 8 -20 21 -20 60 0 43 3 50 20 50 11 0 20 5 20 11
0 6 -9 13 -20 16 -11 3 -20 11 -20 19 0 27 -19 23 -35 -8z"/>
<path d="M724 1121 c-2 -2 -4 -40 -4 -83 0 -63 3 -78 15 -78 12 0 15 13 15 58
0 60 11 82 42 82 10 0 18 7 18 15 0 11 -10 14 -41 12 -22 -1 -42 -4 -45 -6z"/>
<path d="M836 1123 c-3 -3 -6 -42 -6 -85 0 -63 3 -78 15 -78 12 0 15 15 15 79
0 74 -7 100 -24 84z"/>
</g>
</svg>
