<svg xmlns="http://www.w3.org/2000/svg" xmlns:xlink="http://www.w3.org/1999/xlink" viewBox="0 0 1000 700"><defs><style>.cls-1{fill:#ff8b85;}.cls-2{fill:url(#_3);}.cls-3{fill:url(#_3-2);}.cls-4{fill:#fff;}.cls-5{fill:url(#_23);}.cls-6{fill:#fcc;}.cls-7{fill:url(#_2);}.cls-8{fill:url(#_23-2);}.cls-9{fill:url(#_84);}.cls-10{fill:url(#_84-2);}.cls-11{fill:url(#_88);}.cls-12{fill:#311e69;}.cls-13{fill:#614cd4;}.cls-14{fill:#1e1240;}.cls-15{fill:#d95f76;}.cls-16{fill:#ff8f8f;}.cls-17{fill:#ff6161;}.cls-18{fill:#ad263d;}.cls-19{fill:#8376ff;}</style><linearGradient id="_3" x1="186.83" y1="332.98" x2="209.7" y2="47.92" gradientUnits="userSpaceOnUse"><stop offset="0" stop-color="#ff8b85"/><stop offset="0.39" stop-color="#ffa09c"/></linearGradient><linearGradient id="_3-2" x1="583.08" y1="403.46" x2="603.38" y2="150.39" xlink:href="#_3"/><linearGradient id="_23" x1="119.64" y1="177.61" x2="83.02" y2="31.12" gradientTransform="translate(-15.61 58.99) rotate(10.06)" gradientUnits="userSpaceOnUse"><stop offset="0" stop-color="#ffbbb8"/><stop offset="1" stop-color="#fff"/></linearGradient><linearGradient id="_2" x1="184.99" y1="408.7" x2="196.61" y2="193.65" gradientUnits="userSpaceOnUse"><stop offset="0" stop-color="#ffa5a1"/><stop offset="1" stop-color="#fff"/></linearGradient><linearGradient id="_23-2" x1="316.69" y1="251.72" x2="376.62" y2="61.04" gradientTransform="translate(42.53 53.36) rotate(19.37)" xlink:href="#_23"/><linearGradient id="_84" x1="513.76" y1="394.3" x2="519.36" y2="289.48" gradientTransform="matrix(1, -0.09, 0.09, 1, -19.45, 74.48)" gradientUnits="userSpaceOnUse"><stop offset="0" stop-color="#ff9691"/><stop offset="1" stop-color="#fff"/></linearGradient><linearGradient id="_84-2" x1="495.64" y1="175.37" x2="484.67" y2="69.49" gradientTransform="translate(-31.34 163.49) rotate(10.09)" xlink:href="#_84"/><linearGradient id="_88" x1="599.84" y1="1028.06" x2="480.43" y2="498.98" gradientUnits="userSpaceOnUse"><stop offset="0" stop-color="#ffaca8"/><stop offset="1" stop-color="#fff"/></linearGradient></defs><title>nordic</title><g id="Layer_2" data-name="Layer 2"><g id="Layer_1-2" data-name="Layer 1"><rect class="cls-1" width="1000" height="700"/><path class="cls-2" d="M384.67,209.37s-53.5-98.8-154.89-96.81S0,319.37,0,319.37V467.56S346.57,377.29,384.67,209.37Z"/><path class="cls-3" d="M1000,239.24V449.92C963.34,454,924,458,883.86,461.4c-41,3.5-82.86,6.41-123.38,8.21-16.9.76-33.57,1.33-49.86,1.67-11.66.25-23.13.38-34.35.37-17.77,0-34.91-.32-51.21-1-10.09-.43-19.86-1-29.25-1.74q-7.45-.58-14.58-1.3-8.29-.84-16.59-1.64c-31.89-3.09-63.69-5.82-94.62-8.24l-3.11-.24C304.71,444.87,167.33,441,167.33,441V342.42s.51-1.44,1.55-4.06c4.91-12.4,21.8-51.15,53.54-87.43a0,0,0,0,0,0,0c29.28-33.49,71.23-64.88,128.08-71.54q6.09-.72,11.91-1.13c57.16-4.14,94.75,12.2,118.55,30.69,1.29,1,2.53,2,3.74,3,24,20.08,32.41,41.5,32.41,41.5s88-102.48,280.15-93.94c48,2.13,97.48,19.65,144.7,44.72q8.56,4.54,17,9.42C972.94,221.65,986.64,230.26,1000,239.24Z"/><path class="cls-4" d="M597.93,123.35c0,2.58-3.31,4.67-7.4,4.67s-7.41-2.09-7.41-4.67,3.31-4.68,7.41-4.68S597.93,120.76,597.93,123.35Z"/><path class="cls-4" d="M215.42,114.7c0,2.58-3.32,4.68-7.41,4.68s-7.4-2.1-7.4-4.68S203.92,110,208,110,215.42,112.12,215.42,114.7Z"/><path class="cls-4" d="M215.42,171.94c0,1.29-1.66,2.34-3.7,2.34s-3.71-1.05-3.71-2.34,1.66-2.34,3.71-2.34S215.42,170.65,215.42,171.94Z"/><path class="cls-4" d="M184.39,247.86c-2.23,1.29-5.7-.53-7.75-4.07s-1.89-7.46.35-8.76,5.7.54,7.75,4.08S186.63,246.57,184.39,247.86Z"/><path class="cls-4" d="M582.12,116.28c-.55,1.7-3.18,2.38-5.88,1.51s-4.44-3-3.89-4.66,3.19-2.38,5.88-1.51S582.67,114.58,582.12,116.28Z"/><path class="cls-4" d="M661.48,54.08c-.55,1.71-3.18,2.38-5.88,1.51s-4.44-3-3.89-4.66,3.18-2.38,5.88-1.51S662,52.38,661.48,54.08Z"/><path class="cls-4" d="M681.18,114.56c-.55,1.71-3.18,2.38-5.88,1.51s-4.44-3-3.89-4.66,3.19-2.38,5.89-1.51S681.73,112.86,681.18,114.56Z"/><path class="cls-4" d="M960.44,44.9c-.55,1.7-3.18,2.37-5.88,1.5s-4.44-2.95-3.89-4.66,3.18-2.38,5.88-1.5S961,43.19,960.44,44.9Z"/><path class="cls-4" d="M454.43,87.42c-.55,1.71-3.18,2.38-5.88,1.51s-4.44-3-3.89-4.66,3.18-2.38,5.88-1.51S455,85.72,454.43,87.42Z"/><path class="cls-4" d="M904.53,107c-.55,1.71-3.19,2.38-5.88,1.51s-4.44-3-3.89-4.66,3.18-2.38,5.88-1.51S905.08,105.31,904.53,107Z"/><path class="cls-4" d="M479.91,154c-.55,1.7-3.18,2.37-5.88,1.5s-4.44-2.95-3.89-4.66,3.18-2.38,5.88-1.5S480.46,152.26,479.91,154Z"/><path class="cls-4" d="M965.43,258.31c-.55,1.7-3.19,2.37-5.88,1.5s-4.44-3-3.89-4.66,3.18-2.38,5.88-1.5S966,256.6,965.43,258.31Z"/><path class="cls-4" d="M825,148.32c-1.08,1.43-5.05.24-8.87-2.66s-6-6.4-5-7.82,4.12,1.4,7.94,4.3S826,146.9,825,148.32Z"/><path class="cls-4" d="M767.57,126.48c-.28.85-1.6,1.19-3,.75s-2.21-1.48-1.94-2.33,1.59-1.19,2.94-.75S767.84,125.63,767.57,126.48Z"/><path class="cls-4" d="M277.08,88.48c-.28.85-1.59,1.19-2.94.75s-2.22-1.48-1.95-2.33,1.59-1.19,2.94-.75S277.35,87.63,277.08,88.48Z"/><path class="cls-4" d="M815.81,56.76c-.28.85-1.6,1.19-2.94.75s-2.22-1.48-2-2.33,1.59-1.19,2.94-.75S816.08,55.91,815.81,56.76Z"/><path class="cls-4" d="M460,267.13c-.28.85-1.59,1.19-2.94.75s-2.22-1.48-2-2.33,1.59-1.19,2.94-.75S460.31,266.28,460,267.13Z"/><path class="cls-4" d="M943.41,149.17c-.28.85-1.59,1.19-2.94.75s-2.22-1.48-2-2.33,1.59-1.19,2.94-.75S943.68,148.32,943.41,149.17Z"/><path class="cls-4" d="M732.69,63.93c-.27.85-1.59,1.19-2.94.75s-2.22-1.48-1.94-2.33,1.59-1.19,2.94-.75S733,63.07,732.69,63.93Z"/><path class="cls-4" d="M601.08,107.25c-.27.85-1.59,1.19-2.94.76s-2.22-1.48-1.94-2.33,1.59-1.19,2.94-.76S601.36,106.4,601.08,107.25Z"/><path class="cls-4" d="M768.39,176.42c-.28.85-1.6,1.19-2.94.75s-2.22-1.48-2-2.33,1.59-1.19,2.94-.75S768.66,175.57,768.39,176.42Z"/><path class="cls-4" d="M484.74,202c1.78.21,2.95,2.67,2.61,5.48s-2,4.93-3.82,4.72-2.95-2.67-2.61-5.49S483,201.74,484.74,202Z"/><ellipse class="cls-4" cx="278.85" cy="220.42" rx="5.13" ry="3.24" transform="translate(26.99 471.24) rotate(-83.2)"/><path class="cls-4" d="M893.21,60.28c1,1.48-.1,4-2.45,5.55s-5.07,1.65-6.07.17.1-4,2.46-5.55S892.22,58.79,893.21,60.28Z"/><path class="cls-4" d="M915.63,67.46c2,2.94-.2,7.87-4.86,11s-10.06,3.28-12,.34.2-7.87,4.86-11S913.66,64.51,915.63,67.46Z"/><path class="cls-4" d="M476.7,27.2c1,1.47-2,5.2-6.66,8.33s-9.25,4.48-10.24,3,2-5.21,6.66-8.34S475.71,25.72,476.7,27.2Z"/><path class="cls-4" d="M355.3,111.84c1,1.49-.1,4-2.46,5.55s-5.07,1.66-6.07.17.11-4,2.46-5.55S354.3,110.36,355.3,111.84Z"/><path class="cls-4" d="M283.12,70.27c1,1.48-.11,4-2.46,5.55s-5.07,1.66-6.07.17.1-4,2.46-5.55S282.12,68.78,283.12,70.27Z"/><path class="cls-4" d="M94.69,40.46c1,1.48-.1,4-2.45,5.55s-5.08,1.66-6.07.17.1-4,2.45-5.55S93.69,39,94.69,40.46Z"/><path class="cls-4" d="M136.15,76.94c1,1.49-.1,4-2.45,5.55s-5.07,1.66-6.07.18.1-4,2.46-5.56S135.16,75.46,136.15,76.94Z"/><path class="cls-4" d="M215.65,269.21c1,1.49-.11,4-2.46,5.55s-5.07,1.66-6.07.17.1-4,2.46-5.55S214.65,267.73,215.65,269.21Z"/><path class="cls-4" d="M529,180.31c.58,3.44-3.37,7-8.81,7.88s-10.32-1.14-10.9-4.57,3.37-7,8.81-7.88S528.41,176.88,529,180.31Z"/><path class="cls-4" d="M121.76,180.63c-1.74,3-7,3.22-11.81.46s-7.24-7.44-5.5-10.45,7-3.23,11.81-.47S123.5,177.61,121.76,180.63Z"/><path class="cls-4" d="M184.56,37.37c-1.74,3-7,3.23-11.8.47s-7.25-7.44-5.5-10.46,7-3.23,11.8-.47S186.31,34.36,184.56,37.37Z"/><path class="cls-4" d="M280.83,156c1.63,2.44-.17,6.51-4,9.1s-8.31,2.72-9.94.28.16-6.51,4-9.1S279.19,153.61,280.83,156Z"/><path class="cls-4" d="M166.72,128.23c1.63,2.43-.17,6.51-4,9.1s-8.31,2.71-9.94.28.16-6.51,4-9.1S165.08,125.79,166.72,128.23Z"/><path class="cls-4" d="M666.39,103.13c.58,3.44-3.37,8.81-8.81,9.72s-10.32-3-10.9-6.41,3.37-5.12,8.81-6S665.81,99.7,666.39,103.13Z"/><path class="cls-4" d="M374.23,67.92c.58,3.44-3.37,7-8.81,7.88s-10.32-1.13-10.9-4.57,3.37-7,8.81-7.87S373.66,64.49,374.23,67.92Z"/><path class="cls-4" d="M224.38,90.59c-2.23,2.68-7.48,2-11.72-1.54s-5.88-8.56-3.65-11.24,7.47-2,11.72,1.54S226.6,87.91,224.38,90.59Z"/><ellipse class="cls-4" cx="950.57" cy="208.59" rx="6.31" ry="9.99" transform="translate(182.41 806.1) rotate(-50.25)"/><path class="cls-5" d="M108.18,316s-48,19.18-75.29,3.37C6.27,304,26.36,122.09,70.21,143.42S143.62,300.92,108.18,316Z"/><path class="cls-6" d="M100.06,270.69c-1-1.33-20.94,11.6-26.59,15.29l-.33-26.1S91,243.37,89.52,243.41s-16.47,12.65-16.47,12.65-.21-45.14-2.24-43.18S70.3,240.17,69.52,248c0,0-11.92-11.52-13.15-10.23-.93,1,12.8,13.13,12.8,13.13l.68,11.93s-18.47-13.51-20.19-11.35c-.77,1,17.71,12.36,19,14.41.4.63.53,11.79.52,26.84-5.13-4.15-22.13-17.73-24.12-17s19.86,18.65,24.11,22.09c-.08,33.14-.74,80.17-.74,80.17l6.22-.14-1.13-87.71C79.37,286.31,101,272,100.06,270.69Z"/><path class="cls-7" d="M237.59,384c-2.35-5.71-8.18-7.55-12.51-10.64-2.45-1.75-2.17-3.9-.56-4.72s-1.57-6.44-4.24-9.54c-6.2-7.18-11.33-16-16-24.48,4.35-5.05.08-13.33,1.72-14.43.95-.63,2.6,6.37,8.95,4.83s4.28-10.91.63-14.17c-5.82-5.19-4.83-19.25-3.8-27.43,2.23.82,5.35,4.72,8.11.21,3-4.93-1.34-10.41-2.28-15.09-1.78-8.83,5.26-19.75,11.23-25.8,9.28-9.39-3.44-8.19-9.4-4.88-15.6,8.65-32.42,20.4-48.45,26.77-1.05.42-11.94,9.54-7.16,9.06,1.3-.13,6.62.15,6.28,3.12a7.74,7.74,0,0,0,0,1.08,17.55,17.55,0,0,1-3.48,2.76c-4.37,2.41-13,3.53-14.33,8.82-.68,2.8,1.87,3.21,1.84,5.33-.05,3.74-4.12,5.1-5.37,6.35-2.94,2.92-10.74,2.71-11.17,7.47-.37,4,2.35,10.84,7.38,9,2.89-1.05,6.83-2,9-1.62-3.26,5.24-6,12.42-10.65,16s-9.8,9-7.11,15.7c2.53,6.3,9.74,1,11.68,2,1.53.78.71,6.77,1,10.22.45,6.15,2.67,12.23,7.34,16.34,10.77,9.47,8.33-9.34,9.39-9.76.42-.17,1.71.39,5.2,5.08,5.35,7.2,6.3.84,8.9,2.95,2.22,1.79,2.81,6.17,8.94,9.42s4.21-6.88,5.52-8.61,10.92,8.12,13.38,10.09c3.13,2.51,3.77-3.44,4.35-5.83.46-1.89,18.52,10.43,22.29,12.22C238.43,393.81,240.75,391.74,237.59,384Z"/><path class="cls-8" d="M345.67,247s-47.29,6.84-42.24,14.73,16.33,4.81,12.7,10.29S259.57,276.19,262.6,283s7.46,3,9.69,9.19,3.48,4.62,8.51,6.73-12.91,14.5-21.05,15.38-30.26,2-25.5,8.72,19,5.9,22.45,11.58,10.19,8.73,6.19,11.41-61.4,8.27-62.09,16.05,9,2.36,19.79,8.52,15,8.68,23,10,16.06-3.1,24.38,5.13,23.68,18.73,34.65,24.28,20.51,11.3,22.22,6.45S300.48,367.76,304.13,368s8.67,3.38,12.23,8.72,11.54,7.8,13.68,7.53-12.48-62.2-7.23-60.69,3.4,3.88,7.68,8.13,13.54,13.58,11.63,4.09-8-53.12-.71-51.59,6.3,12.08,12.11,10,.6-36.51,7.36-40.26S363.92,243.64,345.67,247Z"/><path class="cls-9" d="M545,350.36c.56-4.16-1.58-9.92-9.84-4.55s-31,16.29-28.21,21.7,10,2.31,9.13,6.14-28,21.36-24.36,27.42,17.77,2.77,17.94,4.9-12.78,16.36-12.73,22.4,56.74,2.18,61.93,3.84,3-12.29-3.54-19.29.29-5.87,2.22-5.17,6.75-5.26,3.38-10.88-20.81-24.47-16.85-23.63C557.68,376.12,544.42,354.52,545,350.36Z"/><path class="cls-10" d="M476.09,430.61c-2.27-1.77-.78-3.23,1.92-3.86s1.18-5.22-1.45-7.79c-2-1.93-10.95-14.13-15.22-20,8.71-4.54-.69-11.69,2.75-11.57s3.18,5.09,11.63,4.13,6.15-8.91-.54-11.58c-5.2-2.08-11-17-13.35-23.58,3,.74,8.85,4.51,9.72.22,1.07-5.36-4.7-6.88-11.34-14s-9.42-20.1-10.69-27.33c-2.14-12.23-12.66-11.38-15.48-5.22s-17.4,24.92-30,29.1-5.44,9-3.69,8.23,8,.19,8.88,2.82a7,7,0,0,0,.41,1,11.63,11.63,0,0,1-3.06,2.39c-3.83,2.09-14.95,2.84-14.64,7.36.18,2.61,3.1,2.74,3.49,4.5.68,3.12-4.29,4.12-5.72,5.14-5.94,4.25-13.3,1.22-13.75,5.83s3.76,8.69,9.29,7.45c3.95-.88,9-1.45,11.78-1.07-5.33,4.7-11.56,10.95-16.3,12.49-4.15,1.34-16.69,5.67-15.66,12.39s11,.85,15.36,1.87-14.2,13.77-7.56,22.25c8.41,10.74,20.7-8.8,22.43-8.12s2.36.34,3.61,4.34c1.93,6.15,8.59.82,10.64,2.64,1.75,1.55-1.43,5.3,4.47,8.2s12-4.29,16.07-7.26,8.49,6.57,10.94,8.76,9.76-.76,11.61-4.88,17.28,9,22.15,10.74,10.85.08,11.9-6.53S478.37,432.37,476.09,430.61Z"/><path class="cls-11" d="M1000,471.36V700H0V387.38s24.62-22.2,68.78-36.95q2.7-.92,5.5-1.77a249.94,249.94,0,0,1,63.26-10.84,263.37,263.37,0,0,1,31.34.54q8.37.63,17.08,1.83,12.14,1.68,23.73,3.91,15.23,2.88,29.59,6.55,10.53,2.63,20.64,5.6c15.44,4.5,30.21,9.46,44.46,14.57q5.24,1.88,10.36,3.77,7.71,2.85,15.23,5.72c15.49,5.88,30.43,11.72,45,17.09,29.44,10.83,57.51,19.7,86,23,5.21.61,10.43,1,15.64,1.21l1.95.06,1.2,0c6.59.17,13.19.06,19.8-.28,18.95-.95,38-3.72,57.12-6.87,7.12-1.17,14.26-2.39,21.42-3.59,7.57-1.27,15.16-2.52,22.78-3.64,9.34-1.39,18.71-2.61,28.12-3.49h0c10.23-1,20.51-1.53,30.85-1.49A229.85,229.85,0,0,1,695,405q7.86,1.23,15.76,3.11l3.94,1c63.11,15.71,101.75,39.68,169.17,52.3a511.35,511.35,0,0,0,78.26,8.08Q981.35,470.1,1000,471.36Z"/><path class="cls-12" d="M622.6,253S603.47,290.32,588,299.45s-79.95,14.95-83.4,32.33,12.58,28.55,36.93,26.72,66.1-23.2,79.32-46.2S622.6,253,622.6,253Z"/><path class="cls-13" d="M644.08,202.62a10.26,10.26,0,0,1,4.41.34,14.72,14.72,0,0,1,3.2,2l-1,.95-.68-.34.57,1.26-1.18,1.56-.84-.69.16,1.16-.88.92S642,208.78,644.08,202.62Z"/><path class="cls-12" d="M630.24,195.64c-6,1.51-9.77,5-11.24,8-2.16,4.49-2,9.55.45,12.85,5.42,7.22,12.36,7.36,17.15,4.64,4-2.29,4.77-6.74,4-11.87a3.19,3.19,0,0,1,1.82-3.5c1.3-.55,2.42-1.06,2.84-1.3C646.17,204,639.54,193.28,630.24,195.64Z"/><path class="cls-14" d="M648.19,214.07l9-1.76s20.54-8,27,2.07c5.93,9.24.84,42.23-41.17,31.38-14.51-3.75-22.12-30.51-22.12-30.51S628.63,208.21,648.19,214.07Z"/><path class="cls-14" d="M903.94,445.75a1.48,1.48,0,0,0,.91-2.64L729.52,305.34a1.48,1.48,0,1,0-1.83,2.33L903,445.44A1.52,1.52,0,0,0,903.94,445.75Z"/><path class="cls-14" d="M899.64,429.08c-1.37-.87-3.16-.73-5.07.4a13.09,13.09,0,0,0-3.3,3,16.39,16.39,0,0,0-1.06,1.48c-.21.33-.41.66-.59,1-2.23,4.08-2.22,8.08.16,9.6a3.58,3.58,0,0,0,2,.56c1.94,0,4.22-1.33,6.17-3.64a18.58,18.58,0,0,0,1.29-1.76c.14-.22.28-.45.4-.67C902,434.81,902.07,430.64,899.64,429.08Zm-2.93,9a12.75,12.75,0,0,1-1.12,1.52c-1.8,2.08-3.64,2.79-4.22,2.42-.26-.17-.43-.67-.43-1.39a9,9,0,0,1,1-3.85,13.63,13.63,0,0,1,.71-1.26,14.77,14.77,0,0,1,.9-1.25,9.82,9.82,0,0,1,2.49-2.24,3.26,3.26,0,0,1,1.56-.55.67.67,0,0,1,.39.1c.64.41.73,2.73-.78,5.56C897.1,437.45,896.91,437.76,896.71,438.08Z"/><path class="cls-15" d="M901.3,467.78S669.59,612.07,651.35,619.68s-21.46-6.9-18.22-13.48l0-.06a4.4,4.4,0,0,1,7.13-1.06c1.71,1.78,3.82,3.2,6,2.77,5.07-1,239.63-144.23,239.63-144.23Z"/><path class="cls-15" d="M721.47,552.1s-267.9,52.35-287.66,53S416.21,591,421.59,586l0,0a4.39,4.39,0,0,1,7,1.54c1,2.27,2.44,4.35,4.6,4.72,5.1.85,275.28-49.47,275.28-49.47Z"/><path class="cls-14" d="M447.13,531.8a1.53,1.53,0,0,0,2.89-.2l60.2-222.44a1.53,1.53,0,0,0-3-.8L447.06,530.8A1.54,1.54,0,0,0,447.13,531.8Z"/><path class="cls-14" d="M458.82,516.32a13.35,13.35,0,0,0-4.14-2c-.59-.16-1.21-.3-1.84-.41-.4-.07-.8-.12-1.18-.15-4.78-.48-8.59,1.15-9.07,4a3.74,3.74,0,0,0,.27,2.11c.78,1.84,3,3.48,5.95,4.39a18,18,0,0,0,2.19.52l.81.12c4.95.6,8.95-1.05,9.44-4C461.53,519.33,460.67,517.67,458.82,516.32Zm-6.2,5.66c-.36,0-.73-.08-1.11-.15a15.17,15.17,0,0,1-1.9-.45c-2.69-.87-4.12-2.33-4-3s1.82-1.55,4.48-1.55l.76,0a13.72,13.72,0,0,1,1.48.17,13,13,0,0,1,1.55.36,10,10,0,0,1,3.13,1.45,3.42,3.42,0,0,1,1.15,1.26.73.73,0,0,1,.07.42C458.1,521.24,455.93,522.26,452.62,522Z"/><path class="cls-16" d="M507.65,338.61s7.42-4.57,5.35-8.11-7.49-2.65-10.37-5.57-4.74-1.56-3.61,1.38,6.71,5.81,6.47,7.51S507,339.16,507.65,338.61Z"/><path class="cls-16" d="M501.18,325.1s-4-3.52-7.08-2.38-1.24,7.86-1.69,10.8,6,8.09,9.36,7.44,7.48-1.29,5.61-4.67S501.18,325.1,501.18,325.1Z"/><path class="cls-13" d="M780.35,514.84c-1.18-.12-7.37-5.16-8.1-5.53-2.68-1.34-5.85-.76-8.7.95-1.8,1.07-9.16,6.54-8.95,8.48.19,1.74,10.12,3.43,10.71,6.49.26,1.33-5,15.36-1.19,19.24,1.8,1.82,22.78-19.09,24.41-24.34C789.37,517.38,784.25,515.25,780.35,514.84Z"/><path class="cls-14" d="M769.46,534.71a1.3,1.3,0,0,1-.87.26,8.36,8.36,0,0,0-4.67,1.08,1.32,1.32,0,0,1-1.47-2.2,10.91,10.91,0,0,1,6.3-1.52,1.33,1.33,0,0,1,1.24,1.4A1.29,1.29,0,0,1,769.46,534.71Z"/><path class="cls-14" d="M770.43,528.12a1.3,1.3,0,0,1-.87.26,8.41,8.41,0,0,0-4.67,1.07,1.32,1.32,0,0,1-1.47-2.19,10.74,10.74,0,0,1,6.3-1.52,1.32,1.32,0,0,1,.71,2.38Z"/><path class="cls-13" d="M616.32,556.75c-.83-.86-2.35-8.69-2.68-9.44-1.2-2.74-4-4.33-7.28-4.85-2.07-.32-11.22-.84-12.31.79-1,1.45,5.57,9.11,4.07,11.84-.65,1.19-13.7,8.58-13.24,14,.21,2.55,29.72-.06,34.33-3.06C621.62,564.48,619.05,559.56,616.32,556.75Z"/><path class="cls-14" d="M595.23,565a1.28,1.28,0,0,1-.83-.36,8.53,8.53,0,0,0-4.29-2.17,1.32,1.32,0,0,1,.28-2.62,10.84,10.84,0,0,1,5.81,2.87,1.32,1.32,0,0,1-1,2.28Z"/><path class="cls-14" d="M600.2,560.59a1.33,1.33,0,0,1-.83-.36,8.36,8.36,0,0,0-4.28-2.17,1.32,1.32,0,0,1,.28-2.63,11,11,0,0,1,5.8,2.87,1.32,1.32,0,0,1,.06,1.87A1.28,1.28,0,0,1,600.2,560.59Z"/><path class="cls-16" d="M714.87,443.93c-4.06-10.14.49-39.53,3.1-63.81,2-18.61,6.31-42.42-2.65-60-7-15.29-21.52-26.39-29.54-41.1a36.17,36.17,0,0,1-3.43-8.73c-17.85,4.32-38.71,3.56-47.1,3a44,44,0,0,1-.34,5.94c-1.06,8.19-40.22,85.58-59.85,140-9.5,26.3-23,104.3-.31,125.4,4.08,3.79,46.23,9.2,47.27-1.73,5.5-57.93,2.92-83.73,0-114.74-1.84-19.48,32.06-65.6,37.52-65.83,2.52-.1-7.85,43.5,14.18,103.41,16.18,44,80.42,65.45,87.92,58.39,4.27-4,24.06-25.51,21.54-31.24C772.25,468,716.32,447.55,714.87,443.93Z"/><path class="cls-15" d="M783.18,492.84c-10.93-24.85-66.86-45.29-68.31-48.91-4.06-10.14.49-39.53,3.1-63.81,2-18.61,6.31-42.42-2.65-60-.45-1-.92-1.91-1.42-2.84-6.91,3.29-15,8.4-15.67,14.53-1.22,10.9-2,73.6-4.87,90.44s4.87,43,21.92,52.15c13.32,7.14,40.77,29.27,54.55,40.93C776.74,507.33,784.84,496.63,783.18,492.84Z"/><path class="cls-15" d="M622,542.85c5.5-57.93,2.92-83.73,0-114.74-1.61-17,24.12-54.46,34.25-63.72a8.24,8.24,0,0,0-2.71-3.65c-9.71-7.31-24.71,10.55-36.08,23.94s-19.13,18.67-18.7,38.15-8.77,96.41-6,109.49c1.16,5.46,4,11.61,7,16.92C610.85,549.67,621.5,548.28,622,542.85Z"/><path class="cls-12" d="M599,359.57s-1.74,6.09,5.83,13.8,29.11,15.29,57.65,13.14,49.49-18.82,53.63-25.5c5.54-8.95,5.41-15.45,5.41-15.45S706.32,358.5,696.33,366s-37.51,14.64-57.19,8.46S599,359.57,599,359.57Z"/><path class="cls-13" d="M724.81,336.79c-.4-8.12-3.72-12.36-3.72-12.36s2.71-10.37-.54-18.89a20.86,20.86,0,0,0-9-10.17c-.7-1.65-1.38-11.17-3.2-14.59a15.64,15.64,0,0,0-6.71-6.41c-1.82-10.84-7.75-14.38-11.1-20.06a18.15,18.15,0,0,0-5.33-5.08s-3.25-8.84-4-10C669.74,222,643.84,218.93,627.52,233a44.48,44.48,0,0,0-13,21.09c-2.71,10.5,3,25.42,3,25.42s-4.92,5-6.51,9.79c-2.23,6.69-1,10.75-.66,18.23-2.57,1.49-8.5,7-9.89,11.6-2.64,8.72,0,14.66-.6,16.62-1.46.88-3.23,2.67-4.52,6.31-1.88,5.31.9,15.44,4.14,21.1a26.6,26.6,0,0,0,4.84,7.51c10.37,10.81,78,20.5,110.74-13.5C721,352.72,725.16,343.66,724.81,336.79Z"/><path class="cls-17" d="M636.35,217,644,231.8c1.26,2.45-1.6,11.79-7,10.63-1.59-.34-1.8-4.45-2-7.54l-3.53-14.26Z"/><path class="cls-12" d="M633.55,229.1c2.7-2.59,3.49-9,3.49-9L632,222.67Z"/><path class="cls-17" d="M633.85,211.41A8,8,0,0,0,629,209a13.72,13.72,0,0,0-3.62,0,10.27,10.27,0,0,0-6.39,3.79c.16,2.88-.09,8.29,3.2,12,3.94,4.49,9.23,4.1,12.59.71a9.52,9.52,0,0,0-.07-13.19Z"/><path class="cls-17" d="M634.6,212.92c0-.57,0-1.19.55-1.43,1.89-.92,4,4.06,1.39,4.92C634.63,217.05,634.53,214.35,634.6,212.92Z"/><path class="cls-4" d="M627.52,219.88a15.94,15.94,0,0,1-5.45,1.52,3.45,3.45,0,0,0,1.8,1.89C625.3,223.72,627.37,222.76,627.52,219.88Z"/><path class="cls-13" d="M617.77,213a4.18,4.18,0,0,1-1.22-3.69A5.57,5.57,0,0,1,619,205.9v1.25s2.4-4.36,4.89-4.63,2.4.34,2.4.34-.71.23-.78.36,4.87-1.65,9.87.4a6.45,6.45,0,0,1,3.29,2.77l-.63.17a6.3,6.3,0,0,1,3.17,2.48c.86,1.68-3.4,2.83-4.87,2.45s-5.76-3.48-9.94-3S617.77,213,617.77,213Z"/><path class="cls-18" d="M633.08,224.18c-1.55,1.14-4.79,2.45-6.61,2.29a13.1,13.1,0,0,1-4.45-1.9l.18.23c3.92,4.46,9.16,4.11,12.53.77a9.19,9.19,0,0,0,2.48-8.3A11.85,11.85,0,0,1,633.08,224.18Z"/><path class="cls-14" d="M619.8,213.05s-1.44-3.67,3.1-7.13,7.77-2.92,11.22-1.26,6,4.7,9.35,6.1c4.69,2,9.43,1.33,20.71-.49,0,0-15.51,7.29-18.35,7.84s-7.84-2.2-10.53-4S625.55,205.21,619.8,213.05Z"/><path class="cls-14" d="M622.6,210.16s-4.17,2.39-3.35,7c0,0-3.12-3.82-2-6.08S622.6,210.16,622.6,210.16Z"/><path class="cls-12" d="M715,357.18c6-4.46,10.14-13.52,9.79-20.39-.4-8.12-3.72-12.36-3.72-12.36s2.71-10.37-.54-18.89a20.86,20.86,0,0,0-9-10.17c-.7-1.65-1.38-11.17-3.2-14.59a15.64,15.64,0,0,0-6.71-6.41c-1.82-10.84-7.75-14.38-11.1-20.06a18.15,18.15,0,0,0-5.33-5.08s-3.25-8.84-4-10c-7.44-11.15-21-16.35-34.05-14.77,3.86,6.17,12.29,21,8.57,27.07,0,0,24.19,11,15.6,27.68,0,0,22.38,7,14.91,27.57,0,0,18.21,8.75,13.08,27.83a34.1,34.1,0,0,1,8.31,29.16A62.81,62.81,0,0,0,715,357.18Z"/><path class="cls-19" d="M649.12,345.7c-4.6,0-8.86-.24-12.72-.62-20.76-2.05-34.6-8.41-34.74-8.48a.91.91,0,0,1,.77-1.65c.14.06,13.75,6.31,34.22,8.32A126.87,126.87,0,0,0,714,326.06a.91.91,0,1,1,.93,1.57A128.38,128.38,0,0,1,649.12,345.7Z"/><path class="cls-19" d="M647.64,313.19a167,167,0,0,1-34-3.41.92.92,0,0,1-.68-1.1.91.91,0,0,1,1.1-.68c.5.12,51.06,11.7,86.84-8.73a.92.92,0,0,1,1.25.34.9.9,0,0,1-.34,1.24C684.77,310.59,664.46,313.19,647.64,313.19Z"/><path class="cls-19" d="M649.47,281.74a205.4,205.4,0,0,1-28.72-2.08.92.92,0,0,1,.28-1.81c.42.07,41.66,6.38,64.82-3.74a.92.92,0,0,1,.74,1.68C675.93,280.44,661.87,281.74,649.47,281.74Z"/><path class="cls-19" d="M630.9,255.72a78.56,78.56,0,0,1-10.14-.57.91.91,0,1,1,.26-1.8c.29,0,29.12,4,50.48-10.06a.92.92,0,1,1,1,1.53C658.54,254,641.51,255.72,630.9,255.72Z"/><path class="cls-13" d="M657.17,230.42c2.59-11.33,54.4-10.11,97.32,13.33s40.79,75.59,29.22,84.92-29.83-3.85-32-19.48S741.19,274,736.08,270.26C732.58,267.72,652.18,252.29,657.17,230.42Z"/><path class="cls-19" d="M631.06,228.61c3.73-1,7.69-3.75,8.15-7s4.07-3.3,4.43-.48,3.5,4,4.32,8.62c.68,3.92.1,6.67-3.2,10.33s-9,7-13.35,1.75C630.05,240.18,628,229.43,631.06,228.61Z"/><path class="cls-19" d="M633.5,376.3a.91.91,0,0,1-.86-.62c-1.95-5.61-.14-28.14,1.78-52,1.67-20.82,3.4-42.35,2.07-48.55-2.82-13.14-.5-32-.4-32.82a.91.91,0,0,1,1.81.23c0,.19-2.38,19.37.37,32.21,1.39,6.46-.27,27.16-2,49.08-1.82,22.61-3.7,46-1.88,51.25a.91.91,0,0,1-.56,1.16A1,1,0,0,1,633.5,376.3Z"/><path class="cls-12" d="M783.71,328.67c11.57-9.33,13.7-61.48-29.22-84.92-35.75-19.53-77.68-23.63-92.17-17.9a72.6,72.6,0,0,0,35.3,12.52c23.54,1.63,39.17.23,47.89,9.55s24.15,30.23,22.93,40.57c-.84,7.17-.18,29.23.31,42.11C773.86,332.51,779.28,332.25,783.71,328.67Z"/><path class="cls-16" d="M766.69,323.22a4.83,4.83,0,0,0-4,1.68c-2.06,2.38-6.63,7.77-7.1,9.39-.61,2.11,0,5.59,4.93,7.43a22.45,22.45,0,0,0,3.44,1c1.71.33,3.24-.5,3.45-1.89.28-1.85,2.16-3.78,3.73-6.15C775.21,328.57,771.11,323.57,766.69,323.22Z"/></g></g></svg>