<?xml version="1.0" standalone="no"?>
<!DOCTYPE svg PUBLIC "-//W3C//DTD SVG 20010904//EN"
 "http://www.w3.org/TR/2001/REC-SVG-20010904/DTD/svg10.dtd">
<svg version="1.0" xmlns="http://www.w3.org/2000/svg"
 width="200.000000pt" height="200.000000pt" viewBox="0 0 942.000000 936.000000"
 preserveAspectRatio="xMidYMid meet">

<g transform="translate(0.000000,936.000000) scale(0.100000,-0.100000)"
fill="#000000" stroke="none">
<path d="M4790 9345 c-6 -8 -27 -17 -46 -21 -19 -3 -37 -10 -40 -15 -3 -5 -21
-16 -39 -24 -19 -7 -45 -23 -57 -35 -24 -23 -67 -45 -81 -41 -49 11 -118 9
-131 -4 -19 -20 -46 -19 -46 1 0 10 6 14 15 11 8 -4 17 -2 20 3 4 6 -20 10
-59 10 -43 0 -66 -4 -66 -11 0 -8 12 -10 35 -6 36 6 57 -6 29 -17 -26 -10 -48
-7 -88 13 l-37 20 -112 -29 c-61 -16 -116 -35 -122 -43 -5 -8 -20 -17 -33 -21
-12 -4 -22 -12 -22 -17 0 -5 -6 -9 -13 -9 -19 0 -77 -30 -77 -39 0 -4 -16 -13
-35 -20 -19 -7 -35 -18 -35 -26 0 -7 -8 -16 -18 -19 -19 -6 -55 -40 -132 -122
-76 -81 -250 -300 -250 -315 0 -13 -52 -92 -67 -102 -7 -4 -13 -13 -13 -19 0
-7 -9 -21 -19 -32 -11 -12 -33 -46 -49 -76 -15 -30 -39 -73 -53 -95 -40 -66
-119 -237 -119 -259 0 -7 -9 -25 -21 -40 -42 -54 -132 -241 -139 -291 -7 -46
-16 -83 -56 -221 -8 -29 -25 -67 -38 -87 -13 -19 -26 -54 -29 -78 -5 -49 -33
-163 -48 -194 -5 -11 -13 -51 -19 -90 -15 -117 -29 -188 -38 -194 -26 -18 -62
-195 -44 -213 9 -9 12 -7 12 11 0 28 30 134 36 128 9 -9 -40 -252 -53 -265 -8
-9 -10 -19 -5 -26 5 -6 4 -35 -3 -66 -10 -45 -13 -50 -17 -30 -4 14 -4 -1 -1
-32 4 -49 3 -58 -11 -58 -12 0 -16 -10 -16 -37 0 -41 -24 -187 -35 -215 -13
-33 -27 -19 -21 20 16 89 16 99 1 57 -7 -22 -14 -77 -14 -122 -1 -48 -5 -83
-11 -83 -5 0 -10 -8 -10 -18 0 -10 -4 -22 -8 -27 -7 -9 -27 -111 -38 -195 -6
-45 -32 -165 -43 -191 -7 -19 -6 -30 2 -38 9 -9 9 -14 -1 -20 -7 -4 -16 -33
-19 -64 -3 -32 -10 -57 -14 -57 -5 0 -7 -24 -5 -52 3 -44 -1 -62 -25 -107 -32
-59 -40 -102 -14 -67 13 17 15 17 15 4 0 -9 -4 -20 -10 -23 -6 -3 -10 -15 -10
-25 0 -10 -8 -26 -17 -36 -16 -16 -20 -27 -28 -89 -2 -16 -8 -44 -13 -60 -5
-17 -7 -44 -5 -61 3 -18 0 -35 -6 -38 -7 -5 -11 3 -12 21 -1 27 -2 26 -11 -7
-5 -19 -10 -44 -12 -55 -2 -11 -1 -12 1 -2 5 18 23 24 23 7 0 -5 -8 -26 -17
-45 -15 -30 -18 -33 -24 -18 -8 18 -13 -36 -9 -85 1 -13 -3 -28 -8 -35 -5 -7
-12 -30 -16 -52 -4 -22 -18 -76 -31 -120 -46 -152 -73 -250 -80 -290 -6 -40
-15 -72 -42 -150 -11 -33 -17 -66 -22 -117 -1 -4 -7 -13 -14 -20 -24 -24 -64
-308 -45 -316 11 -5 10 -100 -1 -106 -5 -4 -7 2 -4 12 2 9 -3 31 -12 47 l-16
30 5 -50 c3 -27 6 -60 6 -72 0 -13 11 -69 25 -125 35 -146 32 -201 -18 -305
-6 -13 -7 -26 -3 -30 4 -4 9 2 12 14 6 22 32 39 43 27 3 -4 0 -9 -6 -11 -7 -3
-13 -12 -13 -20 0 -10 6 -13 16 -9 14 5 16 1 10 -26 -8 -39 -14 -47 -26 -28
-7 11 -10 6 -11 -20 0 -19 -3 -29 -6 -22 -2 6 -9 10 -14 6 -5 -3 -9 12 -9 33
-1 70 -23 7 -24 -68 -1 -67 -1 -67 -56 -125 -66 -71 -81 -94 -105 -160 -10
-28 -38 -73 -62 -100 -86 -95 -109 -179 -78 -291 9 -32 18 -77 19 -99 2 -28
11 -50 29 -70 29 -31 28 -68 -2 -91 -14 -11 -14 -14 -1 -22 12 -8 12 -13 2
-23 -15 -15 -16 -28 -2 -28 13 0 44 32 55 56 8 18 9 17 13 -4 2 -13 -4 -32
-12 -41 -9 -10 -16 -31 -16 -47 l-1 -29 -13 25 -14 24 -4 -24 c-4 -31 -25 -37
-31 -8 l-4 23 -8 -22 c-4 -13 -13 -23 -20 -23 -7 0 -18 -7 -25 -15 -7 -8 -38
-22 -69 -30 -174 -47 -265 -87 -277 -120 -3 -8 -14 -17 -23 -20 -45 -14 -101
-89 -167 -223 -36 -72 -54 -95 -54 -70 0 21 -40 380 -65 593 -8 66 -19 167
-25 225 -7 58 -17 111 -23 119 -7 8 -12 17 -12 20 0 3 -11 5 -24 3 -15 -2 -34
6 -51 23 -34 33 -76 32 -73 -2 2 -16 -4 -23 -20 -25 -33 -5 -32 -40 19 -483 8
-71 30 -289 49 -484 19 -195 39 -359 44 -364 5 -5 21 2 40 19 17 16 38 35 46
42 8 6 19 30 25 52 8 28 16 40 29 40 16 0 19 -12 25 -87 4 -49 7 -112 8 -141
1 -28 6 -52 10 -52 32 0 -26 -60 -90 -92 -24 -12 -61 -37 -82 -55 -21 -18 -43
-33 -48 -33 -11 0 -120 -118 -136 -147 -5 -9 -19 -26 -31 -37 -34 -34 -95
-112 -95 -123 0 -6 -8 -17 -17 -24 -18 -15 -73 -98 -73 -111 0 -4 14 -8 30 -8
19 0 30 5 30 14 0 16 39 66 40 51 0 -5 -7 -22 -14 -37 l-15 -28 194 0 c106 0
195 3 197 8 4 10 90 43 96 37 3 -3 -3 -14 -12 -24 -17 -19 -17 -19 16 -17 18
2 52 4 75 5 23 0 49 8 58 17 18 18 45 12 45 -11 0 -11 11 -15 41 -15 24 0 38
4 34 10 -3 6 1 10 9 10 9 0 16 -5 16 -10 0 -7 241 -9 718 -8 610 3 717 5 714
17 -2 8 3 18 10 22 7 4 13 20 14 36 1 19 6 27 16 25 20 -3 29 31 17 70 -4 17
-5 36 -1 43 10 17 72 68 72 60 0 -4 7 -2 15 5 11 9 12 16 5 25 -14 17 -2 45
19 45 10 0 21 3 25 7 4 5 11 8 14 9 13 1 97 26 137 41 22 8 49 17 59 19 11 2
22 8 25 13 3 5 22 12 41 16 19 3 46 15 60 25 25 19 25 19 -30 3 -30 -8 -73
-17 -95 -18 -22 -2 -31 -1 -20 1 12 3 36 18 55 34 19 17 49 37 66 45 17 8 37
22 45 31 7 9 24 20 36 25 13 5 28 19 33 31 5 13 9 19 9 15 1 -4 18 4 39 20 20
15 39 28 41 30 2 1 -2 9 -9 18 -11 13 -10 14 4 9 11 -4 26 4 44 23 25 26 30
27 43 13 10 -10 15 -35 14 -72 0 -43 4 -59 18 -67 13 -9 17 -8 17 3 0 8 21 36
48 64 93 99 112 122 112 138 0 13 3 14 14 5 11 -9 15 -2 21 44 5 42 15 66 44
103 51 64 67 76 77 61 5 -9 10 -7 15 7 11 28 11 74 -1 74 -5 0 -10 -6 -10 -14
0 -22 -38 -7 -44 17 -13 57 -18 147 -7 147 6 0 11 8 11 18 0 21 22 72 32 72 3
0 9 13 13 30 4 16 10 30 14 30 4 0 33 25 65 56 31 31 62 57 69 58 17 2 108
102 100 109 -3 4 -1 7 5 7 7 0 12 8 12 18 0 10 4 22 10 28 11 11 2 54 -11 54
-5 0 -9 -6 -9 -12 0 -17 -64 61 -67 81 -1 9 -5 36 -8 59 -5 34 -3 48 11 63 13
15 16 30 11 76 -3 33 -1 65 5 77 6 11 10 62 8 120 -1 56 -3 133 -4 171 -1 39
-6 90 -10 115 l-9 45 22 -19 c11 -11 21 -25 21 -33 0 -7 5 -13 10 -13 6 0 10
-14 10 -32 0 -39 18 -96 60 -193 5 -11 12 -31 15 -45 9 -36 36 -92 41 -87 2 2
-5 33 -17 68 -11 35 -24 78 -29 94 -4 17 -22 75 -40 130 -36 114 -62 227 -61
267 1 24 -12 68 -39 133 -18 43 -31 126 -25 155 5 23 3 30 -8 30 -15 0 -19 15
-35 165 -5 39 -16 87 -25 109 -9 21 -17 46 -17 55 0 19 -34 75 -136 223 -170
247 -241 387 -294 575 -31 114 -49 233 -75 503 -17 184 -34 276 -51 291 -8 7
-23 3 -46 -11 -18 -11 -48 -20 -65 -20 -28 0 -33 -4 -33 -22 0 -88 -47 -135
-123 -123 -60 11 -87 43 -87 105 0 44 5 56 29 81 16 16 39 29 50 29 25 0 27
17 5 41 -8 9 -26 70 -39 135 -20 101 -21 122 -10 144 17 33 50 70 62 70 5 0
23 15 41 33 29 30 31 37 31 104 0 54 -5 77 -18 92 -21 24 -36 28 -28 7 6 -16
-12 -26 -48 -26 -28 0 -50 32 -58 86 -6 37 -4 43 23 64 16 12 27 26 24 31 -2
5 5 18 16 29 19 19 20 25 10 50 -8 20 -9 34 -1 47 10 17 10 16 11 -4 0 -27 6
-29 28 -6 16 15 17 14 26 -16 6 -21 14 -30 23 -27 11 4 13 0 8 -14 -4 -14 -2
-20 7 -18 14 3 24 -62 13 -89 -5 -14 -7 -14 -23 0 -21 18 -92 49 -92 39 0 -4
9 -13 20 -20 11 -7 20 -19 20 -26 0 -8 13 -17 30 -21 27 -6 30 -11 30 -43 0
-25 3 -32 9 -23 6 10 13 10 29 2 15 -8 22 -7 30 2 5 6 12 78 15 159 4 109 10
155 23 179 10 21 18 66 20 128 3 53 11 124 19 158 8 33 17 84 19 113 4 39 16
67 51 118 25 38 45 79 45 92 0 28 17 84 36 122 8 14 14 32 14 40 0 7 11 40 25
73 13 33 25 76 25 95 0 20 9 60 19 90 21 59 20 70 -4 50 -23 -19 -28 -7 -11
26 48 96 114 244 109 244 -4 0 2 7 13 16 16 13 16 15 2 10 -13 -4 -18 0 -18
14 0 11 4 20 8 20 5 0 14 11 20 25 19 41 85 125 99 125 7 0 13 4 13 9 0 8 43
60 89 106 27 28 82 125 71 125 -6 0 -10 -4 -10 -8 0 -5 -11 -15 -25 -22 -14
-7 -25 -19 -25 -25 0 -7 -9 -20 -20 -30 -20 -18 -20 -17 -20 8 0 14 5 29 10
32 6 3 10 19 10 36 0 19 5 29 15 29 15 0 19 10 16 43 -1 9 3 17 9 17 16 0 36
50 23 58 -19 12 -3 59 34 102 25 28 32 45 25 52 -13 13 49 78 75 78 16 1 16 2
-4 19 -16 14 -19 21 -10 30 17 17 25 14 30 -11 2 -13 5 -5 6 18 1 27 8 47 21
59 12 11 19 28 18 44 -3 22 1 26 20 24 12 -2 22 0 22 3 0 10 -23 49 -33 55 -6
4 6 23 27 45 20 20 36 33 36 29 0 -5 11 2 25 15 14 13 23 30 21 37 -7 17 6 24
54 28 21 2 48 10 59 17 25 15 36 76 28 164 -2 35 -1 64 4 64 5 0 9 -10 9 -22
0 -14 3 -18 8 -11 4 6 7 -19 7 -55 0 -49 5 -74 19 -95 14 -21 22 -25 30 -16 8
8 8 13 -1 16 -15 6 -17 33 -3 33 6 0 10 -6 10 -14 0 -23 24 -37 39 -23 11 9
14 9 18 0 8 -21 23 -15 20 8 -1 12 4 24 11 26 8 3 12 -6 13 -24 l1 -28 10 28
c11 29 28 28 28 -3 0 -11 9 -24 19 -30 27 -14 28 -13 35 13 7 28 54 53 70 37
17 -17 46 -12 46 9 0 14 9 20 35 23 19 2 40 -1 45 -6 7 -7 10 -6 10 1 0 6 -7
13 -15 17 -8 3 -15 13 -15 22 0 9 -8 28 -18 42 -18 26 -34 62 -28 62 1 0 18
-22 37 -50 19 -27 41 -50 49 -50 9 0 21 -5 26 -10 14 -14 44 -2 44 16 0 21 27
17 50 -8 20 -22 22 -22 34 -5 16 21 23 21 42 2 17 -16 49 -12 98 12 16 8 40
13 54 10 17 -3 31 1 39 11 11 16 12 16 13 0 0 -25 30 -23 30 2 0 11 7 20 16
20 11 0 13 6 9 19 -3 11 -1 22 5 26 5 3 11 1 11 -4 5 -44 18 -55 40 -35 17 15
19 15 25 1 5 -13 15 -15 42 -11 84 12 134 12 139 -2 6 -17 27 -18 53 -2 15 10
27 10 55 0 19 -8 40 -10 46 -7 15 10 89 16 87 7 0 -4 2 -15 5 -24 4 -10 9 -25
12 -33 2 -8 12 -15 21 -15 9 0 29 -11 46 -25 31 -26 48 -32 48 -15 0 19 42 10
47 -10 3 -13 17 -22 39 -26 41 -8 50 -19 32 -41 -14 -17 -14 -17 61 3 19 6 22
4 19 -12 -2 -14 -11 -18 -28 -16 -22 2 -23 1 -8 -8 10 -6 24 -10 30 -9 35 4
66 -3 84 -19 14 -14 23 -16 35 -9 20 12 83 -14 93 -39 3 -9 15 -14 28 -12 15
2 23 -2 23 -12 0 -10 20 -20 60 -30 33 -8 62 -19 64 -25 2 -5 19 -23 38 -39
18 -16 33 -36 33 -43 0 -7 7 -13 15 -13 8 0 22 -17 30 -37 15 -37 57 -73 101
-87 22 -7 58 -81 48 -97 -3 -5 7 -14 23 -20 34 -13 44 -27 37 -56 -5 -18 0
-25 21 -33 14 -5 24 -14 20 -19 -3 -5 9 -19 26 -31 19 -14 28 -28 25 -37 -4
-8 0 -27 8 -41 7 -15 18 -38 23 -52 25 -61 40 -86 71 -113 17 -16 32 -36 32
-46 -1 -14 -2 -14 -11 2 -16 27 -32 21 -24 -10 4 -16 9 -45 11 -65 3 -21 11
-49 19 -64 7 -15 11 -32 8 -39 -2 -8 0 -22 6 -32 5 -11 12 -44 15 -75 2 -31
10 -67 17 -80 7 -12 12 -56 12 -95 0 -40 3 -73 7 -73 17 0 30 -289 20 -455
-15 -271 -21 -333 -36 -352 -12 -17 -14 -17 -31 7 -33 48 -97 112 -125 126
-33 17 -38 2 -6 -20 12 -9 18 -16 13 -16 -5 0 0 -6 10 -14 16 -11 17 -17 7
-29 -11 -13 -9 -18 9 -30 25 -18 35 -35 85 -137 l37 -75 -12 -180 c-6 -99 -11
-305 -10 -457 0 -152 -2 -282 -6 -288 -4 -6 -17 -75 -30 -154 -28 -171 -49
-245 -159 -571 -108 -323 -204 -537 -305 -683 -10 -15 -38 -56 -61 -92 -24
-36 -121 -169 -217 -296 -95 -128 -173 -241 -173 -252 0 -11 -5 -22 -12 -24
-6 -2 -12 -28 -14 -59 -8 -158 -24 -274 -40 -286 -12 -9 -13 -15 -3 -31 10
-16 9 -24 -4 -43 -10 -13 -17 -31 -17 -40 0 -9 -7 -30 -16 -47 -8 -18 -17 -43
-18 -57 -1 -14 -6 -28 -9 -32 -4 -3 -7 -14 -7 -23 0 -9 -11 -26 -25 -38 -14
-12 -24 -30 -24 -39 1 -17 2 -17 6 0 2 9 9 17 14 17 15 0 10 -22 -8 -43 -33
-36 -14 -187 23 -187 8 0 14 -11 14 -26 0 -14 6 -32 14 -40 13 -12 17 -12 30
1 22 22 32 18 11 -5 -11 -12 -19 -37 -19 -63 -1 -28 -5 -41 -14 -39 -9 1 -11
-8 -6 -39 7 -40 -10 -94 -27 -83 -4 2 -14 -4 -21 -13 -7 -10 -22 -20 -33 -21
-29 -5 -34 -19 -21 -55 17 -48 25 -57 50 -57 32 0 57 -31 63 -78 4 -27 10 -39
18 -36 7 3 15 -7 18 -25 4 -17 12 -31 19 -31 11 0 68 -120 68 -142 0 -3 15
-33 34 -66 19 -33 37 -74 41 -90 3 -17 23 -47 43 -68 46 -48 111 -104 121
-104 5 0 16 -9 26 -20 10 -11 22 -17 27 -14 13 8 49 -26 41 -39 -4 -6 0 -8 11
-4 20 8 65 -37 66 -65 0 -12 8 -18 25 -18 14 0 35 -11 47 -26 16 -18 29 -23
45 -19 17 4 23 1 23 -10 0 -9 7 -18 15 -21 8 -4 15 -16 15 -29 0 -12 9 -30 20
-40 11 -10 20 -13 20 -7 0 6 -5 12 -11 14 -13 4 -19 114 -8 145 5 14 3 25 -7
33 -18 15 -18 30 -1 30 19 0 40 -43 39 -79 0 -23 5 -30 24 -35 15 -4 24 -14
24 -26 0 -10 5 -22 10 -25 6 -3 10 0 10 8 0 20 57 19 88 -1 33 -22 49 -23 63
-6 13 16 34 19 24 5 -6 -10 29 -34 37 -25 3 2 11 -2 18 -11 7 -8 23 -15 36
-15 12 0 26 -5 30 -11 4 -8 9 -7 15 2 7 12 9 12 9 1 0 -10 8 -12 30 -7 19 4
30 3 30 -4 0 -6 8 -11 17 -11 9 0 25 -7 35 -17 17 -15 18 -15 18 5 0 12 5 22
10 22 6 0 10 -8 10 -19 0 -20 47 -57 68 -53 7 2 15 -5 19 -15 4 -10 13 -22 21
-27 10 -6 12 -18 7 -42 -4 -26 -1 -42 15 -64 12 -17 19 -34 15 -40 -3 -5 -1
-27 4 -47 6 -21 12 -78 14 -126 3 -48 7 -91 11 -94 3 -3 6 -16 6 -27 0 -12 7
-34 15 -50 8 -16 16 -50 17 -77 l2 -49 579 0 580 0 -7 63 c-5 47 -4 58 5 47 9
-12 10 -11 3 5 -4 11 -14 47 -22 80 -8 33 -19 69 -23 80 -17 42 -27 95 -18 95
5 0 9 7 9 16 0 10 -6 13 -18 10 -13 -4 -23 4 -37 32 -10 20 -27 49 -37 64 -10
14 -18 33 -18 42 0 13 -4 15 -19 6 -16 -8 -20 -7 -20 7 -1 25 -7 55 -15 75 -4
9 -4 22 0 29 4 6 10 37 13 68 4 36 11 55 19 53 17 -3 15 15 -3 22 -17 6 -20
42 -5 51 6 4 8 10 5 15 -3 4 -2 16 1 25 6 14 9 14 29 -5 15 -14 25 -18 30 -11
11 18 19 12 38 -28 13 -26 30 -42 53 -51 32 -13 74 -57 100 -105 6 -11 16 -19
22 -18 6 1 27 -21 47 -49 21 -28 50 -62 65 -74 19 -16 29 -36 33 -65 3 -24 18
-59 36 -83 47 -61 68 -120 71 -192 0 -6 14 -31 30 -56 20 -29 33 -65 37 -97
l6 -51 163 0 164 0 0 847 c0 804 -1 846 -17 823 -21 -30 -54 -59 -68 -59 -5 0
-18 6 -28 13 -15 11 -16 18 -6 38 10 23 77 61 106 61 8 0 13 13 13 34 0 22 -5
33 -14 33 -8 0 -16 5 -18 11 -2 7 -11 8 -28 1 -38 -15 -113 -31 -176 -38 -51
-6 -57 -5 -51 10 5 13 2 15 -21 11 -21 -4 -18 -1 13 14 22 11 50 20 63 20 12
1 40 10 62 21 22 11 46 20 54 20 8 0 19 6 23 14 4 8 19 16 33 18 14 2 24 9 22
16 -3 15 10 16 26 0 9 -9 12 3 12 55 0 53 -3 67 -15 67 -8 0 -15 -4 -15 -10 0
-5 -16 -12 -35 -16 -19 -3 -38 -10 -41 -16 -3 -5 -14 -6 -23 -3 -10 3 -29 -3
-42 -13 -13 -11 -41 -22 -63 -26 -34 -7 -66 -18 -133 -49 -13 -6 -26 -8 -29
-4 -3 3 47 31 111 63 74 36 120 64 123 76 2 10 9 18 14 18 5 0 6 -5 3 -10 -17
-27 62 0 109 38 l29 23 -29 -7 c-16 -4 -30 -10 -32 -14 -1 -4 -13 -5 -26 -3
-13 3 -27 0 -30 -6 -4 -6 -16 -11 -27 -11 -22 0 -66 -19 -124 -54 -27 -16 -42
-20 -47 -13 -5 8 -21 6 -55 -6 -26 -9 -54 -17 -61 -17 -21 0 67 98 107 118 20
11 37 24 37 30 1 7 2 17 3 22 0 6 17 10 36 8 19 -1 40 3 47 10 7 7 20 12 29
12 10 0 30 6 46 14 15 8 51 21 78 28 38 10 51 19 53 35 6 42 -120 32 -168 -14
-3 -2 9 -1 25 2 29 7 29 7 10 -8 -11 -9 -26 -17 -32 -17 -7 0 -13 -4 -13 -9 0
-12 -49 -20 -56 -9 -3 4 -18 0 -33 -11 -26 -19 -28 -19 -26 -2 1 24 29 51 51
51 13 0 14 3 4 15 -14 17 0 21 17 4 8 -8 13 -8 17 0 4 6 4 11 0 11 -4 0 1 9
11 20 21 24 8 26 -31 5 -16 -8 -35 -15 -41 -15 -16 0 -17 27 -1 32 7 3 9 12 4
23 -6 17 -8 17 -22 -3 -8 -12 -19 -22 -25 -22 -15 0 -11 22 9 43 9 11 11 17 5
13 -9 -5 -13 -1 -13 12 0 11 7 23 16 26 10 4 14 12 10 23 -4 10 5 30 24 54 30
38 38 55 21 44 -5 -3 -13 0 -16 5 -5 8 -13 6 -25 -5 -26 -23 -44 -10 -59 43
-8 26 -20 59 -27 74 -15 29 -2 50 19 29 6 -6 29 -10 52 -10 l40 2 -37 10 c-21
6 -38 16 -38 22 0 6 -16 17 -35 25 -19 8 -35 17 -35 21 0 4 -16 10 -35 13 -19
4 -37 11 -40 16 -4 6 6 7 25 4 41 -9 39 12 -2 22 -18 4 -43 7 -55 5 -17 -2
-22 4 -25 25 -2 21 -9 28 -32 30 -16 2 -33 10 -38 18 -4 8 -16 12 -27 9 -13
-3 -20 2 -24 17 -3 14 -10 19 -17 15 -7 -4 -16 -1 -21 6 -13 21 -11 29 8 22
11 -4 14 -3 9 5 -4 7 -14 12 -23 12 -9 0 -14 2 -11 5 3 3 -8 20 -23 36 -31 33
-37 58 -16 60 6 1 -1 4 -18 8 -24 5 -31 12 -33 36 -2 16 -10 34 -19 40 -8 6
-13 15 -11 20 5 17 -26 75 -38 71 -15 -6 -37 31 -23 40 6 3 9 17 6 30 -2 14 0
27 5 30 5 3 7 12 4 19 -2 7 4 15 16 18 11 3 17 10 14 15 -3 6 8 24 25 41 24
24 30 37 25 56 -3 13 -2 27 4 30 5 3 10 19 10 35 0 16 5 32 11 36 6 3 8 15 5
26 -2 12 2 27 10 35 22 22 9 41 -86 123 -19 17 -40 28 -47 26 -7 -3 -13 1 -13
9 0 8 -8 15 -17 15 -22 0 -96 147 -100 199 -8 94 -9 96 -33 96 -13 0 -26 7
-28 15 -3 8 -11 20 -17 25 -14 12 -1 75 16 75 6 0 7 6 2 13 -4 6 -9 33 -11 60
-3 46 -2 49 52 102 37 35 56 62 56 78 0 12 4 27 9 33 12 13 22 89 13 98 -11
12 -30 106 -22 111 4 3 11 16 14 29 3 14 36 69 71 123 69 103 79 124 73 167
l-3 26 -38 -35 c-41 -38 -47 -41 -47 -24 0 7 -7 17 -16 23 -8 6 -16 19 -18 29
-1 10 -19 40 -39 67 -21 28 -42 60 -48 73 -6 13 -20 27 -31 32 -12 6 -32 30
-44 55 -28 53 -113 236 -123 265 -27 72 -34 94 -36 125 -4 49 -9 66 -24 84 -8
10 -10 23 -5 33 7 16 8 16 11 -3 2 -12 13 -30 24 -40 23 -20 24 -13 5 29 -16
34 -36 104 -36 125 0 25 21 11 27 -18 3 -17 10 -33 14 -36 11 -7 12 39 1 52
-4 5 -16 34 -26 64 -11 30 -23 60 -28 67 -6 7 -8 18 -5 25 2 7 -4 23 -14 36
-10 13 -15 30 -12 38 7 20 -27 145 -46 168 -9 11 -10 16 -3 12 16 -10 16 10
-1 26 -11 9 -12 22 -4 53 14 59 10 99 -13 142 -11 21 -20 48 -20 61 0 15 -4
21 -11 16 -8 -5 -10 1 -6 18 6 24 -16 121 -33 143 -11 15 -22 65 -26 116 -1
25 -12 62 -23 82 -12 21 -21 44 -21 51 0 8 -5 16 -12 18 -6 2 -15 26 -19 54
-4 27 -11 63 -14 79 -5 20 -3 26 3 16 18 -25 20 4 5 59 -8 30 -19 79 -24 109
-12 67 -14 70 -38 64 -18 -4 -20 0 -18 38 1 29 6 43 15 42 14 -3 15 6 2 27 -8
13 -10 12 -10 -3 0 -10 -5 -15 -10 -12 -6 4 -10 14 -9 23 0 10 -2 27 -6 40 -6
17 -12 21 -28 16 -17 -5 -19 -3 -14 15 3 12 0 21 -6 21 -7 0 -5 5 3 10 13 8
13 10 -1 10 -9 0 -22 14 -29 33 -7 17 -17 43 -23 56 -10 19 -8 25 8 37 16 12
16 14 3 14 -21 0 -31 30 -22 64 4 19 2 26 -8 26 -7 0 -23 21 -35 48 -25 52
-31 82 -21 97 4 6 3 17 -3 25 -7 13 -9 13 -9 0 -1 -11 -4 -10 -15 4 -17 22
-20 50 -5 41 6 -3 10 -3 10 2 0 14 -14 29 -32 36 -10 3 -18 15 -18 25 0 10
-11 42 -25 70 -14 29 -25 54 -25 57 0 2 -14 27 -31 55 -17 28 -28 57 -25 65 3
8 0 18 -7 22 -7 5 -23 28 -36 53 -13 25 -42 64 -63 87 -21 24 -38 47 -38 52 0
22 -373 381 -397 381 -5 0 -25 11 -44 25 -19 14 -58 38 -87 53 -29 14 -65 38
-81 52 -16 15 -44 33 -62 40 -19 8 -58 29 -88 48 -30 19 -88 50 -130 69 -42
19 -96 45 -121 56 -45 22 -51 22 -741 25 -608 2 -698 0 -709 -13z m577 -102
c3 -7 -4 -9 -16 -6 -12 3 -18 9 -15 15 7 11 26 6 31 -9z m-933 -69 c5 -14 4
-15 -9 -4 -17 14 -19 20 -6 20 5 0 12 -7 15 -16z m986 -44 c0 -5 -5 -10 -11
-10 -5 0 -7 5 -4 10 3 6 8 10 11 10 2 0 4 -4 4 -10z m-770 -225 c0 -8 -4 -15
-10 -15 -5 0 -10 7 -10 15 0 8 5 15 10 15 6 0 10 -7 10 -15z m-30 -67 c0 -23
-3 -29 -11 -21 -6 6 -8 20 -4 32 9 30 15 26 15 -11z m-244 -75 c-10 -10 -19 5
-10 18 6 11 8 11 12 0 2 -7 1 -15 -2 -18z m1154 -17 c0 -3 -4 -8 -10 -11 -5
-3 -10 -1 -10 4 0 6 5 11 10 11 6 0 10 -2 10 -4z m-975 -96 c1 -22 -2 -40 -6
-40 -5 0 -9 21 -9 47 0 56 12 51 15 -7z m-368 -166 c-3 -3 -12 -4 -19 -1 -8 3
-5 6 6 6 11 1 17 -2 13 -5z m-117 -150 c0 -3 -7 -12 -15 -20 -12 -12 -15 -12
-15 -2 -1 8 -8 4 -19 -9 -19 -23 -41 -31 -41 -15 0 13 24 39 39 44 22 6 51 7
51 2z m-110 -63 c0 -5 -7 -12 -16 -15 -14 -5 -15 -4 -4 9 14 17 20 19 20 6z
m3780 -753 c0 -25 -3 -29 -10 -18 -13 20 -13 50 0 50 6 0 10 -15 10 -32z m60
-188 c0 -5 -2 -10 -4 -10 -3 0 -8 5 -11 10 -3 6 -1 10 4 10 6 0 11 -4 11 -10z
m19 -100 c0 -9 -6 -4 -14 10 -19 33 -19 49 0 24 8 -10 14 -26 14 -34z m211
-796 c0 -8 -4 -12 -10 -9 -5 3 -10 10 -10 16 0 5 5 9 10 9 6 0 10 -7 10 -16z
m-1020 -174 c0 -5 -4 -10 -10 -10 -5 0 -10 5 -10 10 0 6 5 10 10 10 6 0 10 -4
10 -10z m1057 -249 c-1 -22 -5 -36 -10 -32 -7 7 1 71 9 71 2 0 3 -18 1 -39z
m37 -77 c9 -22 -3 -32 -14 -14 -12 19 -12 30 -1 30 5 0 12 -7 15 -16z m31
-122 c-8 -8 -13 0 -20 33 l-7 30 16 -29 c9 -16 14 -31 11 -34z m-101 -56 c-6
-16 17 -100 40 -145 9 -17 14 -31 11 -31 -4 0 8 -25 26 -57 18 -31 33 -72 34
-90 2 -21 16 -54 36 -81 18 -26 33 -55 34 -64 2 -22 47 -88 56 -82 4 2 11 -6
14 -18 4 -13 20 -45 36 -71 31 -50 61 -128 54 -136 -7 -6 -85 77 -85 91 0 6 9
3 20 -7 18 -17 20 -17 14 -2 -6 16 -17 21 -38 18 -4 -1 -15 4 -24 11 -13 10
-12 6 3 -17 10 -16 27 -46 37 -65 26 -52 42 -69 63 -67 20 2 71 -63 57 -72 -5
-3 -13 -19 -19 -36 -14 -44 -38 -43 -69 4 -16 25 -34 41 -46 41 -17 0 -19 5
-14 27 6 20 -1 38 -30 80 -20 30 -37 67 -38 83 -1 17 -4 30 -8 30 -3 0 -9 14
-13 31 -4 19 -15 33 -26 36 -18 5 -28 43 -11 43 13 0 38 -23 50 -45 l11 -20 1
20 c0 25 -10 40 -32 48 -11 4 -18 17 -18 31 0 13 -6 26 -13 29 -19 7 -107 191
-107 223 0 24 17 15 34 -18 l17 -33 -6 29 c-3 16 -12 43 -20 60 -13 30 -13 30
-15 6 -2 -21 -3 -20 -11 10 -10 38 -16 71 -23 136 -3 22 -10 53 -16 68 -14 39
-12 53 5 30 13 -17 14 -16 9 21 l-4 40 14 -38 c9 -21 13 -44 10 -51z m39 -418
c6 -22 5 -22 -8 -4 -17 22 -20 40 -6 32 5 -3 11 -16 14 -28z m-112 -228 c17
-4 28 -17 37 -45 12 -40 16 -49 46 -118 9 -21 16 -42 16 -48 0 -21 41 -68 54
-63 8 3 16 -4 19 -15 3 -12 1 -21 -5 -21 -6 0 -8 -9 -5 -19 6 -23 -18 -18 -27
5 -3 9 -11 12 -18 8 -7 -4 -10 -4 -6 0 4 5 -9 31 -29 59 -44 63 -88 151 -98
195 -4 18 -13 45 -21 60 -8 15 -14 38 -13 52 0 22 2 21 13 -10 8 -23 21 -36
37 -40z m-1 34 c0 -8 -4 -14 -10 -14 -5 0 -10 9 -10 21 0 11 5 17 10 14 6 -3
10 -13 10 -21z m430 -30 c12 -19 20 -37 17 -40 -7 -7 -47 46 -47 62 0 22 7 17
30 -22z m-210 -33 c0 -11 -3 -11 -15 -1 -8 7 -15 22 -15 33 0 20 0 20 15 1 8
-10 15 -25 15 -33z m310 -81 c18 -26 20 -33 9 -46 -11 -14 -15 -13 -31 8 -9
13 -18 29 -18 36 0 6 -4 12 -10 12 -5 0 -10 9 -10 20 0 17 3 19 19 10 11 -5
29 -24 41 -40z m-55 -41 c11 -17 -1 -21 -15 -4 -8 9 -8 15 -2 15 6 0 14 -5 17
-11z m-315 -84 c0 -5 -5 -3 -10 5 -5 8 -10 20 -10 25 0 6 5 3 10 -5 5 -8 10
-19 10 -25z m80 -131 c0 -8 -4 -12 -10 -9 -5 3 -10 10 -10 16 0 5 5 9 10 9 6
0 10 -7 10 -16z m67 -6 c-3 -8 -6 -5 -6 6 -1 11 2 17 5 13 3 -3 4 -12 1 -19z
m-97 2 c0 -5 -7 -10 -16 -10 -8 0 -12 5 -9 10 3 6 10 10 16 10 5 0 9 -4 9 -10z
m-16 -46 c9 -8 16 -21 16 -28 0 -8 10 -20 22 -28 12 -8 18 -19 14 -26 -9 -15
-36 -16 -36 -2 0 6 -11 28 -25 50 -14 22 -25 42 -25 45 0 10 19 5 34 -11z
m-1126 -134 c0 -20 -6 -33 -19 -40 -22 -12 -25 2 -9 44 13 35 27 33 28 -4z
m-4726 -32 c-7 -7 -12 -8 -12 -2 0 14 12 26 19 19 2 -3 -1 -11 -7 -17z m6059
-35 c-8 -15 -10 -15 -11 -2 0 17 10 32 18 25 2 -3 -1 -13 -7 -23z m-416 -344
c11 -17 -1 -21 -15 -4 -8 9 -8 15 -2 15 6 0 14 -5 17 -11z m123 -136 c-2 -9
-8 -18 -15 -20 -7 -3 -9 3 -6 16 6 25 26 28 21 4z m320 -68 c-3 -3 -9 2 -12
12 -6 14 -5 15 5 6 7 -7 10 -15 7 -18z m-38 -135 c30 -20 39 -30 26 -30 -10 0
-34 14 -53 30 -43 38 -31 38 27 0z m193 -57 c-7 -2 -19 -2 -25 0 -7 3 -2 5 12
5 14 0 19 -2 13 -5z m-6252 -56 c-18 -18 -23 -1 -9 29 13 28 13 28 16 5 2 -13
-1 -28 -7 -34z m6322 11 c23 -18 44 -34 46 -36 3 -1 -1 -8 -8 -15 -10 -9 -17
-7 -35 13 -12 14 -31 30 -41 36 -22 12 -32 34 -15 34 6 0 30 -15 53 -32z
m-108 -38 c3 -5 1 -10 -4 -10 -6 0 -11 5 -11 10 0 6 2 10 4 10 3 0 8 -4 11
-10z m-6255 -30 c0 -5 -5 -10 -11 -10 -5 0 -7 5 -4 10 3 6 8 10 11 10 2 0 4
-4 4 -10z m-314 -66 c-4 -14 -9 -24 -12 -21 -3 2 -2 17 2 31 3 15 9 25 11 22
3 -3 2 -17 -1 -32z m6459 18 c-3 -3 -11 0 -18 7 -9 10 -8 11 6 5 10 -3 15 -9
12 -12z m208 -9 c22 -13 2 -20 -33 -11 -48 12 -55 33 -7 23 17 -4 35 -9 40
-12z m-183 -45 c0 -8 -29 0 -47 15 -26 19 -12 28 17 10 17 -9 30 -21 30 -25z
m35 32 c8 -13 -15 -13 -35 0 -12 8 -11 10 7 10 12 0 25 -4 28 -10z m-6536
-103 c1 -5 -3 -5 -9 -2 -5 3 -10 16 -9 28 0 21 1 21 9 2 5 -11 9 -24 9 -28z
m6320 27 c8 -7 -12 -24 -28 -24 -21 0 -44 23 -34 33 5 6 52 -1 62 -9z m31 -15
c0 -6 -4 -7 -10 -4 -5 3 -10 11 -10 16 0 6 5 7 10 4 6 -3 10 -11 10 -16z
m-6079 -22 c-8 -8 -11 -7 -11 4 0 20 13 34 18 19 3 -7 -1 -17 -7 -23z m6135
-3 c18 -15 18 -15 -6 -10 -14 3 -29 6 -33 6 -5 0 -5 5 -2 10 9 14 18 13 41 -6z
m-146 -3 c0 -15 -16 -22 -34 -15 -25 9 -19 24 9 24 14 0 25 -4 25 -9z m95 -29
c-7 -7 -55 8 -55 17 0 5 13 4 30 -2 16 -6 27 -13 25 -15z m-167 -14 c8 -8 15
-8 27 2 8 7 18 10 22 6 18 -18 -40 -29 -63 -11 -10 8 -14 15 -8 15 5 0 15 -5
22 -12z m142 -3 c5 -3 10 -13 10 -20 0 -11 -6 -12 -26 -5 -32 13 -31 13 -38
-6 -5 -13 -1 -15 21 -10 27 6 27 6 9 -9 -11 -8 -24 -15 -29 -15 -4 0 -6 -4 -3
-9 4 -5 -4 -7 -16 -3 -12 3 -17 7 -10 10 18 6 14 20 -8 27 -11 4 -18 11 -14
16 3 5 15 7 26 3 17 -5 19 -3 13 15 -5 18 -3 20 24 16 17 -2 35 -6 41 -10z
m-160 -205 c0 -13 -12 -12 -32 4 -10 7 -15 16 -12 19 9 8 44 -11 44 -23z
m-429 3 c13 -16 12 -17 -3 -4 -17 13 -22 21 -14 21 2 0 10 -8 17 -17z m479
-33 c0 -5 -5 -10 -11 -10 -5 0 -7 5 -4 10 3 6 8 10 11 10 2 0 4 -4 4 -10z
m-456 -16 c10 -25 7 -34 -9 -28 -8 4 -15 15 -15 25 0 23 16 25 24 3z m226 -86
c0 -5 -9 -4 -20 2 -11 6 -18 15 -14 21 6 11 34 -7 34 -23z m-172 -100 c31 -85
35 -108 17 -108 -8 0 -15 6 -15 14 0 7 -7 31 -17 52 -14 33 -19 65 -14 89 3
14 11 0 29 -47z m772 -28 c0 -5 -2 -10 -4 -10 -3 0 -8 5 -11 10 -3 6 -1 10 4
10 6 0 11 -4 11 -10z m-20 -30 c0 -5 -4 -10 -10 -10 -5 0 -10 5 -10 10 0 6 5
10 10 10 6 0 10 -4 10 -10z m-667 -70 c-6 -6 -33 30 -33 44 0 6 9 0 20 -14 10
-14 16 -27 13 -30z m27 -30 c0 -5 -2 -10 -4 -10 -3 0 -8 5 -11 10 -3 6 -1 10
4 10 6 0 11 -4 11 -10z m91 -101 c7 -13 6 -19 -2 -19 -6 0 -13 9 -16 19 -3 11
-13 21 -24 24 -10 3 -19 10 -19 16 0 16 48 -17 61 -40z m-37 2 c4 -5 -1 -8 -9
-7 -21 3 -31 16 -12 16 9 0 18 -4 21 -9z m-3914 -142 c0 -11 -4 -17 -10 -14
-5 3 -10 13 -10 21 0 8 5 14 10 14 6 0 10 -9 10 -21z m4457 -25 c-3 -3 -12 -4
-19 -1 -8 3 -5 6 6 6 11 1 17 -2 13 -5z m283 -49 c0 -5 -9 -9 -20 -8 -11 0
-29 1 -40 2 -11 1 -20 5 -20 11 0 5 18 9 40 7 22 -1 40 -6 40 -12z m-73 -46
c-13 -20 -27 -25 -27 -9 0 6 4 10 10 10 5 0 7 7 4 15 -5 11 -2 13 9 9 13 -5
14 -9 4 -25z m63 17 c0 -11 -19 -15 -25 -6 -3 5 1 10 9 10 9 0 16 -2 16 -4z
m-6990 -15 c0 -6 -4 -13 -10 -16 -5 -3 -10 1 -10 9 0 9 5 16 10 16 6 0 10 -4
10 -9z m7134 -45 c-3 -9 -14 -16 -23 -16 -9 0 -22 -5 -28 -11 -7 -7 -12 -4
-16 10 -3 12 0 21 7 21 6 0 17 9 24 20 11 18 14 19 27 6 8 -8 12 -22 9 -30z
m-164 30 c0 -3 -4 -8 -10 -11 -5 -3 -10 -1 -10 4 0 6 5 11 10 11 6 0 10 -2 10
-4z m38 -16 c-14 -22 -24 -19 -15 5 4 8 11 15 17 15 6 0 6 -7 -2 -20z m47 -79
c6 8 11 7 18 -6 7 -12 5 -20 -4 -26 -19 -12 -22 -11 -44 5 -12 9 -16 19 -11
32 7 18 8 18 21 1 9 -13 15 -15 20 -6z m259 -39 c3 -5 3 -26 -1 -46 -4 -26 -9
-34 -16 -27 -14 14 -27 14 -27 -1 0 -12 -29 -48 -39 -48 -3 0 -7 14 -8 30 -2
21 2 30 13 30 8 0 20 12 27 28 16 38 39 53 51 34z m44 -25 c-1 -2 3 -11 11
-20 11 -15 11 -17 -2 -17 -9 0 -19 5 -22 10 -8 12 3 46 11 37 3 -3 4 -7 2 -10z
m-3072 -113 c-3 -8 -10 -14 -16 -14 -14 0 -12 47 3 53 14 5 21 -17 13 -39z
m3084 16 c0 -5 -4 -10 -10 -10 -5 0 -10 5 -10 10 0 6 5 10 10 10 6 0 10 -4 10
-10z m-7494 -308 c-9 -8 -26 10 -26 26 1 15 2 15 15 -2 8 -11 13 -21 11 -24z
m2344 -13 c0 -17 -4 -28 -10 -24 -5 3 -10 17 -10 31 0 13 5 24 10 24 6 0 10
-14 10 -31z m-2300 -89 c0 -5 -4 -10 -10 -10 -5 0 -10 5 -10 10 0 6 5 10 10
10 6 0 10 -4 10 -10z m-20 -30 c0 -5 -4 -10 -10 -10 -5 0 -10 5 -10 10 0 6 5
10 10 10 6 0 10 -4 10 -10z m54 -52 c-9 -26 -11 -33 -13 -48 0 -5 -5 -10 -11
-10 -16 0 -12 43 6 68 19 28 29 22 18 -10z m-214 -365 c-1 -5 -21 -23 -45 -41
-29 -21 -42 -37 -39 -47 4 -8 1 -15 -5 -15 -6 0 -11 5 -11 11 0 5 -18 -5 -40
-23 -22 -18 -40 -38 -40 -45 0 -6 -9 -15 -20 -18 -22 -7 -36 -45 -26 -71 3 -9
-2 -28 -13 -42 -10 -15 -26 -44 -34 -64 -9 -21 -20 -38 -25 -38 -5 0 -18 -38
-28 -85 -10 -47 -22 -85 -26 -85 -5 0 -8 7 -8 15 0 22 -15 18 -32 -7 -14 -21
-14 -21 -28 11 -8 21 -10 35 -3 39 14 10 24 42 17 54 -4 7 -14 1 -25 -13 -16
-21 -19 -21 -19 -6 0 10 -7 26 -16 35 -12 12 -15 29 -12 71 3 30 10 57 16 59
7 2 12 10 12 18 0 9 5 12 11 8 8 -4 9 0 4 15 -4 12 -2 21 4 21 6 0 11 -6 12
-12 0 -7 5 -2 10 11 5 14 7 31 4 39 -4 12 -3 13 10 2 12 -10 15 -10 15 1 0 10
3 10 12 1 9 -9 9 -15 0 -24 -14 -14 -16 -48 -3 -48 5 0 12 15 15 33 11 57 141
178 216 202 3 1 16 6 30 13 61 27 110 38 110 25z m-40 -224 c0 -5 -9 -9 -19
-9 -13 0 -24 -11 -32 -35 -14 -36 -35 -50 -24 -15 3 11 2 20 -3 20 -14 0 -22
-27 -15 -47 6 -16 5 -16 -10 -4 -16 12 -15 16 5 45 33 47 57 65 78 59 11 -3
20 -9 20 -14z m1910 -29 c0 -5 -5 -10 -11 -10 -5 0 -7 5 -4 10 3 6 8 10 11 10
2 0 4 -4 4 -10z m3400 -55 c18 -22 5 -30 -19 -13 -12 8 -18 18 -14 21 10 11
19 8 33 -8z m-5490 -24 c-6 -12 -15 -21 -21 -21 -5 0 -2 11 8 24 21 28 29 27
13 -3z m78 -3 c9 -9 12 -9 12 0 0 7 7 12 15 12 25 0 -1 -39 -30 -46 -26 -6
-32 -18 -15 -29 6 -3 10 -12 9 -18 0 -8 -3 -7 -6 2 -3 7 -15 -9 -27 -39 -13
-34 -29 -56 -43 -61 -20 -7 -23 -5 -23 20 0 35 35 118 63 149 24 25 29 26 45
10z m2048 -63 c-4 -19 -16 -39 -26 -45 -11 -6 -20 -17 -20 -24 0 -19 -19 -32
-57 -41 -29 -6 -33 -4 -33 15 0 25 132 159 138 140 2 -6 1 -27 -2 -45z m3502
-24 c11 -7 11 -9 -1 -14 -9 -3 -21 1 -27 9 -10 11 -10 14 1 14 8 0 20 -4 27
-9z m-5698 -66 c-6 -15 -13 -26 -16 -23 -2 3 0 18 6 33 6 15 13 26 16 23 2 -3
0 -18 -6 -33z m7277 -17 c-3 -8 -6 -5 -6 6 -1 11 2 17 5 13 3 -3 4 -12 1 -19z
m-5217 -23 c0 -9 -6 -12 -15 -9 -8 4 -15 1 -15 -5 0 -18 -17 -12 -17 7 -2 35
5 44 27 32 11 -6 20 -17 20 -25z m118 -24 c-13 -15 -24 -27 -26 -26 -6 6 30
55 40 55 5 0 -1 -13 -14 -29z m3751 20 c10 -6 10 -10 1 -16 -7 -4 -19 0 -28 9
-14 13 -14 16 -2 16 8 0 21 -4 29 -9z m-3862 -65 c-18 -26 -115 -86 -141 -86
-9 0 -16 -4 -16 -10 0 -5 -9 -10 -20 -10 -28 0 -25 18 5 26 14 3 23 10 20 14
-6 10 48 44 97 59 20 7 42 19 49 27 19 23 24 7 6 -20z m5170 -43 c-3 -10 -5
-4 -5 12 0 17 2 24 5 18 2 -7 2 -21 0 -30z m-5367 -77 c0 -11 -19 -15 -25 -6
-3 5 1 10 9 10 9 0 16 -2 16 -4z m5490 -205 c0 -6 -4 -13 -10 -16 -5 -3 -10 1
-10 9 0 9 5 16 10 16 6 0 10 -4 10 -9z m517 -33 c-3 -8 -6 -5 -6 6 -1 11 2 17
5 13 3 -3 4 -12 1 -19z m-471 -65 c-1 -1 -12 0 -24 4 -21 5 -31 23 -13 23 5 0
7 10 5 23 -4 15 1 11 15 -13 10 -19 18 -36 17 -37z m-7723 50 c4 -3 -14 -21
-40 -40 -50 -35 -51 -43 -2 -17 17 8 33 13 36 11 6 -7 -85 -67 -101 -67 -7 0
-32 -18 -56 -40 -51 -47 -70 -52 -41 -11 12 16 21 38 21 50 0 30 60 83 117
102 57 21 58 21 66 12z m8177 -47 c-1 -17 -2 -18 -9 -6 -5 8 -12 26 -15 40 -7
24 -6 24 8 6 9 -11 16 -29 16 -40z m-8420 -107 c-7 -16 -21 -34 -32 -40 -11
-6 -17 -16 -15 -22 5 -15 -20 -67 -33 -67 -5 0 -12 5 -16 11 -4 8 -9 7 -15 -2
-15 -25 -19 -2 -5 26 8 16 12 33 9 38 -6 10 37 58 47 52 4 -2 20 9 36 26 32
33 43 24 24 -22z"/>
<path d="M8145 5335 c22 -53 39 -70 29 -30 -3 17 -15 39 -26 50 -19 20 -19 20
-3 -20z"/>
<path d="M8216 5138 c-12 -47 -2 -50 37 -14 26 24 26 46 0 25 -9 -9 -13 -8
-13 0 0 20 -18 12 -24 -11z"/>
<path d="M8220 5078 c0 -9 6 -18 14 -21 14 -5 56 -88 56 -109 0 -13 62 -78 74
-78 5 0 -1 11 -14 25 -23 24 -43 56 -55 85 -14 32 -40 76 -57 94 -15 16 -18
17 -18 4z"/>
<path d="M7956 5080 c8 -31 24 -50 24 -29 0 8 -7 24 -16 35 -14 18 -15 18 -8
-6z"/>
<path d="M1026 1014 c-17 -12 -17 -14 -4 -14 9 0 20 5 23 11 11 17 2 18 -19 3z"/>
<path d="M745 270 c-3 -5 -2 -10 4 -10 5 0 13 5 16 10 3 6 2 10 -4 10 -5 0
-13 -4 -16 -10z"/>
<path d="M540 119 c0 -5 5 -7 10 -4 6 3 10 8 10 11 0 2 -4 4 -10 4 -5 0 -10
-5 -10 -11z"/>
<path d="M4320 8500 c0 -5 5 -10 11 -10 5 0 7 5 4 10 -3 6 -8 10 -11 10 -2 0
-4 -4 -4 -10z"/>
<path d="M4110 8360 c0 -5 5 -10 10 -10 6 0 10 5 10 10 0 6 -4 10 -10 10 -5 0
-10 -4 -10 -10z"/>
<path d="M7430 8367 c0 -5 9 -20 20 -34 11 -14 20 -22 20 -17 -1 12 -39 61
-40 51z"/>
<path d="M7580 7994 c0 -8 5 -12 10 -9 6 3 10 10 10 16 0 5 -4 9 -10 9 -5 0
-10 -7 -10 -16z"/>
<path d="M7630 7969 c7 -11 14 -19 16 -16 7 7 -7 37 -17 37 -6 0 -5 -9 1 -21z"/>
<path d="M7710 7668 c0 -18 18 -34 28 -24 3 4 -2 14 -11 23 -16 16 -17 16 -17
1z"/>
<path d="M2831 7628 l-12 -33 23 22 c16 17 19 26 11 34 -7 7 -14 1 -22 -23z"/>
<path d="M2807 7571 c-4 -17 -3 -21 5 -13 5 5 8 16 6 23 -3 8 -7 3 -11 -10z"/>
<path d="M2785 7519 c-4 -6 -5 -12 -2 -15 2 -3 7 2 10 11 7 17 1 20 -8 4z"/>
<path d="M2765 7475 c-5 -11 -10 -24 -13 -30 -3 -5 3 -3 13 7 9 9 15 22 12 30
-3 9 -7 7 -12 -7z"/>
<path d="M9340 7380 c0 -5 4 -10 9 -10 6 0 13 5 16 10 3 6 -1 10 -9 10 -9 0
-16 -4 -16 -10z"/>
<path d="M9260 7360 c0 -5 7 -10 15 -10 8 0 15 5 15 10 0 6 -7 10 -15 10 -8 0
-15 -4 -15 -10z"/>
<path d="M9185 7340 c-3 -5 1 -10 9 -10 9 0 16 5 16 10 0 6 -4 10 -9 10 -6 0
-13 -4 -16 -10z"/>
<path d="M9347 7333 c-14 -14 -7 -43 11 -43 25 0 31 7 25 31 -5 19 -23 25 -36
12z"/>
<path d="M9100 7320 c0 -5 7 -10 15 -10 8 0 15 5 15 10 0 6 -7 10 -15 10 -8 0
-15 -4 -15 -10z"/>
<path d="M9270 7305 c-14 -16 -6 -35 16 -35 8 0 14 10 14 25 0 28 -12 32 -30
10z"/>
<path d="M9035 7300 c-3 -5 1 -10 9 -10 9 0 16 5 16 10 0 6 -4 10 -9 10 -6 0
-13 -4 -16 -10z"/>
<path d="M9198 7292 c-25 -5 -23 -42 1 -42 11 0 23 4 26 10 10 15 -8 36 -27
32z"/>
<path d="M8950 7280 c0 -5 7 -10 15 -10 8 0 15 5 15 10 0 6 -7 10 -15 10 -8 0
-15 -4 -15 -10z"/>
<path d="M8875 7260 c-3 -5 1 -10 9 -10 9 0 16 5 16 10 0 6 -4 10 -9 10 -6 0
-13 -4 -16 -10z"/>
<path d="M9106 7254 c-9 -24 2 -36 24 -24 11 6 17 17 14 25 -8 20 -30 19 -38
-1z"/>
<path d="M9353 7243 c-3 -10 -8 -21 -10 -25 -2 -5 7 -8 21 -8 21 0 26 5 26 25
0 29 -27 35 -37 8z"/>
<path d="M8797 7244 c-8 -8 1 -24 14 -24 5 0 9 7 9 15 0 15 -12 20 -23 9z"/>
<path d="M9030 7230 c0 -15 5 -20 18 -18 9 2 17 10 17 18 0 8 -8 16 -17 18
-13 2 -18 -3 -18 -18z"/>
<path d="M9277 7233 c-15 -15 -7 -43 13 -43 15 0 20 7 20 25 0 24 -18 34 -33
18z"/>
<path d="M8725 7219 c-4 -6 -5 -13 -2 -16 7 -7 27 6 27 18 0 12 -17 12 -25 -2z"/>
<path d="M8957 7223 c-4 -3 -7 -15 -7 -26 0 -13 5 -17 16 -13 9 3 18 6 20 6 2
0 4 9 4 20 0 19 -20 27 -33 13z"/>
<path d="M9194 7206 c-8 -22 3 -49 19 -43 6 2 12 14 12 27 0 27 -22 39 -31 16z"/>
<path d="M8646 7203 c-11 -11 -6 -23 9 -23 8 0 15 4 15 9 0 13 -16 22 -24 14z"/>
<path d="M8876 7193 c-8 -19 8 -38 23 -29 16 10 13 46 -3 46 -8 0 -17 -8 -20
-17z"/>
<path d="M9123 7193 c-7 -3 -13 -16 -13 -30 0 -18 5 -24 17 -21 19 4 30 35 16
48 -4 4 -14 5 -20 3z"/>
<path d="M8570 7174 c0 -9 5 -14 12 -12 18 6 21 28 4 28 -9 0 -16 -7 -16 -16z"/>
<path d="M8800 7165 c0 -26 7 -30 28 -17 16 10 5 42 -14 42 -8 0 -14 -10 -14
-25z"/>
<path d="M9040 7166 c-14 -18 -6 -50 13 -44 15 6 22 37 10 49 -6 6 -15 4 -23
-5z"/>
<path d="M9363 7173 c-21 -8 -16 -43 6 -43 24 0 33 13 25 34 -6 17 -11 18 -31
9z"/>
<path d="M8501 7161 c-10 -7 -10 -10 -1 -16 6 -4 16 -3 22 3 13 13 -4 23 -21
13z"/>
<path d="M8726 7153 c-8 -19 8 -38 23 -29 16 10 13 46 -3 46 -8 0 -17 -8 -20
-17z"/>
<path d="M8966 7147 c-21 -16 -16 -47 8 -47 21 0 27 14 18 39 -7 19 -10 20
-26 8z"/>
<path d="M9287 7153 c-13 -12 -7 -43 7 -43 19 0 28 14 20 34 -7 17 -16 20 -27
9z"/>
<path d="M8647 7143 c-4 -3 -7 -15 -7 -25 0 -28 34 -19 38 10 3 21 -16 31 -31
15z"/>
<path d="M9205 7126 c-24 -17 -13 -46 14 -39 21 5 29 37 12 47 -4 3 -16 -1
-26 -8z"/>
<path d="M8573 7114 c-7 -18 11 -39 26 -30 17 11 13 46 -4 46 -9 0 -18 -7 -22
-16z"/>
<path d="M8882 7108 c2 -12 10 -23 18 -23 22 0 19 39 -3 43 -15 3 -18 -1 -15
-20z"/>
<path d="M7860 7113 c0 -5 5 -15 10 -23 8 -12 10 -11 10 8 0 12 -4 22 -10 22
-5 0 -10 -3 -10 -7z"/>
<path d="M8503 7094 c-8 -22 15 -44 26 -25 10 16 4 41 -10 41 -5 0 -12 -7 -16
-16z"/>
<path d="M8803 7094 c-7 -18 11 -39 26 -30 17 11 13 46 -4 46 -9 0 -18 -7 -22
-16z"/>
<path d="M9113 7094 c-9 -23 13 -40 32 -24 8 7 15 19 15 26 0 19 -39 18 -47
-2z"/>
<path d="M9373 7092 c-6 -4 -13 -16 -15 -27 -2 -14 3 -20 17 -20 11 0 21 8 23
19 5 22 -9 38 -25 28z"/>
<path d="M8730 7065 c0 -27 9 -32 27 -14 14 14 6 39 -13 39 -8 0 -14 -10 -14
-25z"/>
<path d="M9040 7070 c0 -13 7 -20 20 -20 13 0 20 7 20 20 0 13 -7 20 -20 20
-13 0 -20 -7 -20 -20z"/>
<path d="M8650 7045 c0 -20 4 -26 18 -23 9 2 17 12 17 23 0 11 -8 21 -17 23
-14 3 -18 -3 -18 -23z"/>
<path d="M8962 7048 c2 -13 10 -23 18 -23 8 0 16 10 18 23 3 17 -2 22 -18 22
-16 0 -21 -5 -18 -22z"/>
<path d="M9280 7044 c0 -33 33 -30 38 4 3 17 -2 22 -17 22 -16 0 -21 -6 -21
-26z"/>
<path d="M9212 7048 c-21 -21 -15 -50 10 -46 27 4 32 18 16 41 -11 14 -16 15
-26 5z"/>
<path d="M8580 7035 c0 -8 0 -18 -1 -22 -1 -11 14 -14 29 -5 16 10 5 42 -14
42 -8 0 -14 -7 -14 -15z"/>
<path d="M8883 7034 c-3 -8 -1 -20 5 -26 15 -15 43 8 35 28 -7 19 -32 18 -40
-2z"/>
<path d="M8507 7010 c-6 -22 7 -35 23 -25 15 9 12 45 -4 45 -7 0 -16 -9 -19
-20z"/>
<path d="M8810 7005 c0 -27 1 -28 24 -19 24 9 20 44 -4 44 -15 0 -20 -7 -20
-25z"/>
<path d="M9127 7023 c-4 -3 -7 -15 -7 -25 0 -28 34 -19 38 10 3 21 -16 31 -31
15z"/>
<path d="M8733 6994 c-7 -18 11 -39 26 -30 17 11 13 46 -4 46 -9 0 -18 -7 -22
-16z"/>
<path d="M9046 6994 c-8 -20 1 -34 20 -34 8 0 14 10 14 25 0 28 -24 34 -34 9z"/>
<path d="M9373 7003 c-7 -2 -13 -14 -13 -25 0 -14 6 -19 23 -16 14 2 22 10 22
22 0 21 -12 28 -32 19z"/>
<path d="M8653 6974 c-3 -8 -1 -20 5 -26 15 -15 43 8 35 28 -7 19 -32 18 -40
-2z"/>
<path d="M8966 6974 c-4 -10 -2 -22 3 -27 14 -14 43 0 39 20 -4 24 -34 28 -42
7z"/>
<path d="M9297 6984 c-15 -15 -7 -45 11 -42 9 2 17 12 17 22 0 20 -16 31 -28
20z"/>
<path d="M8584 6955 c-3 -8 -3 -19 0 -24 10 -16 36 -1 36 20 0 22 -28 26 -36
4z"/>
<path d="M8890 6945 c0 -18 5 -25 20 -25 15 0 20 7 20 25 0 18 -5 25 -20 25
-15 0 -20 -7 -20 -25z"/>
<path d="M9210 6955 c-10 -12 -10 -19 -2 -27 16 -16 42 -2 42 22 0 24 -22 26
-40 5z"/>
<path d="M8822 6948 c-19 -19 -14 -48 8 -48 15 0 20 7 20 24 0 30 -12 40 -28
24z"/>
<path d="M8517 6944 c-14 -14 -7 -35 11 -32 9 2 17 10 17 17 0 16 -18 25 -28
15z"/>
<path d="M9135 6942 c-18 -12 -11 -37 10 -37 13 0 20 7 20 19 0 21 -14 30 -30
18z"/>
<path d="M8747 6933 c-15 -15 -7 -43 13 -43 21 0 24 8 14 34 -7 17 -16 20 -27
9z"/>
<path d="M9057 6923 c-14 -13 -6 -33 13 -33 13 0 20 7 20 20 0 19 -20 27 -33
13z"/>
<path d="M9370 6904 c0 -33 33 -30 38 4 3 17 -2 22 -17 22 -16 0 -21 -6 -21
-26z"/>
<path d="M8673 6913 c-13 -5 -18 -35 -7 -46 11 -11 34 5 34 23 0 22 -10 29
-27 23z"/>
<path d="M8977 6903 c-14 -13 -6 -33 13 -33 13 0 20 7 20 20 0 19 -20 27 -33
13z"/>
<path d="M9293 6894 c-7 -18 11 -39 26 -30 17 11 13 46 -4 46 -9 0 -18 -7 -22
-16z"/>
<path d="M8597 6894 c-15 -15 -7 -45 11 -42 9 2 17 12 17 22 0 20 -16 31 -28
20z"/>
<path d="M8896 6875 c-9 -25 -8 -27 17 -23 12 2 22 10 22 18 0 21 -31 24 -39
5z"/>
<path d="M9217 6883 c-4 -3 -7 -15 -7 -25 0 -29 44 -20 48 10 3 16 -2 22 -16
22 -10 0 -22 -3 -25 -7z"/>
<path d="M8523 6864 c-8 -22 15 -44 26 -25 10 16 4 41 -10 41 -5 0 -12 -7 -16
-16z"/>
<path d="M9142 6868 c-7 -7 -12 -20 -12 -31 0 -24 33 -19 38 7 5 24 -11 39
-26 24z"/>
<path d="M8820 6850 c0 -15 5 -20 18 -18 9 2 17 10 17 18 0 8 -8 16 -17 18
-13 2 -18 -3 -18 -18z"/>
<path d="M7941 6844 c0 -11 3 -14 6 -6 3 7 2 16 -1 19 -3 4 -6 -2 -5 -13z"/>
<path d="M9060 6840 c-11 -20 -6 -40 8 -40 20 1 34 19 27 39 -8 26 -21 27 -35
1z"/>
<path d="M8747 6843 c-14 -13 -6 -33 13 -33 13 0 20 7 20 20 0 19 -20 27 -33
13z"/>
<path d="M9377 6844 c-4 -4 -7 -16 -7 -26 0 -14 6 -19 23 -16 14 2 22 10 22
23 0 20 -25 32 -38 19z"/>
<path d="M8983 6828 c-15 -21 -9 -43 12 -43 14 0 20 7 20 24 0 28 -17 38 -32
19z"/>
<path d="M8670 6810 c0 -15 5 -20 18 -18 9 2 17 10 17 18 0 8 -8 16 -17 18
-13 2 -18 -3 -18 -18z"/>
<path d="M9307 6824 c-15 -15 -7 -45 11 -42 9 2 17 12 17 22 0 20 -16 31 -28
20z"/>
<path d="M8600 6805 c-14 -16 -6 -35 16 -35 8 0 14 10 14 25 0 28 -12 32 -30
10z"/>
<path d="M8907 6813 c-8 -8 -9 -53 -1 -53 21 0 42 22 37 40 -5 20 -23 26 -36
13z"/>
<path d="M9222 6798 c-20 -20 -14 -40 11 -36 14 2 23 11 25 26 4 24 -16 30
-36 10z"/>
<path d="M8532 6788 c-18 -18 -14 -28 8 -28 11 0 20 6 20 14 0 21 -15 27 -28
14z"/>
<path d="M8827 6793 c-14 -14 -7 -43 11 -43 25 0 31 7 25 31 -5 19 -23 25 -36
12z"/>
<path d="M9140 6770 c-9 -16 -8 -22 5 -26 21 -8 39 10 32 30 -9 22 -24 20 -37
-4z"/>
<path d="M8757 6773 c-13 -12 -7 -43 7 -43 19 0 28 14 20 34 -7 17 -16 20 -27
9z"/>
<path d="M9067 6763 c-4 -3 -7 -15 -7 -25 0 -28 34 -19 38 10 3 21 -16 31 -31
15z"/>
<path d="M9387 6763 c-15 -15 -7 -43 13 -43 15 0 20 7 20 25 0 24 -18 34 -33
18z"/>
<path d="M8677 6753 c-15 -15 -7 -43 13 -43 15 0 20 7 20 25 0 24 -18 34 -33
18z"/>
<path d="M8983 6734 c-3 -8 -1 -20 5 -26 15 -15 43 8 35 28 -7 19 -32 18 -40
-2z"/>
<path d="M9307 6743 c-4 -3 -7 -15 -7 -25 0 -21 36 -25 43 -5 9 27 -17 50 -36
30z"/>
<path d="M8607 6733 c-4 -3 -7 -15 -7 -25 0 -28 34 -19 38 10 3 21 -16 31 -31
15z"/>
<path d="M8906 6714 c-9 -23 -8 -24 19 -24 18 0 25 5 25 20 0 24 -35 28 -44 4z"/>
<path d="M9227 6723 c-4 -3 -7 -15 -7 -25 0 -29 44 -20 48 10 3 16 -2 22 -16
22 -10 0 -22 -3 -25 -7z"/>
<path d="M8537 6714 c-14 -15 -6 -34 14 -34 14 0 19 5 17 17 -3 18 -20 27 -31
17z"/>
<path d="M8842 6708 c-18 -18 -14 -38 8 -38 13 0 20 7 20 19 0 25 -13 34 -28
19z"/>
<path d="M9144 6695 c-7 -18 3 -35 22 -35 8 0 14 10 14 25 0 27 -27 35 -36 10z"/>
<path d="M8762 6688 c-18 -18 -14 -38 8 -38 13 0 20 7 20 19 0 25 -13 34 -28
19z"/>
<path d="M9083 6692 c-6 -4 -13 -16 -15 -27 -2 -14 3 -20 17 -20 11 0 21 8 23
19 5 22 -9 38 -25 28z"/>
<path d="M9390 6675 c-14 -17 -5 -48 13 -43 14 5 23 58 9 58 -5 0 -15 -7 -22
-15z"/>
<path d="M4053 6673 c-13 -2 -23 -11 -23 -18 0 -8 -15 -17 -35 -21 -65 -12
-36 -25 48 -21 60 3 88 1 102 -9 20 -15 65 -19 65 -6 0 13 -44 37 -70 37 -18
0 -26 6 -28 23 -3 22 -12 24 -59 15z"/>
<path d="M8680 6660 c-9 -16 -8 -22 5 -26 21 -8 39 10 32 30 -9 22 -24 20 -37
-4z"/>
<path d="M9003 6673 c-7 -3 -13 -16 -13 -30 0 -19 4 -24 16 -19 9 3 18 6 20 6
7 0 4 39 -3 43 -5 2 -14 2 -20 0z"/>
<path d="M9317 6664 c-16 -16 -7 -44 14 -44 15 0 20 5 17 22 -3 22 -19 33 -31
22z"/>
<path d="M8606 6644 c-4 -10 -3 -21 2 -26 13 -13 43 2 40 21 -4 22 -34 26 -42
5z"/>
<path d="M8923 6653 c-13 -5 -18 -35 -7 -46 12 -12 34 6 34 29 0 24 -4 27 -27
17z"/>
<path d="M9237 6643 c-15 -14 -7 -43 12 -43 24 0 33 13 25 34 -6 16 -25 21
-37 9z"/>
<path d="M4290 6629 c0 -5 5 -7 10 -4 6 3 10 8 10 11 0 2 -4 4 -10 4 -5 0 -10
-5 -10 -11z"/>
<path d="M8547 6633 c-13 -12 -7 -33 8 -33 8 0 15 9 15 20 0 20 -11 26 -23 13z"/>
<path d="M8842 6628 c-18 -18 -15 -38 6 -38 25 0 31 7 25 31 -6 22 -14 24 -31
7z"/>
<path d="M9150 6604 c0 -33 33 -30 38 4 3 17 -2 22 -17 22 -16 0 -21 -6 -21
-26z"/>
<path d="M8767 6614 c-15 -15 -7 -45 11 -42 9 2 17 12 17 22 0 20 -16 31 -28
20z"/>
<path d="M9088 6609 c-25 -14 -23 -49 2 -49 16 0 20 7 20 30 0 17 -1 30 -2 30
-2 0 -11 -5 -20 -11z"/>
<path d="M3860 6589 c0 -5 5 -7 10 -4 6 3 10 8 10 11 0 2 -4 4 -10 4 -5 0 -10
-5 -10 -11z"/>
<path d="M8687 6593 c-4 -3 -7 -15 -7 -25 0 -28 34 -19 38 10 3 21 -16 31 -31
15z"/>
<path d="M9000 6585 c-15 -18 -6 -45 14 -45 20 0 29 16 21 40 -8 24 -18 25
-35 5z"/>
<path d="M9394 6585 c-3 -8 -3 -19 1 -25 11 -18 25 -11 25 15 0 27 -17 34 -26
10z"/>
<path d="M3815 6580 c-3 -5 -2 -10 4 -10 5 0 13 5 16 10 3 6 2 10 -4 10 -5 0
-13 -4 -16 -10z"/>
<path d="M4346 6575 c-3 -9 0 -15 9 -15 8 0 15 7 15 15 0 8 -4 15 -9 15 -5 0
-11 -7 -15 -15z"/>
<path d="M9320 6571 c-14 -27 -13 -31 9 -31 24 0 33 13 25 34 -8 21 -21 20
-34 -3z"/>
<path d="M8610 6554 c0 -33 33 -30 38 4 3 17 -2 22 -17 22 -16 0 -21 -6 -21
-26z"/>
<path d="M8922 6568 c-25 -25 -9 -54 23 -42 9 4 15 15 13 27 -4 25 -19 32 -36
15z"/>
<path d="M2571 6544 c-11 -26 -20 -59 -36 -139 -6 -27 -5 -28 6 -10 7 10 15
33 19 50 4 16 11 29 17 28 12 -3 22 57 13 82 -5 14 -8 11 -19 -11z"/>
<path d="M8552 6558 c-18 -18 -14 -38 8 -38 13 0 20 7 20 19 0 25 -13 34 -28
19z"/>
<path d="M9242 6558 c-20 -20 -14 -38 14 -38 20 0 25 4 22 22 -4 26 -19 33
-36 16z"/>
<path d="M8844 6546 c-9 -24 3 -47 21 -40 18 7 16 45 -2 52 -7 2 -16 -3 -19
-12z"/>
<path d="M9157 6543 c-15 -14 -7 -43 12 -43 24 0 33 13 25 34 -6 16 -25 21
-37 9z"/>
<path d="M8770 6520 c-9 -16 -8 -22 4 -26 22 -8 35 3 29 26 -7 26 -19 25 -33
0z"/>
<path d="M9087 6524 c-15 -15 -7 -45 11 -42 9 2 17 12 17 22 0 20 -16 31 -28
20z"/>
<path d="M8690 6494 c0 -33 33 -30 38 4 3 17 -2 22 -17 22 -16 0 -21 -6 -21
-26z"/>
<path d="M9400 6495 c0 -14 5 -25 10 -25 6 0 10 11 10 25 0 14 -4 25 -10 25
-5 0 -10 -11 -10 -25z"/>
<path d="M9000 6485 c0 -27 1 -28 24 -19 24 9 20 44 -4 44 -15 0 -20 -7 -20
-25z"/>
<path d="M8616 6483 c-8 -19 10 -34 31 -26 7 3 13 14 13 24 0 24 -35 26 -44 2z"/>
<path d="M8937 6492 c-12 -2 -17 -11 -15 -25 4 -26 27 -29 42 -5 13 21 -1 36
-27 30z"/>
<path d="M9320 6474 c0 -33 33 -30 38 4 3 17 -2 22 -17 22 -16 0 -21 -6 -21
-26z"/>
<path d="M8557 6483 c-13 -12 -7 -43 8 -43 9 0 15 9 15 25 0 24 -10 32 -23 18z"/>
<path d="M9247 6483 c-11 -10 -8 -41 4 -49 16 -9 43 21 36 40 -7 16 -28 21
-40 9z"/>
<path d="M8851 6462 c-15 -28 -14 -32 8 -32 27 0 36 19 18 37 -13 14 -16 13
-26 -5z"/>
<path d="M9167 6463 c-15 -15 -7 -43 13 -43 15 0 20 7 20 25 0 24 -18 34 -33
18z"/>
<path d="M8777 6453 c-4 -3 -7 -15 -7 -25 0 -28 34 -19 38 10 3 21 -16 31 -31
15z"/>
<path d="M9086 6434 c-10 -26 -7 -34 13 -34 24 0 33 13 25 34 -8 21 -30 21
-38 0z"/>
<path d="M8693 6424 c-3 -8 -1 -20 5 -26 15 -15 43 8 35 28 -7 19 -32 18 -40
-2z"/>
<path d="M9024 6432 c-6 -4 -13 -15 -17 -25 -8 -21 19 -35 35 -19 14 14 -2 55
-18 44z"/>
<path d="M9407 6433 c-11 -10 -8 -43 3 -43 6 0 10 11 10 25 0 26 -2 29 -13 18z"/>
<path d="M8627 6423 c-14 -14 -7 -43 11 -43 25 0 31 7 25 31 -5 19 -23 25 -36
12z"/>
<path d="M8051 6399 c-1 -27 19 -79 31 -79 7 0 -2 37 -20 80 l-11 25 0 -26z"/>
<path d="M8937 6414 c-4 -4 -7 -18 -7 -31 0 -18 5 -24 18 -21 10 2 17 12 17
27 0 24 -15 37 -28 25z"/>
<path d="M9327 6399 c-3 -13 0 -22 9 -26 20 -7 38 11 31 31 -9 23 -34 20 -40
-5z"/>
<path d="M8560 6394 c-9 -10 -10 -18 -2 -26 12 -12 32 -2 32 17 0 21 -16 26
-30 9z"/>
<path d="M9257 6399 c-18 -11 -23 -34 -8 -43 16 -10 41 5 41 24 0 24 -11 31
-33 19z"/>
<path d="M8857 6394 c-16 -16 -7 -44 14 -44 15 0 20 5 17 22 -3 22 -19 33 -31
22z"/>
<path d="M9172 6378 c-20 -20 -14 -40 11 -36 14 2 22 10 22 22 0 24 -16 31
-33 14z"/>
<path d="M8787 6373 c-13 -12 -7 -43 7 -43 19 0 28 14 20 34 -7 17 -16 20 -27
9z"/>
<path d="M8711 6361 c-17 -11 -10 -46 9 -46 17 0 26 33 13 46 -4 4 -14 4 -22
0z"/>
<path d="M9097 6363 c-4 -3 -7 -15 -7 -25 0 -28 34 -19 38 10 3 21 -16 31 -31
15z"/>
<path d="M9407 6340 c-3 -11 -1 -23 4 -26 5 -3 9 6 9 20 0 31 -6 34 -13 6z"/>
<path d="M8637 6344 c-16 -16 -7 -44 14 -44 15 0 20 5 17 22 -3 22 -19 33 -31
22z"/>
<path d="M9013 6334 c-3 -8 -1 -20 5 -26 15 -15 43 8 35 28 -7 19 -32 18 -40
-2z"/>
<path d="M2514 6324 c3 -9 6 -21 7 -27 0 -7 4 -3 9 8 13 29 12 35 -6 35 -11 0
-14 -5 -10 -16z"/>
<path d="M8940 6325 c-18 -21 -6 -45 20 -38 14 4 20 12 18 26 -4 26 -21 32
-38 12z"/>
<path d="M9337 6333 c-15 -15 -7 -43 13 -43 15 0 20 7 20 25 0 24 -18 34 -33
18z"/>
<path d="M8563 6314 c-8 -22 15 -44 26 -25 10 16 4 41 -10 41 -5 0 -12 -7 -16
-16z"/>
<path d="M9263 6323 c-7 -2 -13 -16 -13 -29 0 -17 6 -24 19 -24 25 0 34 14 26
40 -6 20 -11 22 -32 13z"/>
<path d="M8860 6305 c-13 -16 -6 -35 15 -35 18 0 26 15 19 34 -8 20 -18 20
-34 1z"/>
<path d="M9174 6295 c-8 -21 3 -48 19 -43 19 7 22 58 2 58 -8 0 -18 -7 -21
-15z"/>
<path d="M8783 6284 c-7 -18 11 -39 26 -30 17 11 13 46 -4 46 -9 0 -18 -7 -22
-16z"/>
<path d="M9096 6274 c-10 -26 -7 -34 13 -34 24 0 33 13 25 34 -8 21 -30 21
-38 0z"/>
<path d="M8710 6260 c0 -15 5 -20 18 -18 9 2 17 10 17 18 0 8 -8 16 -17 18
-13 2 -18 -3 -18 -18z"/>
<path d="M8636 6254 c-10 -26 -7 -34 12 -34 25 0 31 7 25 31 -6 23 -28 25 -37
3z"/>
<path d="M9020 6245 c0 -18 5 -25 20 -25 15 0 20 7 20 25 0 18 -5 25 -20 25
-15 0 -20 -7 -20 -25z"/>
<path d="M8939 6239 c-7 -14 -8 -24 -1 -31 17 -17 42 -1 42 27 0 31 -25 34
-41 4z"/>
<path d="M9340 6245 c-10 -11 -10 -19 -2 -27 15 -15 44 -2 40 19 -4 23 -22 27
-38 8z"/>
<path d="M9411 6244 c0 -11 3 -14 6 -6 3 7 2 16 -1 19 -3 4 -6 -2 -5 -13z"/>
<path d="M8111 6234 c0 -11 3 -14 6 -6 3 7 2 16 -1 19 -3 4 -6 -2 -5 -13z"/>
<path d="M8570 6230 c-9 -17 -8 -20 10 -20 13 0 20 7 20 20 0 11 -4 20 -10 20
-5 0 -14 -9 -20 -20z"/>
<path d="M8867 6233 c-15 -15 -7 -43 13 -43 15 0 20 7 20 25 0 24 -18 34 -33
18z"/>
<path d="M9256 6223 c-4 -9 -3 -20 2 -25 14 -14 42 2 42 23 0 24 -35 26 -44 2z"/>
<path d="M8797 6213 c-4 -3 -7 -15 -7 -25 0 -28 34 -19 38 10 3 21 -16 31 -31
15z"/>
<path d="M9176 6204 c-9 -23 -8 -24 19 -24 18 0 25 5 25 20 0 24 -35 28 -44 4z"/>
<path d="M8717 6203 c-15 -15 -7 -43 13 -43 15 0 20 7 20 25 0 24 -18 34 -33
18z"/>
<path d="M9107 6204 c-15 -15 -7 -45 11 -42 9 2 17 12 17 22 0 20 -16 31 -28
20z"/>
<path d="M8640 6165 c0 -18 5 -25 20 -25 15 0 20 7 20 25 0 18 -5 25 -20 25
-15 0 -20 -7 -20 -25z"/>
<path d="M9023 6174 c-7 -18 11 -39 26 -30 17 11 13 46 -4 46 -9 0 -18 -7 -22
-16z"/>
<path d="M4407 6173 c-4 -3 -7 -28 -7 -55 0 -32 -4 -48 -12 -48 -7 0 -23 -3
-35 -6 -16 -5 -25 1 -37 23 l-15 28 -11 -32 c-7 -18 -15 -33 -19 -33 -3 0 -24
16 -46 35 -22 19 -43 35 -47 35 -14 0 -8 -28 8 -44 25 -26 -1 -18 -30 9 -14
13 -26 21 -27 17 -1 -4 -5 4 -10 18 -6 19 -7 14 -4 -20 2 -25 2 -37 -1 -27 -5
14 -9 16 -20 6 -11 -9 -14 -8 -14 4 0 8 -7 17 -15 21 -21 8 -19 -11 5 -41 11
-14 20 -35 20 -46 0 -17 -2 -18 -16 -6 -13 10 -17 10 -25 -2 -5 -8 -9 -10 -9
-5 0 5 -6 3 -14 -3 -9 -8 -16 -8 -20 -2 -4 6 -13 8 -21 4 -9 -3 -15 1 -15 11
0 21 -16 20 -25 -1 -6 -17 -7 -17 -20 0 -9 13 -18 16 -29 10 -14 -8 -14 -12
-1 -37 18 -34 18 -36 5 -36 -6 0 -20 15 -31 33 l-21 32 6 -30 6 -30 -36 40
c-19 22 -31 30 -25 18 18 -36 13 -48 -11 -27 l-22 19 23 -37 c12 -21 20 -46
17 -55 -3 -14 9 -24 52 -46 31 -15 67 -27 80 -27 12 0 22 -4 22 -10 0 -5 7
-10 15 -10 9 0 19 -8 22 -17 4 -10 15 -24 25 -31 10 -7 18 -20 18 -28 0 -9 18
-23 40 -31 22 -9 40 -22 40 -29 0 -10 17 -12 66 -9 36 1 67 5 69 7 2 2 -23 17
-56 33 -53 26 -139 101 -139 122 0 12 50 33 76 33 13 0 34 4 48 10 22 8 28 6
42 -15 9 -15 21 -22 28 -18 12 9 18 10 45 12 10 0 21 9 24 20 4 15 13 18 46
16 23 -1 44 2 47 6 8 14 78 5 91 -11 6 -8 15 -12 18 -8 4 4 14 1 22 -7 8 -8
23 -15 34 -15 29 0 25 -49 -9 -89 -23 -28 -36 -34 -80 -38 -41 -4 -53 -1 -58
11 -10 26 5 69 21 62 9 -3 15 0 15 8 0 25 -12 46 -25 46 -16 0 -25 -22 -25
-61 0 -27 -8 -34 -37 -30 -7 1 -13 -7 -13 -19 0 -11 -4 -20 -10 -20 -5 0 -10
4 -10 9 0 10 -13 15 -67 26 -39 8 -42 -3 -8 -37 35 -36 145 -61 205 -47 61 15
74 17 83 18 18 2 67 98 73 143 7 55 27 63 71 28 14 -11 29 -20 33 -20 10 0 33
91 24 99 -4 3 -9 0 -11 -6 -6 -17 -21 -16 -38 1 -9 9 -12 27 -8 57 l5 44 -26
-30 -26 -30 -19 25 c-14 18 -23 21 -33 14 -7 -6 -25 -11 -40 -12 -21 -1 -27 3
-30 21 -2 17 -9 21 -27 19 -22 -2 -23 0 -18 43 2 25 2 44 -1 41 -3 -3 -10 2
-17 11 -11 14 -14 12 -24 -20 -16 -48 -35 -37 -27 14 6 36 -1 49 -17 32z"/>
<path d="M9347 6173 c-4 -3 -7 -15 -7 -25 0 -28 34 -19 38 10 3 21 -16 31 -31
15z"/>
<path d="M8570 6150 c0 -11 6 -20 13 -20 19 0 27 10 20 26 -8 21 -33 17 -33
-6z"/>
<path d="M8947 6163 c-16 -15 -6 -34 15 -31 29 4 38 38 10 38 -10 0 -22 -3
-25 -7z"/>
<path d="M9272 6158 c-7 -7 -12 -20 -12 -31 0 -14 5 -17 23 -11 29 9 30 9 22
33 -7 24 -16 26 -33 9z"/>
<path d="M8870 6140 c-9 -16 -8 -22 5 -26 21 -8 39 10 32 30 -9 22 -24 20 -37
-4z"/>
<path d="M9193 6143 c-22 -8 -15 -43 7 -43 13 0 20 7 20 19 0 22 -9 30 -27 24z"/>
<path d="M8797 6133 c-14 -13 -7 -33 11 -33 24 0 32 8 25 26 -5 15 -25 19 -36
7z"/>
<path d="M8727 6124 c-15 -15 -7 -45 11 -42 9 2 17 12 17 22 0 20 -16 31 -28
20z"/>
<path d="M9107 6109 c-3 -13 0 -22 9 -26 20 -7 38 11 31 31 -9 23 -34 20 -40
-5z"/>
<path d="M8656 6107 c-18 -13 -17 -47 1 -47 23 1 36 19 27 40 -8 18 -11 19
-28 7z"/>
<path d="M9037 6114 c-9 -10 -9 -54 1 -54 18 1 34 19 30 35 -3 20 -20 30 -31
19z"/>
<path d="M8170 6086 c0 -8 4 -17 9 -20 5 -4 7 3 4 14 -6 23 -13 26 -13 6z"/>
<path d="M8581 6082 c-11 -21 -6 -32 16 -32 15 0 18 36 4 45 -6 3 -15 -3 -20
-13z"/>
<path d="M8957 6093 c-14 -14 -7 -43 11 -43 25 0 31 7 25 31 -5 19 -23 25 -36
12z"/>
<path d="M9347 6079 c-3 -12 0 -22 8 -25 20 -8 35 4 35 27 0 26 -36 25 -43 -2z"/>
<path d="M9270 6071 c-14 -28 -13 -31 13 -31 31 0 38 9 26 31 -13 24 -26 24
-39 0z"/>
<path d="M4725 6070 c3 -5 10 -10 16 -10 5 0 9 5 9 10 0 6 -7 10 -16 10 -8 0
-12 -4 -9 -10z"/>
<path d="M8873 6064 c-7 -18 11 -39 26 -30 17 11 13 46 -4 46 -9 0 -18 -7 -22
-16z"/>
<path d="M8807 6064 c-16 -16 -7 -44 14 -44 15 0 20 5 17 22 -3 22 -19 33 -31
22z"/>
<path d="M9191 6052 c-12 -22 -6 -32 21 -32 14 0 19 6 16 22 -4 29 -24 34 -37
10z"/>
<path d="M4011 6044 c0 -11 3 -14 6 -6 3 7 2 16 -1 19 -3 4 -6 -2 -5 -13z"/>
<path d="M8723 6034 c-7 -18 11 -39 26 -30 17 11 13 46 -4 46 -9 0 -18 -7 -22
-16z"/>
<path d="M9113 6034 c-7 -18 11 -39 26 -30 17 11 13 46 -4 46 -9 0 -18 -7 -22
-16z"/>
<path d="M4774 6026 c-8 -22 -2 -27 16 -16 12 7 12 12 3 21 -10 10 -14 9 -19
-5z"/>
<path d="M8663 6033 c-21 -8 -15 -43 7 -43 15 0 20 7 20 25 0 25 -4 28 -27 18z"/>
<path d="M9042 6028 c-18 -18 -14 -38 7 -38 24 0 33 13 25 34 -7 19 -16 20
-32 4z"/>
<path d="M6313 6008 c12 -37 -48 -113 -121 -153 -40 -21 -55 -25 -65 -17 -16
14 -27 6 -27 -19 0 -10 -9 -21 -20 -24 -11 -4 -20 -15 -20 -27 0 -18 4 -19 35
-14 19 4 35 3 36 -1 5 -60 12 -95 25 -130 13 -37 20 -43 52 -49 20 -3 51 -10
68 -15 31 -10 91 -10 109 0 5 3 26 4 46 2 31 -2 40 2 59 28 16 24 18 31 7 31
-8 0 -20 -6 -26 -14 -16 -20 -70 -31 -83 -18 -6 6 -23 8 -39 5 -20 -4 -30 0
-38 15 -13 24 -60 35 -68 16 -7 -18 -23 -18 -23 0 0 7 -9 25 -20 39 -22 27
-27 57 -10 57 6 0 24 10 40 21 19 15 37 20 56 16 15 -3 36 0 46 6 14 9 23 9
38 -1 11 -6 27 -12 35 -12 32 0 71 -29 85 -64 21 -56 36 -46 54 35 l11 48 45
-23 c43 -21 78 -64 79 -97 1 -15 -56 -61 -111 -88 -35 -18 -25 -35 16 -27 80
14 97 20 106 36 10 18 59 28 187 39 7 1 10 7 7 15 -4 9 7 17 33 23 26 6 39 15
42 28 2 11 19 37 37 58 55 60 45 70 -21 22 -33 -24 -155 -44 -155 -25 0 5 5
10 11 10 6 0 17 6 24 13 8 6 28 23 45 37 31 25 42 57 15 46 -8 -3 -22 -9 -30
-12 -8 -3 -15 -1 -15 5 0 6 -9 11 -20 11 -12 0 -20 7 -20 18 0 9 -12 22 -26
29 -22 10 -26 9 -34 -12 -5 -13 -14 -26 -21 -31 -9 -5 -10 -2 -6 9 4 10 -3 21
-18 31 -21 14 -23 14 -28 -3 -6 -25 -77 -17 -77 10 0 13 -5 17 -16 12 -14 -5
-16 -1 -12 18 3 13 9 33 13 44 7 18 5 17 -18 -4 -15 -14 -27 -20 -27 -15 0 5
-5 1 -11 -8 -15 -27 -29 -21 -29 11 0 17 -4 33 -10 36 -6 4 -10 -7 -10 -24 0
-34 -9 -38 -75 -28 -5 1 -15 11 -22 22 -11 19 -12 19 -22 -7 -11 -29 -18 -32
-45 -22 -12 5 -14 16 -9 50 4 31 2 44 -6 44 -7 0 -11 -6 -8 -12z"/>
<path d="M8582 6000 c-11 -18 -10 -20 14 -20 18 0 25 5 22 17 -5 24 -21 26
-36 3z"/>
<path d="M8960 6011 c0 -5 -3 -17 -6 -26 -5 -13 -2 -16 17 -13 32 4 41 48 10
48 -12 0 -21 -4 -21 -9z"/>
<path d="M9357 6013 c-15 -15 -7 -43 13 -43 15 0 20 7 20 25 0 24 -18 34 -33
18z"/>
<path d="M9282 5998 c-25 -25 -9 -54 23 -42 9 4 15 15 13 27 -4 25 -19 32 -36
15z"/>
<path d="M8211 5973 c11 -34 19 -42 19 -20 0 7 -7 22 -15 33 -13 17 -14 16 -4
-13z"/>
<path d="M8880 5975 c0 -27 1 -28 24 -19 24 9 20 44 -4 44 -15 0 -20 -7 -20
-25z"/>
<path d="M8810 5981 c0 -5 -3 -16 -6 -25 -4 -11 0 -16 13 -16 26 0 32 7 26 31
-5 19 -33 27 -33 10z"/>
<path d="M9197 5983 c-15 -14 -7 -43 12 -43 24 0 33 13 25 34 -6 16 -25 21
-37 9z"/>
<path d="M8734 5966 c-9 -24 3 -47 21 -40 18 7 16 45 -2 52 -7 2 -16 -3 -19
-12z"/>
<path d="M9134 5972 c-6 -4 -13 -15 -17 -24 -7 -19 21 -34 36 -19 13 13 -4 53
-19 43z"/>
<path d="M6690 5960 c0 -5 5 -10 11 -10 5 0 7 5 4 10 -3 6 -8 10 -11 10 -2 0
-4 -4 -4 -10z"/>
<path d="M8656 5944 c-10 -26 -7 -34 13 -34 24 0 33 13 25 34 -8 21 -30 21
-38 0z"/>
<path d="M9047 5953 c-15 -15 -7 -43 13 -43 15 0 20 7 20 25 0 24 -18 34 -33
18z"/>
<path d="M8590 5920 c0 -11 7 -20 15 -20 8 0 15 9 15 20 0 11 -7 20 -15 20 -8
0 -15 -9 -15 -20z"/>
<path d="M8967 5933 c-15 -14 -7 -43 12 -43 24 0 33 13 25 34 -6 16 -25 21
-37 9z"/>
<path d="M9361 5921 c-12 -21 -5 -31 21 -31 13 0 18 7 18 25 0 30 -25 34 -39
6z"/>
<path d="M8892 5918 c-16 -16 -15 -35 2 -41 19 -8 35 11 29 34 -6 22 -14 24
-31 7z"/>
<path d="M9280 5895 c0 -26 18 -33 37 -14 16 16 5 39 -18 39 -14 0 -19 -7 -19
-25z"/>
<path d="M8240 5905 c0 -2 11 -21 25 -41 30 -44 34 -33 5 14 -18 29 -30 40
-30 27z"/>
<path d="M8813 5894 c-7 -18 11 -39 26 -30 17 11 13 46 -4 46 -9 0 -18 -7 -22
-16z"/>
<path d="M9207 5903 c-15 -15 -7 -43 13 -43 15 0 20 7 20 25 0 24 -18 34 -33
18z"/>
<path d="M8741 5886 c-6 -7 -9 -21 -5 -30 9 -24 44 -2 37 24 -6 23 -16 25 -32
6z"/>
<path d="M9124 5875 c-7 -18 3 -35 22 -35 8 0 14 10 14 25 0 27 -27 35 -36 10z"/>
<path d="M8667 5873 c-4 -3 -7 -15 -7 -25 0 -28 34 -19 38 10 3 21 -16 31 -31
15z"/>
<path d="M9050 5865 c-18 -21 -6 -45 19 -38 22 6 25 12 15 37 -8 20 -18 20
-34 1z"/>
<path d="M8602 5858 c-7 -7 -12 -18 -12 -25 0 -18 29 -16 37 3 8 21 -10 37
-25 22z"/>
<path d="M8966 5851 c-10 -16 6 -42 23 -39 9 2 17 13 19 26 3 16 -2 22 -17 22
-11 0 -22 -4 -25 -9z"/>
<path d="M9373 5853 c-21 -8 -16 -43 6 -43 24 0 33 13 25 34 -6 17 -11 18 -31
9z"/>
<path d="M8894 5836 c-9 -24 3 -47 21 -40 18 7 16 45 -2 52 -7 2 -16 -3 -19
-12z"/>
<path d="M9284 5825 c-4 -9 -2 -21 3 -26 14 -14 45 1 41 20 -4 22 -37 26 -44
6z"/>
<path d="M8820 5805 c0 -20 4 -26 18 -23 9 2 17 12 17 23 0 11 -8 21 -17 23
-14 3 -18 -3 -18 -23z"/>
<path d="M9211 5812 c-15 -28 -14 -32 8 -32 27 0 36 19 18 37 -13 14 -16 13
-26 -5z"/>
<path d="M8744 5806 c-9 -24 3 -47 21 -40 18 7 16 45 -2 52 -7 2 -16 -3 -19
-12z"/>
<path d="M9131 5791 c-8 -15 -7 -20 6 -25 21 -8 38 8 30 28 -8 22 -24 20 -36
-3z"/>
<path d="M8670 5775 c0 -20 4 -26 18 -23 9 2 17 12 17 23 0 11 -8 21 -17 23
-14 3 -18 -3 -18 -23z"/>
<path d="M9063 5793 c-22 -8 -15 -43 7 -43 13 0 20 7 20 19 0 22 -9 30 -27 24z"/>
<path d="M8603 5773 c-3 -10 -8 -21 -10 -25 -2 -5 5 -8 16 -8 16 0 21 6 21 25
0 29 -18 34 -27 8z"/>
<path d="M8310 5771 c0 -5 7 -15 17 -22 15 -13 15 -12 4 9 -12 23 -21 28 -21
13z"/>
<path d="M8977 5773 c-12 -11 -8 -43 6 -43 22 0 38 16 31 33 -6 17 -25 22 -37
10z"/>
<path d="M9377 5774 c-16 -16 -7 -44 14 -44 15 0 20 5 17 22 -3 22 -19 33 -31
22z"/>
<path d="M8902 5758 c-18 -18 -15 -38 6 -38 25 0 31 7 25 31 -6 22 -14 24 -31
7z"/>
<path d="M9290 5734 c0 -33 33 -30 38 4 3 17 -2 22 -17 22 -16 0 -21 -6 -21
-26z"/>
<path d="M8827 5743 c-14 -13 -6 -33 13 -33 13 0 20 7 20 20 0 19 -20 27 -33
13z"/>
<path d="M9217 5744 c-16 -16 -7 -44 14 -44 15 0 20 5 17 22 -3 22 -19 33 -31
22z"/>
<path d="M8201 5738 c-2 -16 32 -88 40 -88 11 0 12 17 2 22 -5 2 -16 19 -25
38 -9 19 -17 32 -17 28z"/>
<path d="M8752 5728 c-20 -20 -14 -40 11 -36 14 2 22 10 22 22 0 24 -16 31
-33 14z"/>
<path d="M8340 5724 c1 -16 29 -60 29 -44 0 8 -6 24 -14 34 -8 11 -15 16 -15
10z"/>
<path d="M9136 5714 c-10 -26 -7 -34 12 -34 25 0 31 7 25 31 -6 23 -28 25 -37
3z"/>
<path d="M6298 5690 c-3 -21 -1 -29 7 -26 7 2 18 -1 24 -7 10 -9 12 -4 9 23
-4 47 -34 54 -40 10z"/>
<path d="M8673 5704 c-7 -18 11 -39 26 -30 17 11 13 46 -4 46 -9 0 -18 -7 -22
-16z"/>
<path d="M9057 5699 c-8 -30 -1 -38 24 -32 13 4 19 12 17 27 -4 29 -34 33 -41
5z"/>
<path d="M8606 5693 c-8 -21 10 -41 24 -27 11 11 3 44 -10 44 -4 0 -11 -8 -14
-17z"/>
<path d="M8994 5702 c-6 -4 -13 -17 -17 -30 -4 -19 -2 -23 16 -20 12 2 23 11
25 22 5 22 -9 38 -24 28z"/>
<path d="M9374 5685 c-7 -17 2 -45 13 -45 21 1 35 19 28 39 -7 24 -33 28 -41
6z"/>
<path d="M8907 5683 c-15 -15 -7 -43 13 -43 15 0 20 7 20 25 0 24 -18 34 -33
18z"/>
<path d="M8837 5673 c-11 -10 -8 -41 4 -49 17 -10 32 12 24 35 -6 21 -16 26
-28 14z"/>
<path d="M9296 5663 c-4 -9 -2 -21 3 -26 15 -15 41 0 41 23 0 25 -35 28 -44 3z"/>
<path d="M3067 5650 c6 -22 18 -26 29 -9 3 6 0 15 -7 20 -22 14 -28 11 -22
-11z"/>
<path d="M9220 5651 c-14 -28 -13 -31 15 -31 26 0 29 7 19 34 -8 21 -21 20
-34 -3z"/>
<path d="M228 5635 c-6 -29 2 -31 86 -26 69 4 53 19 -21 20 -31 1 -43 5 -43
16 0 24 -17 17 -22 -10z"/>
<path d="M8180 5652 c0 -5 7 -17 16 -28 14 -17 15 -17 10 -1 -3 10 -6 23 -6
28 0 5 -4 9 -10 9 -5 0 -10 -4 -10 -8z"/>
<path d="M8750 5635 c0 -18 5 -25 20 -25 15 0 20 7 20 25 0 18 -5 25 -20 25
-15 0 -20 -7 -20 -25z"/>
<path d="M8387 5635 c11 -33 65 -116 71 -110 3 3 -4 19 -16 35 -12 16 -22 33
-22 37 0 4 -9 19 -20 33 -16 20 -19 21 -13 5z"/>
<path d="M8681 5631 c-16 -28 -14 -31 15 -31 20 0 25 4 22 22 -4 29 -24 34
-37 9z"/>
<path d="M9140 5624 c0 -33 33 -30 38 4 3 17 -2 22 -17 22 -16 0 -21 -6 -21
-26z"/>
<path d="M9073 5633 c-21 -8 -15 -43 7 -43 15 0 20 7 20 25 0 25 -4 28 -27 18z"/>
<path d="M6918 5623 c7 -3 16 -2 19 1 4 3 -2 6 -13 5 -11 0 -14 -3 -6 -6z"/>
<path d="M8606 5613 c-8 -19 8 -38 23 -29 16 10 13 46 -3 46 -8 0 -17 -8 -20
-17z"/>
<path d="M8984 5605 c-4 -9 -2 -21 4 -27 15 -15 44 -1 40 19 -4 23 -36 29 -44
8z"/>
<path d="M8910 5590 c-9 -16 -8 -22 4 -26 22 -8 35 3 29 26 -7 26 -19 25 -33
0z"/>
<path d="M9380 5590 c0 -13 7 -20 20 -20 13 0 20 7 20 20 0 13 -7 20 -20 20
-13 0 -20 -7 -20 -20z"/>
<path d="M8841 5581 c-15 -27 -14 -31 9 -31 13 0 20 7 20 19 0 28 -17 35 -29
12z"/>
<path d="M9307 5593 c-4 -3 -7 -15 -7 -25 0 -28 34 -19 38 10 3 21 -16 31 -31
15z"/>
<path d="M9233 5583 c-22 -8 -15 -43 7 -43 13 0 20 7 20 19 0 22 -9 30 -27 24z"/>
<path d="M8760 5555 c0 -20 4 -26 18 -23 9 2 17 12 17 23 0 11 -8 21 -17 23
-14 3 -18 -3 -18 -23z"/>
<path d="M8220 5554 c0 -8 5 -12 10 -9 6 4 8 11 5 16 -9 14 -15 11 -15 -7z"/>
<path d="M8692 5558 c-18 -18 -15 -38 6 -38 25 0 31 7 25 31 -6 22 -14 24 -31
7z"/>
<path d="M9146 5553 c-4 -9 -2 -21 4 -27 13 -13 46 17 36 33 -11 16 -33 13
-40 -6z"/>
<path d="M8270 5550 c0 -6 -4 -8 -10 -5 -5 3 -10 1 -10 -4 0 -6 7 -11 15 -11
9 0 15 -9 15 -22 0 -17 3 -19 9 -9 5 7 6 22 4 32 -6 22 -23 36 -23 19z"/>
<path d="M9077 5554 c-15 -15 -7 -45 11 -42 9 2 17 12 17 22 0 20 -16 31 -28
20z"/>
<path d="M8612 5538 c-19 -19 -14 -28 13 -28 18 0 25 5 25 20 0 22 -20 26 -38
8z"/>
<path d="M8990 5520 c0 -13 7 -20 20 -20 13 0 20 7 20 20 0 13 -7 20 -20 20
-13 0 -20 -7 -20 -20z"/>
<path d="M8913 5514 c-7 -18 11 -39 26 -30 17 11 13 46 -4 46 -9 0 -18 -7 -22
-16z"/>
<path d="M8847 5514 c-15 -15 -7 -45 11 -42 9 2 17 12 17 22 0 20 -16 31 -28
20z"/>
<path d="M8764 5485 c-3 -8 -3 -19 0 -24 10 -16 36 -1 36 20 0 22 -28 26 -36
4z"/>
<path d="M8692 5468 c2 -13 10 -23 18 -23 8 0 16 10 18 23 3 17 -2 22 -18 22
-16 0 -21 -5 -18 -22z"/>
<path d="M8619 5464 c-10 -13 -10 -17 2 -25 22 -13 29 -11 29 10 0 27 -15 34
-31 15z"/>
<path d="M8307 5433 c4 -10 15 -31 25 -48 10 -16 18 -41 18 -55 0 -14 7 -34
15 -44 21 -27 20 -53 0 -36 -9 7 -15 8 -15 2 0 -5 13 -15 29 -20 16 -6 35 -20
41 -32 8 -14 17 -19 30 -15 14 5 17 2 13 -13 -2 -11 7 -35 21 -57 14 -21 26
-46 26 -56 0 -30 17 -31 23 -1 5 25 -26 102 -45 110 -5 2 -8 10 -8 18 0 20
-63 113 -76 113 -11 1 -25 24 -71 113 -17 32 -36 48 -26 21z m103 -176 c0 -5
-7 -4 -15 3 -8 7 -15 20 -15 29 1 13 3 13 15 -3 8 -11 15 -24 15 -29z m26 -44
c-7 -7 -26 7 -26 19 0 6 6 6 15 -2 9 -7 13 -15 11 -17z"/>
<path d="M420 5191 c-8 -5 -39 -14 -68 -20 -30 -6 -64 -18 -75 -27 -12 -9 -15
-14 -7 -12 8 3 57 16 108 29 50 13 92 27 92 31 0 10 -31 10 -50 -1z"/>
<path d="M3204 5158 c22 -31 20 -45 -10 -75 -28 -28 -20 -50 15 -38 22 7 51
52 51 79 0 13 -49 56 -65 56 -3 0 1 -10 9 -22z"/>
<path d="M398 5096 c-20 -7 -51 -16 -69 -20 -48 -9 -60 -23 -54 -65 4 -28 58
-483 80 -666 2 -16 7 -68 11 -115 7 -79 8 -103 12 -202 2 -36 4 -38 35 -37 35
0 175 24 181 30 4 4 -39 411 -49 467 -3 18 -13 36 -21 39 -17 6 -19 33 -3 33
15 0 8 90 -36 455 -13 105 -15 107 -87 81z m27 -576 c0 -22 -32 -37 -47 -22
-11 11 -9 16 7 28 22 16 40 14 40 -6z"/>
<path d="M3130 5041 c0 -6 4 -11 9 -11 5 0 12 -8 15 -17 3 -11 4 -8 3 6 -2 24
-27 44 -27 22z"/>
<path d="M3090 5006 c0 -9 30 -14 35 -6 4 6 -3 10 -14 10 -12 0 -21 -2 -21 -4z"/>
<path d="M486 3971 c-44 -10 -82 -23 -84 -31 -5 -14 8 -133 43 -405 35 -261
47 -369 45 -380 -4 -19 0 -36 8 -32 4 3 30 8 58 11 50 5 52 5 57 -21 3 -15 1
-37 -4 -50 -7 -20 -15 -23 -65 -23 l-56 0 5 -32 c15 -83 72 -566 82 -688 12
-146 7 -137 70 -132 l55 4 15 -36 c10 -23 24 -38 40 -42 55 -14 66 13 45 113
-5 26 -14 93 -19 148 -21 215 -71 653 -82 705 -13 65 -30 110 -43 110 -5 0
-14 -8 -21 -17 -11 -15 -15 -15 -29 -4 -20 17 -21 45 -1 61 12 10 16 9 21 -4
9 -24 24 -19 24 8 0 14 4 28 10 31 5 3 2 21 -10 43 -22 43 -41 262 -22 262 17
0 20 23 11 80 -5 30 -13 100 -19 155 -17 167 -20 185 -39 184 -9 -1 -52 -9
-95 -18z m54 -362 c0 -11 -4 -17 -10 -14 -5 3 -10 13 -10 21 0 8 5 14 10 14 6
0 10 -9 10 -21z m40 -69 c0 -6 -7 -13 -15 -16 -8 -4 -12 -10 -9 -15 3 -5 10
-7 15 -4 5 4 9 -8 9 -25 0 -21 4 -29 12 -24 8 5 9 -1 6 -22 -4 -16 -2 -51 2
-79 8 -53 3 -76 -11 -54 -6 9 -9 1 -9 -23 0 -21 -4 -38 -9 -38 -15 0 -32 64
-31 112 1 23 -3 75 -8 113 -5 39 -7 73 -5 78 6 11 53 8 53 -3z m-23 -366 c-3
-3 -12 -4 -19 -1 -8 3 -5 6 6 6 11 1 17 -2 13 -5z"/>
<path d="M1158 3893 c-37 -6 -35 -17 7 -43 46 -28 81 -24 77 9 -1 14 -3 26 -5
27 -6 7 -55 11 -79 7z"/>
<path d="M4400 3890 c0 -5 12 -10 28 -10 21 0 24 2 12 10 -20 13 -40 13 -40 0z"/>
<path d="M5203 3673 c9 -2 25 -2 35 0 9 3 1 5 -18 5 -19 0 -27 -2 -17 -5z"/>
<path d="M531 3091 c-53 -9 -52 -30 1 -24 49 6 56 10 42 21 -5 5 -24 6 -43 3z"/>
<path d="M8690 3011 c0 -5 7 -15 17 -22 15 -13 15 -12 4 9 -12 23 -21 28 -21
13z"/>
<path d="M9203 2568 c-23 -29 -24 -38 -6 -38 10 0 23 11 30 25 9 20 8 25 -2
25 -7 0 -17 -6 -22 -12z"/>
<path d="M9116 2523 c-6 -14 -5 -15 5 -6 7 7 10 15 7 18 -3 3 -9 -2 -12 -12z"/>
<path d="M9156 2375 c-3 -8 -1 -15 4 -15 6 0 10 7 10 15 0 8 -2 15 -4 15 -2 0
-6 -7 -10 -15z"/>
<path d="M9264 2325 c-24 -18 -7 -19 26 0 16 9 19 14 9 15 -8 0 -24 -7 -35
-15z"/>
<path d="M322 2120 c-18 -4 -36 -10 -39 -13 -6 -7 15 -226 23 -239 11 -17 89
-5 97 15 4 12 -19 212 -28 235 -5 13 -6 13 -53 2z"/>
<path d="M0 1062 l0 -132 38 16 c20 9 43 18 50 21 10 4 12 15 7 37 -5 28 -12
69 -14 89 -1 4 -15 6 -32 5 -30 -3 -31 -1 -35 41 -8 86 -14 53 -14 -77z"/>
<path d="M575 1023 c-16 -2 -78 -15 -137 -29 -60 -13 -119 -21 -136 -18 -21 4
-44 -2 -83 -22 -50 -25 -77 -33 -181 -50 l-38 -7 0 -448 c0 -396 2 -448 15
-443 8 4 18 17 21 30 3 13 12 24 19 24 21 0 66 65 53 78 -6 6 -17 8 -24 5 -8
-3 -14 1 -14 10 0 22 19 31 26 13 8 -21 36 -21 32 0 -2 11 8 21 30 28 38 13
52 30 45 56 -3 12 2 20 16 25 11 3 23 14 26 24 3 10 35 45 72 77 36 32 87 80
113 107 25 26 53 47 62 47 17 0 42 26 51 53 4 10 11 16 17 12 5 -3 20 1 32 9
13 8 38 17 56 21 60 12 63 29 41 215 -11 91 -21 171 -24 178 -4 12 -30 13 -90
5z"/>
<path d="M8575 830 c-3 -5 -1 -10 4 -10 6 0 11 5 11 10 0 6 -2 10 -4 10 -3 0
-8 -4 -11 -10z"/>
<path d="M8611 774 c0 -11 3 -14 6 -6 3 7 2 16 -1 19 -3 4 -6 -2 -5 -13z"/>
<path d="M8550 756 c0 -7 6 -19 14 -25 18 -15 30 11 13 28 -15 15 -27 14 -27
-3z"/>
<path d="M6752 695 c0 -16 2 -22 5 -12 2 9 2 23 0 30 -3 6 -5 -1 -5 -18z"/>
<path d="M8560 610 c0 -5 5 -10 10 -10 6 0 10 5 10 10 0 6 -4 10 -10 10 -5 0
-10 -4 -10 -10z"/>
<path d="M3300 559 c0 -5 5 -7 10 -4 6 3 10 8 10 11 0 2 -4 4 -10 4 -5 0 -10
-5 -10 -11z"/>
<path d="M3270 552 c-8 -3 -26 -9 -40 -15 l-25 -10 25 -7 c18 -5 30 -1 44 12
20 21 19 28 -4 20z"/>
<path d="M3180 510 c0 -5 5 -10 10 -10 6 0 10 5 10 10 0 6 -4 10 -10 10 -5 0
-10 -4 -10 -10z"/>
<path d="M2695 200 c-3 -5 -1 -10 4 -10 6 0 11 5 11 10 0 6 -2 10 -4 10 -3 0
-8 -4 -11 -10z"/>
<path d="M8726 35 c8 -19 14 -19 14 0 0 8 -4 15 -10 15 -5 0 -7 -7 -4 -15z"/>
</g>
</svg>
