<svg xmlns="http://www.w3.org/2000/svg" xmlns:xlink="http://www.w3.org/1999/xlink" viewBox="0 0 1322.95 1000"><defs><style>.cls-1{isolation:isolate;}.cls-2,.cls-9{fill:#fff;}.cls-2,.cls-4,.cls-6{opacity:0.75;}.cls-19,.cls-2,.cls-4,.cls-6,.cls-7{mix-blend-mode:screen;}.cls-3,.cls-4{fill:url(#linear-gradient);}.cls-24,.cls-25,.cls-5{opacity:0.25;}.cls-22,.cls-24,.cls-25,.cls-5{mix-blend-mode:multiply;}.cls-5{fill:url(#linear-gradient-3);}.cls-6{fill:url(#linear-gradient-4);}.cls-7{fill:url(#linear-gradient-6);}.cls-8{fill:#fcedea;}.cls-10{fill:url(#_ÂÁ_Ï_ÌÌ_È_ËÂÌÚ_23);}.cls-11{fill:url(#_ÂÁ_Ï_ÌÌ_È_ËÂÌÚ_14);}.cls-12{fill:url(#_ÂÁ_Ï_ÌÌ_È_ËÂÌÚ_14-2);}.cls-13{fill:#171721;}.cls-14{fill:url(#_ÂÁ_Ï_ÌÌ_È_ËÂÌÚ_11);}.cls-15{fill:url(#_ÂÁ_Ï_ÌÌ_È_ËÂÌÚ_13);}.cls-16{fill:url(#linear-gradient-7);}.cls-17{fill:#f68895;}.cls-18{fill:#f17785;}.cls-19{opacity:0.5;}.cls-20{fill:url(#linear-gradient-8);}.cls-21{fill:url(#linear-gradient-9);}.cls-22{opacity:0.35;fill:url(#linear-gradient-10);}.cls-23{fill:url(#linear-gradient-11);}.cls-24{fill:url(#linear-gradient-12);}.cls-26{fill:url(#linear-gradient-13);}.cls-27{fill:#4a1c40;}.cls-28{fill:#f9dee4;}.cls-29{fill:url(#_ÂÁ_Ï_ÌÌ_È_ËÂÌÚ_29);}.cls-30{fill:url(#_ÂÁ_Ï_ÌÌ_È_ËÂÌÚ_14-3);}.cls-31{fill:url(#_ÂÁ_Ï_ÌÌ_È_ËÂÌÚ_14-4);}.cls-32{fill:url(#linear-gradient-14);}.cls-33{fill:#74a9b7;}</style><linearGradient id="linear-gradient" x1="1292.3" y1="1058.05" x2="-12.44" y2="68.52" gradientUnits="userSpaceOnUse"><stop offset="0" stop-color="#668bf4"/><stop offset="0.44" stop-color="#70b7de"/><stop offset="0.8" stop-color="#77d3d0"/><stop offset="1" stop-color="#79decb"/></linearGradient><linearGradient id="linear-gradient-3" x1="55.23" y1="506.99" x2="1170.97" y2="506.99" xlink:href="#linear-gradient"/><linearGradient id="linear-gradient-4" x1="1045.6" y1="897.45" x2="184.77" y2="263.42" xlink:href="#linear-gradient"/><linearGradient id="linear-gradient-6" x1="709.81" y1="987.47" x2="-29.39" y2="443.03" xlink:href="#linear-gradient"/><linearGradient id="_ÂÁ_Ï_ÌÌ_È_ËÂÌÚ_23" x1="600.13" y1="101.07" x2="633.11" y2="554.43" gradientUnits="userSpaceOnUse"><stop offset="0.11" stop-color="#fff"/><stop offset="0.14" stop-color="#ecf1fe"/><stop offset="0.22" stop-color="#c8d6fb"/><stop offset="0.3" stop-color="#aabef9"/><stop offset="0.38" stop-color="#91acf7"/><stop offset="0.48" stop-color="#7e9df6"/><stop offset="0.59" stop-color="#7093f5"/><stop offset="0.73" stop-color="#688df4"/><stop offset="1" stop-color="#668bf4"/></linearGradient><linearGradient id="_ÂÁ_Ï_ÌÌ_È_ËÂÌÚ_14" x1="485.25" y1="710.9" x2="588.35" y2="838.91" gradientTransform="translate(5.12 -51.46) rotate(-5.95)" gradientUnits="userSpaceOnUse"><stop offset="0" stop-color="#631de3"/><stop offset="0.2" stop-color="#8117e0"/><stop offset="0.57" stop-color="#b10ddc"/><stop offset="0.84" stop-color="#cf07da"/><stop offset="1" stop-color="#da05d9"/></linearGradient><linearGradient id="_ÂÁ_Ï_ÌÌ_È_ËÂÌÚ_14-2" x1="506.01" y1="762.42" x2="609.1" y2="890.42" gradientTransform="translate(-4.05 -71.51) rotate(-9.14)" xlink:href="#_ÂÁ_Ï_ÌÌ_È_ËÂÌÚ_14"/><linearGradient id="_ÂÁ_Ï_ÌÌ_È_ËÂÌÚ_11" x1="1001.94" y1="663.94" x2="1001.42" y2="704.37" gradientTransform="translate(-440.12 -1.79) rotate(-3.74)" gradientUnits="userSpaceOnUse"><stop offset="0" stop-color="#4a1c40"/><stop offset="0.1" stop-color="#4d1e44"/><stop offset="0.44" stop-color="#52234c"/><stop offset="1" stop-color="#54254f"/></linearGradient><linearGradient id="_ÂÁ_Ï_ÌÌ_È_ËÂÌÚ_13" x1="1041.23" y1="568.02" x2="1039.4" y2="712.65" gradientTransform="translate(-440.12 -1.79) rotate(-3.74)" gradientUnits="userSpaceOnUse"><stop offset="0" stop-color="#171721"/><stop offset="0.24" stop-color="#21202f"/><stop offset="0.53" stop-color="#272637"/><stop offset="1" stop-color="#29283a"/></linearGradient><linearGradient id="linear-gradient-7" x1="639.3" y1="551" x2="525.33" y2="403.33" gradientTransform="translate(10.91 -31.32) rotate(-3.74)" gradientUnits="userSpaceOnUse"><stop offset="0" stop-color="#c5205c"/><stop offset="1" stop-color="#fb446c"/></linearGradient><linearGradient id="linear-gradient-8" x1="614.84" y1="565.01" x2="538.66" y2="482.15" xlink:href="#linear-gradient-7"/><linearGradient id="linear-gradient-9" x1="591.05" y1="540.84" x2="564.35" y2="474.09" gradientTransform="translate(10.91 -31.32) rotate(-3.74)" gradientUnits="userSpaceOnUse"><stop offset="0" stop-color="#ff7a83"/><stop offset="0.09" stop-color="#ff8883"/><stop offset="0.33" stop-color="#fea984"/><stop offset="0.56" stop-color="#fec185"/><stop offset="0.78" stop-color="#fed085"/><stop offset="0.96" stop-color="#fed585"/></linearGradient><linearGradient id="linear-gradient-10" x1="587.35" y1="536.34" x2="570.26" y2="484.83" xlink:href="#linear-gradient-9"/><linearGradient id="linear-gradient-11" x1="576.35" y1="546.72" x2="549.65" y2="479.97" xlink:href="#linear-gradient-9"/><linearGradient id="linear-gradient-12" x1="564.76" y1="496.89" x2="578.86" y2="496.89" xlink:href="#linear-gradient-9"/><linearGradient id="linear-gradient-13" x1="598.11" y1="538.01" x2="571.42" y2="471.27" xlink:href="#linear-gradient-9"/><linearGradient id="_ÂÁ_Ï_ÌÌ_È_ËÂÌÚ_29" x1="1012.76" y1="451.6" x2="1040.71" y2="429.13" gradientTransform="translate(-440.12 -1.79) rotate(-3.74)" gradientUnits="userSpaceOnUse"><stop offset="0" stop-color="#4a1c40"/><stop offset="0.35" stop-color="#4f2047"/><stop offset="1" stop-color="#54254f"/></linearGradient><linearGradient id="_ÂÁ_Ï_ÌÌ_È_ËÂÌÚ_14-3" x1="648.89" y1="418.5" x2="626.79" y2="385.05" gradientTransform="translate(10.91 -31.32) rotate(-3.74)" xlink:href="#_ÂÁ_Ï_ÌÌ_È_ËÂÌÚ_14"/><linearGradient id="_ÂÁ_Ï_ÌÌ_È_ËÂÌÚ_14-4" x1="1008.84" y1="-1516.44" x2="983.16" y2="-1526.81" gradientTransform="matrix(0.39, 0.92, -0.92, 0.39, -1248.58, 23.88)" xlink:href="#_ÂÁ_Ï_ÌÌ_È_ËÂÌÚ_14"/><linearGradient id="linear-gradient-14" x1="629.63" y1="386.29" x2="588.82" y2="362.35" gradientTransform="matrix(1, 0, 0, 1, 0, 0)" xlink:href="#linear-gradient-7"/></defs><title>snowshoe</title><g class="cls-1"><g id="Layer_2" data-name="Layer 2"><g id="_ÎÓÈ_1" data-name="—ÎÓÈ_1"><rect class="cls-2" width="1322.95" height="1000"/></g><g id="_ÎÓÈ_2" data-name="—ÎÓÈ_2"><path class="cls-3" d="M1266,536.63c-3.09,12-9.7,21.55-18.34,29.64-27,25.25-73.61,36.75-94.76,69.33-18.17,28-13.09,64.23-14.08,98.29-.48,17-2.48,33.41-9.6,48a72.06,72.06,0,0,1-4.37,7.71,69.73,69.73,0,0,1-16,17.18c-11.77,9.05-26.27,14.69-41.58,17.63a153.61,153.61,0,0,1-40.84,2c-36.68-2.91-72.49-14.83-109.29-14.55-32.6.25-63.74,9.93-94.43,22.21-57.87,23.15-114.11,55.5-175.42,51.12-78-5.56-142.51-69.71-220.49-75.24-51.89-3.69-101.58,19.18-152.74,28.63A186.93,186.93,0,0,1,213.6,840c-32.73-4.89-62.44-19.82-76.65-48.83a87.48,87.48,0,0,1-8.21-29.24,129.23,129.23,0,0,1-.75-14.37c0-25.68,6.28-52.69,7.16-79.08A132.52,132.52,0,0,0,133,638.14a115.28,115.28,0,0,0-6.91-22.2c-6.86-16.36-16.94-31.49-27.32-46.39-4.75-6.83-9.57-13.61-14.18-20.44-3.73-5.53-7.37-11.3-10.74-17.23a162.28,162.28,0,0,1-14-31.27c-4.79-15.31-6.4-31.12-2.5-46.72,9.37-37.48,47.18-60.41,83.73-72.91,19.45-6.65,39.78-11.68,59.2-18.44,17-5.91,33.27-13.14,47.65-23.9l.29-.22c22.45-16.92,38.53-41.34,54.73-65.17,19.75-29,39.68-57.17,71.54-69.77,35.72-14.11,75.71-3.9,114-1.31,85.13,5.75,191.91-61.73,277.83-39.06a120.1,120.1,0,0,1,43,21.13c22.46,17.23,39.64,42,61.46,59.27a94.88,94.88,0,0,0,26.55,15.28c19.38,7,40.07,6,60.78,3.17,10.26-1.39,20.52-3.2,30.62-4.66,25.72-3.71,54.62-4,76.11,9.05a59.08,59.08,0,0,1,11.16,8.75c16.42,16.45,20.53,40,25.87,63.18.35,1.51.7,3,1.06,4.51,2.7,11.18,5.88,22.17,11.1,32.12.29.57.6,1.13.91,1.69,12.23,22.07,33.32,36.11,55.89,48.45,12.32,6.74,25.08,13,37.08,19.73,27.78,15.64,55.35,41.82,59.21,71.48A53.29,53.29,0,0,1,1266,536.63Z"/><path class="cls-4" d="M1266,536.63c-3.09,12-9.7,21.55-18.34,29.64-27,25.25-73.61,36.75-94.76,69.33-18.17,28-13.09,64.23-14.08,98.29-.48,17-2.48,33.41-9.6,48a72.06,72.06,0,0,1-4.37,7.71,69.73,69.73,0,0,1-16,17.18c-11.77,9.05-26.27,14.69-41.58,17.63a153.61,153.61,0,0,1-40.84,2c-36.68-2.91-72.49-14.83-109.29-14.55-32.6.25-63.74,9.93-94.43,22.21-57.87,23.15-114.11,55.5-175.42,51.12-78-5.56-142.51-69.71-220.49-75.24-51.89-3.69-101.58,19.18-152.74,28.63A186.93,186.93,0,0,1,213.6,840c-32.73-4.89-62.44-19.82-76.65-48.83a87.48,87.48,0,0,1-8.21-29.24,129.23,129.23,0,0,1-.75-14.37c0-25.68,6.28-52.69,7.16-79.08A132.52,132.52,0,0,0,133,638.14a115.28,115.28,0,0,0-6.91-22.2c-6.86-16.36-16.94-31.49-27.32-46.39-4.75-6.83-9.57-13.61-14.18-20.44-3.73-5.53-7.37-11.3-10.74-17.23a162.28,162.28,0,0,1-14-31.27c-4.79-15.31-6.4-31.12-2.5-46.72,9.37-37.48,47.18-60.41,83.73-72.91,19.45-6.65,39.78-11.68,59.2-18.44,17-5.91,33.27-13.14,47.65-23.9l.29-.22c22.45-16.92,38.53-41.34,54.73-65.17,19.75-29,39.68-57.17,71.54-69.77,35.72-14.11,75.71-3.9,114-1.31,85.13,5.75,191.91-61.73,277.83-39.06a120.1,120.1,0,0,1,43,21.13c22.46,17.23,39.64,42,61.46,59.27a94.88,94.88,0,0,0,26.55,15.28c19.38,7,40.07,6,60.78,3.17,10.26-1.39,20.52-3.2,30.62-4.66,25.72-3.71,54.62-4,76.11,9.05a59.08,59.08,0,0,1,11.16,8.75c16.42,16.45,20.53,40,25.87,63.18.35,1.51.7,3,1.06,4.51,2.7,11.18,5.88,22.17,11.1,32.12.29.57.6,1.13.91,1.69,12.23,22.07,33.32,36.11,55.89,48.45,12.32,6.74,25.08,13,37.08,19.73,27.78,15.64,55.35,41.82,59.21,71.48A53.29,53.29,0,0,1,1266,536.63Z"/><path class="cls-5" d="M1171,425.05c-107.16,13.05-202.46,45.76-284.51,82.32-30.1,13.41-59,27.45-87.69,41.59l-7.8,3.85-3.74,1.85-10.6,5.24-12.45,6.16-5.77,2.84-3.13,1.54-3.65,1.79-3.1,1.52-3.09,1.52-3.9,1.9-3.9,1.9-3.9,1.9L728,583.74l-4,1.94-6.23,3-3.64,1.73-2.24,1.06L708,593.3l-.59.28-4.35,2-3.85,1.79c-1,.5-2.11,1-3.16,1.47l-.47.22-1.41.65-2.56,1.18q-5.13,2.36-10.3,4.7l-5.12,2.29-3.53,1.58-.71.31c-1.78.8-3.58,1.59-5.37,2.37L664,613.28l-1.34.58-1.78.77-2,.89-3.62,1.56-.89.38-1.57.67-.32.13-.13,0-.52.23-.6.25-1.48.63h0l-1,.44-.19.08L646,621l-2.51,1-5.35,2.21,0,0-2.81,1.15-3.18,1.29-2.28.93c-2.53,1-5.06,2-7.61,3l-4.54,1.78L614,633.9l-3.2,1.23-3.26,1.24C506,674.84,376.32,703.28,250,690.67c-41.07-4.1-78.76-12.15-114.81-22.18A132.52,132.52,0,0,0,133,638.14a115.28,115.28,0,0,0-6.91-22.2c-6.86-16.36-16.94-31.49-27.32-46.39-4.75-6.83-9.57-13.61-14.18-20.44-3.73-5.53-7.37-11.3-10.74-17.23a162.28,162.28,0,0,1-14-31.27c-4.79-15.31-6.4-31.12-2.5-46.72,9.37-37.48,47.18-60.41,83.73-72.91,19.45-6.65,39.78-11.68,59.2-18.44q3.12,4,6.14,8,60,79,120.1,158c26,34.15,58.05,71.7,106.54,77,30.08,3.29,60.43-7.27,83.92-23.09s41.24-36.52,58.69-57l124.4-145.7c24.69-28.91,56.82-61,99.69-59.47,35.76,1.3,63.08,26,84.22,49.79s43.37,50.3,77.78,58.44c44.67,10.57,89.33-14,126.26-37.24l26.08-16.41c.29.57.6,1.13.91,1.69C1127.31,398.67,1148.4,412.71,1171,425.05Z"/><path class="cls-6" d="M1267.26,516.26c-3.86-29.66-31.43-55.84-59.21-71.48-12-6.76-24.76-13-37.08-19.73-107.16,13.05-202.46,45.76-284.51,82.32-30.1,13.41-59,27.45-87.69,41.59l-7.8,3.85-3.74,1.85-10.6,5.24-12.45,6.16-5.77,2.84-3.13,1.54-3.65,1.79-3.1,1.52-7,3.42-3.9,1.9-3.9,1.9L728,583.74l-4,1.94-6.23,3-3.64,1.73-2.24,1.06L708,593.3l-.59.28-4.35,2-3.85,1.79c-1,.5-2.11,1-3.16,1.47l-.47.22-1.41.65-2.56,1.18q-5.13,2.36-10.3,4.7l-5.12,2.29-3.53,1.58-.71.31c-1.78.8-3.58,1.59-5.37,2.37L664,613.28l-1.34.58-1.78.77-2,.89-3.62,1.56-.89.38-1.57.67-.32.13-.13,0-.52.23-.6.25-1.48.63h0l-1,.44-.19.08L646,621l-2.51,1-5.35,2.21,0,0-2.81,1.15-3.18,1.29-2.28.93c-2.53,1-5.06,2-7.61,3l-4.54,1.78L614,633.9l-3.2,1.23-3.26,1.24C506,674.84,376.32,703.28,250,690.67c-41.07-4.1-78.76-12.15-114.81-22.18-.88,26.39-7.17,53.4-7.16,79.08a129.23,129.23,0,0,0,.75,14.37A87.48,87.48,0,0,0,137,791.18c14.21,29,43.92,43.94,76.65,48.83a186.93,186.93,0,0,0,60.49-1.36c11.52-2.13,23-4.94,34.39-8,2.56-.68,5.13-1.38,7.7-2.08,13.14-3.58,26.24-7.32,39.38-10.53,15.81-3.86,31.68-6.94,47.7-8a170.08,170.08,0,0,1,23.57,0c78,5.53,142.5,69.68,220.49,75.24,1.44.11,2.88.19,4.31.25s2.78.11,4.17.13h.05l2.37,0c2.37,0,4.73,0,7.08-.14l1.33-.06c2.21-.1,4.42-.25,6.61-.44l1.32-.12c1.32-.12,2.64-.26,4-.41l1.31-.16c1.76-.21,3.5-.45,5.25-.71q3.27-.5,6.52-1.09l2.6-.5,1.3-.26,1.3-.26.12,0,2.47-.53h0q2.52-.56,5-1.17l.12,0c2.05-.49,4.09-1,6.13-1.57l.32-.09c.86-.24,1.72-.47,2.57-.72l1.29-.36,1.28-.37,1.28-.38c.86-.25,1.72-.51,2.57-.78l1.28-.39,3.84-1.23,1.28-.41c1.7-.57,3.41-1.14,5.11-1.73l1.23-.42,1.54-.55,2.22-.79,1.49-.54,2.11-.78c2.25-.83,4.5-1.69,6.75-2.56,1.67-.65,3.33-1.3,5-2l2.53-1,2.87-1.17,2.2-.9,5.46-2.27,2.13-.9,2.53-1.07,2.53-1.08,2.53-1.08,5-2.18,5.06-2.2,1.14-.49,3.91-1.7,1-.43,4.9-2.13c7.36-3.18,14.72-6.34,22.12-9.36l4.94-2,4.27-1.69a343,343,0,0,1,47-15.1q6.3-1.47,12.65-2.58a186.34,186.34,0,0,1,30.46-2.84c36.8-.28,72.61,11.64,109.29,14.55a153.61,153.61,0,0,0,40.84-2c15.31-2.94,29.81-8.58,41.58-17.63a69.73,69.73,0,0,0,16-17.18,72.06,72.06,0,0,0,4.37-7.71c7.12-14.62,9.12-31.06,9.6-48,1-34.06-4.09-70.27,14.08-98.29,21.15-32.58,67.81-44.08,94.76-69.33,8.64-8.09,15.25-17.59,18.34-29.64A53.29,53.29,0,0,0,1267.26,516.26Z"/><path class="cls-6" d="M1267.26,516.26c-3.86-29.66-31.43-55.84-59.21-71.48-12-6.76-24.76-13-37.08-19.73-107.16,13.05-202.46,45.76-284.51,82.32-30.1,13.41-59,27.45-87.69,41.59l-7.8,3.85-3.74,1.85-10.6,5.24-12.45,6.16-1.89.93-3.88,1.91-3.13,1.54-3.65,1.79-3.1,1.52-7,3.42-3.9,1.9-3.9,1.9L728,583.74l-4,1.94-6.23,3-3.64,1.73-2.24,1.06-1.83.87-2.07,1-.59.28-4.35,2-3.85,1.79c-1,.5-2.11,1-3.16,1.47l-.47.22-1.41.65-2.56,1.18q-5.13,2.36-10.3,4.7l-5.12,2.29-3.53,1.58-.71.31c-1.78.8-3.58,1.59-5.37,2.37L664,613.28l-.53.23-.81.35-1.78.77-2,.89-3.62,1.56-.89.38-1.57.67-.32.13-.13,0-.52.23-.6.25-1.48.63h0l-1,.44-.19.08L646,621l-2.51,1-5.35,2.21,0,0-2.81,1.15-3.18,1.29-2.28.93c-2.53,1-5.06,2-7.61,3l-2.46,1-.65.26-1.43.55L614,633.9l-3.2,1.23-3.26,1.24C506,674.84,376.32,703.28,250,690.67c-41.07-4.1-78.76-12.15-114.81-22.18-.88,26.39-7.17,53.4-7.16,79.08a129.23,129.23,0,0,0,.75,14.37A87.48,87.48,0,0,0,137,791.18c14.21,29,43.92,43.94,76.65,48.83a186.93,186.93,0,0,0,60.49-1.36c11.52-2.13,23-4.94,34.39-8,2.56-.68,5.13-1.38,7.7-2.08,13.14-3.58,26.24-7.32,39.38-10.53,15.81-3.86,31.68-6.94,47.7-8a170.08,170.08,0,0,1,23.57,0c78,5.53,142.5,69.68,220.49,75.24,1.44.11,2.88.19,4.31.25s2.78.11,4.17.13h.05l2.37,0c2.37,0,4.73,0,7.08-.14l1.33-.06c2.21-.1,4.42-.25,6.61-.44l1.32-.12c1.32-.12,2.64-.26,4-.41l1.31-.16c1.76-.21,3.5-.45,5.25-.71q3.27-.5,6.52-1.09l2.6-.5,1.3-.26,1.3-.26.12,0,2.47-.53h0q2.52-.56,5-1.17l.12,0c2.05-.49,4.09-1,6.13-1.57l.32-.09c.86-.24,1.72-.47,2.57-.72l1.29-.36,1.28-.37,1.28-.38c.86-.25,1.72-.51,2.57-.78l1.28-.39,3.84-1.23,1.28-.41c1.7-.57,3.41-1.14,5.11-1.73l1.23-.42,1.54-.55,2.22-.79,1.49-.54,2.11-.78c2.25-.83,4.5-1.69,6.75-2.56,1.67-.65,3.33-1.3,5-2l2.53-1,2.87-1.17,2.2-.9,5.46-2.27,2.13-.9,2.53-1.07,2.53-1.08,2.53-1.08,5-2.18,5.06-2.2,1.14-.49,3.91-1.7,1-.43,4.9-2.13c7.36-3.18,14.72-6.34,22.12-9.36l4.94-2,4.27-1.69a343,343,0,0,1,47-15.1q6.3-1.47,12.65-2.58a186.34,186.34,0,0,1,30.46-2.84c36.8-.28,72.61,11.64,109.29,14.55a153.61,153.61,0,0,0,40.84-2c15.31-2.94,29.81-8.58,41.58-17.63a69.73,69.73,0,0,0,16-17.18,72.06,72.06,0,0,0,4.37-7.71c7.12-14.62,9.12-31.06,9.6-48,1-34.06-4.09-70.27,14.08-98.29,21.15-32.58,67.81-44.08,94.76-69.33,8.64-8.09,15.25-17.59,18.34-29.64A53.29,53.29,0,0,0,1267.26,516.26Z"/><path class="cls-7" d="M822.74,834.14l-4.94,2c-7.4,3-14.76,6.18-22.12,9.36l-4.9,2.13-1,.43-3.91,1.7-1.14.49-5.06,2.2-5,2.18-2.53,1.08-2.53,1.08L767,857.86l-2.13.9L759.45,861l-2.2.9-2.87,1.17-2.53,1c-1.67.67-3.33,1.32-5,2-2.25.87-4.5,1.73-6.75,2.56l-2.11.78-1.49.54-2.22.79-1.54.55-1.23.42c-1.7.59-3.41,1.16-5.11,1.73l-1.28.41-3.84,1.23-1.28.39c-.85.27-1.71.53-2.57.78l-1.28.38-1.28.37-1.29.36c-.85.25-1.71.48-2.57.72l-.32.09c-2,.54-4.08,1.07-6.13,1.57l-.12,0q-2.51.62-5,1.17h0l-2.47.53-.12,0-1.3.26-1.3.26-2.6.5c-2.17.39-4.34.76-6.52,1.09-1.75.26-3.49.49-5.25.71l-1.31.16c-1.32.15-2.63.29-4,.41l-1.32.12c-2.19.19-4.4.33-6.61.44l-1.33.06c-3.13.13-6.29.17-9.45.11h-.05c-1.39,0-2.77-.07-4.17-.13s-2.87-.14-4.31-.25c-78-5.56-142.51-69.71-220.49-75.24a170.08,170.08,0,0,0-23.57,0c-16,1.09-31.89,4.17-47.7,8-13.14,3.21-26.24,6.95-39.38,10.53-2.57.7-5.14,1.4-7.7,2.08-11.42,3-22.87,5.84-34.39,8A186.93,186.93,0,0,1,213.6,840c-32.73-4.89-62.44-19.82-76.65-48.83a87.48,87.48,0,0,1-8.21-29.24,129.23,129.23,0,0,1-.75-14.37,1021.67,1021.67,0,0,1,121.7-20.94l4.52-.47a846,846,0,0,1,101-4.42q22.35.39,44.28,2c3,.21,6,.45,9,.7,94.11,7.77,182.12,30.8,261.85,57,49.59,16.26,97.38,33.93,146.3,50.68Z"/><polygon class="cls-8" points="750.37 446.19 435.15 488.23 435.15 446.19 750.37 405.85 750.37 446.19"/><polygon class="cls-9" points="435.15 537.27 491.88 573.18 822.45 515.86 752.19 493.47 494.37 529.09 488.64 529.88 435.15 537.27"/><path class="cls-10" d="M429.43,423.07V540.45l61.49,38.32,337.25-58.1V450.06L756.09,428.6V382l-42.91,5.39v-132a33.83,33.83,0,0,0-37-33.7l-80.55,7.56V100.36H589.9V229.79l-89.45,8.39a33.72,33.72,0,0,0-30.69,33.7V418Zm278-34.94-232,29.15V271.88a28,28,0,0,1,25.49-28l88.92-8.34,5.72-.54,81.09-7.61a28.1,28.1,0,0,1,30.75,28Zm-272.31,86.8,53.49,16.28v79.4l-53.49-33.34Zm0-46.82,34.61-4.35,5.73-.72L750.37,388.5V493.72l1.82-.25,3.9,1.24V434.58l66.36,19.75v61.53L494.36,572.37V487l-59.21-18Z"/><path class="cls-11" d="M618.88,709.5c5,8.61,10.57,17.14,17.89,22.5s16.79,6.92,23.59,1.4c7.07-5.73,9.57-17.91,7.66-28.6s-7.49-20-13.86-27.71S640.56,663,634,655.53a136.32,136.32,0,0,1-23.75-39.4c-2.88-7.26-5.27-14.93-9.25-21.36s-10-11.58-16.3-11c-20.27,1.71-.92,45.12,3.23,57.43A371.44,371.44,0,0,0,618.88,709.5Z"/><path class="cls-12" d="M679.8,701.68c5.5,8.32,11.51,16.52,19.11,21.46s17.16,6,23.64.09c6.73-6.11,8.56-18.41,6.05-29s-8.59-19.57-15.38-26.89S698.85,654,691.91,647a136.46,136.46,0,0,1-25.9-38c-3.29-7.1-6.1-14.62-10.44-20.82s-10.66-11-16.89-10.13c-20.14,2.85,1.6,45.11,6.43,57.17A371.67,371.67,0,0,0,679.8,701.68Z"/><path class="cls-13" d="M665.42,650.26a16.93,16.93,0,0,0-2.48,4.48,11.52,11.52,0,0,0-.62,2.59,27.78,27.78,0,0,1-3.9-4.87,28.71,28.71,0,0,1-3.67-21.58c7-1.73,14.92-2.07,21.76.17-1.54,3.6.12,7.82,2.58,10.87.28.36.58.71.89,1.05a16.86,16.86,0,0,0-4.05.48,18.73,18.73,0,0,0-10.51,6.81Z"/><path class="cls-13" d="M688.68,661.48c-2.33,3.94-7.86,4.52-12.34,3.54a28.57,28.57,0,0,1-12.28-6.11c.55-.54,1.22-1.41,2.06-2.42a30.15,30.15,0,0,1,6.76-6.24,29.79,29.79,0,0,1,8.45-3.62l1.76-.48a35.84,35.84,0,0,1,4,4.37C689.39,653.67,690.67,658.11,688.68,661.48Z"/><path class="cls-13" d="M605,653.22a16.38,16.38,0,0,0-2.48,4.48,12.13,12.13,0,0,0-.49,1.78,28.22,28.22,0,0,1-4.39-7.42,28.77,28.77,0,0,1,.39-21.89c7.19-.41,15,.72,21.36,4.19-2.18,3.26-1.33,7.71.52,11.17.07.14.15.28.23.42a16.74,16.74,0,0,0-4.64.46,19.27,19.27,0,0,0-5.83,2.5A18.92,18.92,0,0,0,605,653.22Z"/><path class="cls-13" d="M625.69,666.53c-3,3.44-8.56,3-12.77,1.19a28.16,28.16,0,0,1-9-6.14c.49-.54,1.07-1.28,1.77-2.13a27.33,27.33,0,0,1,15.22-9.86l1.32-.36a48.25,48.25,0,0,1,3.94,6.22C627.83,659,628.27,663.59,625.69,666.53Z"/><path class="cls-14" d="M611.09,627.42c.4,1.39.8,2.8,1.22,4.23a34.15,34.15,0,0,1-7.19,2.3,36.39,36.39,0,0,1-6.85.77c.19-.59.39-1.19.58-1.79-.39-.1-.77-.21-1.16-.33,2.26-14.52,3.87-26.91,4.81-38.79C604.72,604.28,607.54,615.1,611.09,627.42Z"/><path class="cls-15" d="M694.66,550.56q-.88,12.9-2.38,25.74c-3.16,27.49-7.58,29.41-14.67,56.15-6.56,3.14-15,3.86-22.39,2.36a33.25,33.25,0,0,1-3.37-.87c6.67-40,6.77-55.91,3.41-96.3-5.92-1-11.94-1.76-18-2.24a99.77,99.77,0,0,1,0,18.29q-.9,12.9-2.38,25.75c-3.16,27.48-7.59,29.41-14.68,56.15-.39.18-.78.36-1.19.52a37.59,37.59,0,0,1-23.36,1.32l-1.2-.35c2.5-15.05,4.31-27.89,5.42-40.21,1.83-20.43.08-30.9-2-56.1-26.3-8.58-15.7-41.88-15.7-41.88,2.93-1.59,5.93-3.09,8.91-4.6l0,0,1.06,0,1.06-.07,0,0c9-.46,18.38-1.25,27.59-1.9,10-.39,20.09-.62,29.79-1.26,8,3,16.09,6,23.37,10.5s13.8,10.59,17.39,18.35C695.74,529.31,695.39,540.18,694.66,550.56Z"/><path class="cls-16" d="M693.67,389.13a9.57,9.57,0,0,1-2.38,7.57l-1.66,1.85-2.39,2.66c-.8.88-1.64,1.7-2.45,2.54s-1.65,1.66-2.49,2.45-1.66,1.6-2.51,2.34l-2.54,2.21q-1.28,1.08-2.55,2.1c-.84.69-1.73,1.29-2.57,1.95l-1.27.95-1.29.9c-1.72,1.17-3.43,2.26-5.11,3.26-.84.51-1.7,1-2.54,1.4s-1.66.9-2.49,1.3c-1.07.49-2.12,1-3.15,1.38v0c6.53,37.77,3,67.22,2.61,69.88l0,.2a96.58,96.58,0,0,1-28.43,8.82c-1.55.23-3.09.42-4.64.57-1,.09-2,.18-3,.25-12,.78-27-.51-38.94-4.28h0c-.38-.12-1.68-.19-2.06-.31h0L577,436.49l-1-.23c-.95-.24-1.9-.52-2.87-.81s-2-.56-2.95-.92q-3-1-6-2.29l-1.54-.65-1.52-.72c-1-.51-2.08-.94-3.1-1.47s-2.07-1.07-3.11-1.63L551.8,426c-1-.57-2.09-1.22-3.12-1.87s-2.08-1.31-3.12-2-2.08-1.35-3.1-2.09l-3.08-2.23-2.3-1.67a9.2,9.2,0,0,1-3.76-6.58h0c-.09-.92-.17-1.84-.26-2.77s-.17-1.86-.22-2.8c-.15-2.59-.3-5.13-.41-7.63-.07-1.25-.09-2.49-.12-3.72s-.08-2.44-.09-3.64,0-2.39-.05-3.57,0-2.34,0-3.49c0-2.29,0-4.54.06-6.73s.07-4.31.17-6.37.12-4.07.26-6c.07-1,.1-1.92.15-2.85s.13-1.84.2-2.74.14-1.77.21-2.63.17-1.7.25-2.51c.22-.24.42-.45.65-.68a41.51,41.51,0,0,1,12.49.06c0,.2,0,.41.07.61.18,1.56.33,3.18.56,4.88s.4,3.45.67,5.27.53,3.69.82,5.62l1,5.92c.42,2,.81,4.09,1.28,6.18s1,4.22,1.53,6.37c.25,1.08.54,2.16.86,3.24s.61,2.18,1,3.27.71,2.38,1.06,3.59l.91.95,1.4.49c.92.35,1.88.6,2.82.88s1.86.57,2.78.81,1.83.53,2.74.74l2.69.65c.44.12.88.22,1.32.31s.88.21,1.32.29l1.29.29,1.28.26,2.49.54c.83.14,1.64.3,2.43.46,1.58.36,3.14.62,4.62.95s2.9.67,4.28,1c.68.15,1.35.33,2,.52s1.3.34,1.92.54,1.23.39,1.82.61,1.17.4,1.73.63,1.11.46,1.64.72,1,.48,1.54.75.89.5,1.31.77c1-.18,1.91-.31,2.7-.42l.22,0c.74-.1,1.37-.18,1.87-.23.94-.1,1.45-.12,1.45-.12l10.64,2,.45-.15,4.38-1.45,5.45-1.79s.81-.07,2.27-.08h0l0-.07a21.57,21.57,0,0,1,3.93-4.57c.39-.36.81-.68,1.24-1s.88-.69,1.34-1,1-.64,1.45-1,1-.67,1.53-1,1.08-.61,1.63-.95,1.12-.65,1.7-1c1.19-.6,2.39-1.28,3.68-1.9s2.6-1.28,4-2l2.1-1,2.13-1.08,1.09-.54,1.1-.57,1.11-.58c.38-.19.76-.38,1.13-.59.74-.41,1.5-.82,2.28-1.22s1.52-.87,2.29-1.32,1.55-.91,2.33-1.38,1.59-.92,2.35-1.45c.42-.29.86-.57,1.3-.85,0-.24,0-.48.06-.71,0-1.08.1-2.15.16-3.21s.1-2.12.14-3.18.09-2.09.09-3.14c0-2.07.07-4.12,0-6.13s-.09-4-.13-5.91-.19-3.81-.28-5.64-.25-3.6-.39-5.31-.29-3.37-.43-5-.31-3.13-.44-4.59-.28-2.87-.39-4.19l-.07-.72A46.89,46.89,0,0,1,679,330.8c.2.47.4.95.61,1.43.27.66.54,1.32.81,2s.52,1.4.8,2.13l.81,2.25.79,2.36c.27.81.55,1.63.81,2.47l.79,2.57c.55,1.75,1,3.57,1.57,5.45s1,3.82,1.55,5.82,1.05,4.06,1.51,6.18c.23,1.06.5,2.13.74,3.21s.47,2.18.71,3.29.43,2.24.67,3.37.47,2.28.67,3.44q.6,3.5,1.17,7.12c.14.87.24,1.75.35,2.62s.21,1.74.32,2.61Z"/><path class="cls-17" d="M612,415.39a12.94,12.94,0,0,0,9-.11,21.14,21.14,0,0,0,7.59-5.13,31,31,0,0,1-3.49-5.24c-.18-.33-.35-.68-.51-1a23.84,23.84,0,0,1-1.68-4.61A39.35,39.35,0,0,1,607,391.93a34.6,34.6,0,0,1,0,12.91.11.11,0,0,1,0,.08,33.39,33.39,0,0,1-1,3.94C605.09,411.8,609.13,414.27,612,415.39Z"/><path class="cls-18" d="M606.94,404.88l.07,0a16.73,16.73,0,0,0,5.35,1.92l.67.1a14.71,14.71,0,0,0,2.3.12,16.07,16.07,0,0,0,8.29-2.51c.34-.21.67-.43,1-.67a23.84,23.84,0,0,1-1.68-4.61A39.35,39.35,0,0,1,607,391.93a34.6,34.6,0,0,1,0,12.91Z"/><g class="cls-19"><path class="cls-20" d="M630.42,502.91c-1.55.23-3.09.42-4.64.57a290.1,290.1,0,0,0-8.68-92.82l4.38-1.45A294.84,294.84,0,0,1,630.42,502.91Z"/></g><path class="cls-21" d="M636.35,462.32a43.93,43.93,0,0,1-12.76,1.95,38.7,38.7,0,0,1-8.64-.94,139.86,139.86,0,0,0,.15-46.68c3.91-.45,8.5-1.55,11.72-3.82A111.71,111.71,0,0,1,631,423.9,114.51,114.51,0,0,1,636.35,462.32Z"/><path class="cls-22" d="M631,423.9a101.11,101.11,0,0,0-7.4,40.37,38.7,38.7,0,0,1-8.64-.94,139.86,139.86,0,0,0,.15-46.68c3.91-.45,8.5-1.55,11.72-3.82A111.71,111.71,0,0,1,631,423.9Z"/><path class="cls-23" d="M621.58,440.3c.35,12.9.09,25.82-.74,38.66a35,35,0,0,1-28.18-3.89,112,112,0,0,0,13.75-55.37c0-1.87-.1-3.74-.22-5.61,4.43-.44,9.38,0,13.82-.45Q621.24,426.92,621.58,440.3Z"/><path class="cls-24" d="M621.58,440.3a32.88,32.88,0,0,0-15.17-20.6c0-1.87-.1-3.74-.22-5.61,4.43-.44,9.38,0,13.82-.45Q621.24,426.92,621.58,440.3Z"/><g class="cls-25"><path class="cls-13" d="M656.39,634l-1.17.85a33.25,33.25,0,0,1-3.37-.87c6.67-40,6.77-55.91,3.41-96.3-5.92-1-11.94-1.76-18-2.24-.34,0-.81-1.73-1.87-4.42a32.49,32.49,0,0,0-5.6-9.56,22.93,22.93,0,0,0-4.51-4,27.09,27.09,0,0,0-4.37-2.37c-2.65-1.1-4.44-1.55-4.39-1.92s2-.47,5,.27a20.44,20.44,0,0,1,2.62.9c.73.1,24.21,3.4,39.61,12.56C663.7,526.88,674.65,575.25,656.39,634Z"/></g><path class="cls-26" d="M627.43,417.2A23.62,23.62,0,0,1,608,418.49a12.63,12.63,0,0,1-6.35-4.7c-1.44-2.26-1.67-5.43,0-7.54.94-1.19,2.41-2,2.83-3.5.25-.85.08-1.78.37-2.62s2.14-1,2.74-.39a16,16,0,0,0,.4,2.69,6.13,6.13,0,0,0,2.63,3.78h0a9.26,9.26,0,0,0,7.52.72c2.49-.73,5.4-1.53,6.87-3.67a2.22,2.22,0,0,1,3-.28,6.51,6.51,0,0,1,1.93,2.7c.42.9.86,1.8,1.29,2.7a8.28,8.28,0,0,1,.77,2.08C632.53,413.33,630,415.81,627.43,417.2Z"/><path class="cls-27" d="M624.9,372a17.34,17.34,0,0,1-1.37,12A13.24,13.24,0,0,1,624.9,372Z"/><path class="cls-17" d="M606.27,389.92c0,.24.09.48.14.71.87,4.24,2.41,8.54,5.62,11.44a11.81,11.81,0,0,0,10.7,2.77,9.9,9.9,0,0,0,7.24-8.08,13.9,13.9,0,0,0-1.62-7.49c-1.1-2.34-2.5-4.54-3.46-6.95s-1.75-5.75-1-8.22l-.31-.16c-5.74-3-12.08-3.3-17.76-.2A50.21,50.21,0,0,0,606.27,389.92Z"/><path class="cls-28" d="M620.64,392.91a10.78,10.78,0,0,0,4.43-.72.46.46,0,0,1,.63.45,2.86,2.86,0,0,1-1,2.15,3.35,3.35,0,0,1-3.09.64c-.84-.26-1.19-1.07-1.45-1.92A.46.46,0,0,1,620.64,392.91Z"/><path class="cls-29" d="M605.93,387.19a8.42,8.42,0,0,0,2.88-6.06,25.19,25.19,0,0,0-.75-6.84,27.85,27.85,0,0,0,9,1.82,14.45,14.45,0,0,0,8.68-2.71,9.86,9.86,0,0,0,4-7.95,7.51,7.51,0,0,0-5.19-6.92c-3-.81-6.15.6-8.78,2.25s-5.22,3.63-8.29,4.13c-1.59.26-3.33.12-4.69,1-1.89,1.21-2.24,3.81-2.13,6.05A28.23,28.23,0,0,0,605.93,387.19Z"/><path class="cls-17" d="M606.29,386a4.18,4.18,0,0,0-.91-2.68v0a2.36,2.36,0,0,0-4.28.95,6.19,6.19,0,0,0,.22,3.53,8.44,8.44,0,0,0,1.11,2.51,3.85,3.85,0,0,0,2.21,1.57,2.48,2.48,0,0,0,2.48-.83A18.75,18.75,0,0,1,606.29,386Z"/><path class="cls-9" d="M663.64,335.8a2.38,2.38,0,0,0-1.89,1.86,2.35,2.35,0,0,0,1.11,2.4c.48.28,1.09.4,1.45.83.61.71.32,2.05,1.15,2.51a1.61,1.61,0,0,0,1.67-.38,3.66,3.66,0,0,1,1.53-.93c1.79-.3,2.83,2.81,4.6,2.43,1.12-.24,1.63-1.78,2.76-1.91.94-.11,1.75.84,2.69.77s1.48-1,1.79-1.9.62-1.87,1.46-2.26,2.19.08,3-.56a2.64,2.64,0,0,0,.56-2.37,9.93,9.93,0,0,0-.75-3.46,3,3,0,0,0-3.07-1.86C675.6,332.38,669.83,334.78,663.64,335.8Z"/><path class="cls-30" d="M673.05,339c-3.15.8-6.82.35-9.09-2a13.79,13.79,0,0,1-2.12-3.11c-1.3-2.36-2.61-4.71-3.92-7.07a6.66,6.66,0,0,1-1-2.52A2.32,2.32,0,0,1,658,322c1.39-.69,3,.69,4.54.42a3.32,3.32,0,0,0,2.3-2.62c.3-1.19.25-2.45.55-3.64a7.52,7.52,0,0,1,7.29-5.28,10.3,10.3,0,0,1,8.11,4.62,16.59,16.59,0,0,1,2.64,9.2c0,2.72.21,7.7-1.82,9.79S675.77,338.25,673.05,339Z"/><path class="cls-9" d="M550.39,350.88a2.3,2.3,0,0,1,1.55,4c-.43.37-1,.59-1.28,1.08-.47.82.06,2.08-.67,2.68a1.63,1.63,0,0,1-1.71-.06,3.59,3.59,0,0,0-1.68-.64c-1.81,0-2.26,3.28-4.07,3.24-1.14,0-1.93-1.45-3.07-1.37-.94.06-1.56,1.14-2.5,1.24s-1.64-.74-2.11-1.54-1-1.72-1.84-1.95-2.15.48-3.06,0-.92-1.38-1-2.23a10,10,0,0,1,.1-3.53,3,3,0,0,1,2.67-2.4C538,349.71,544.12,351,550.39,350.88Z"/><path class="cls-31" d="M541.72,355.7c3.24.22,6.76-.89,8.58-3.59a14.08,14.08,0,0,0,1.5-3.44c.85-2.56,1.71-5.11,2.56-7.67a6.6,6.6,0,0,0,.5-2.65,2.31,2.31,0,0,0-1.48-2.09c-1.49-.43-2.83,1.23-4.38,1.24a3.28,3.28,0,0,1-2.74-2.15c-.51-1.11-.7-2.36-1.21-3.47a7.53,7.53,0,0,0-8.14-3.86,10.32,10.32,0,0,0-7.12,6,16.66,16.66,0,0,0-.91,9.53c.45,2.68,1.21,7.6,3.59,9.29S538.91,355.52,541.72,355.7Z"/><path class="cls-32" d="M603.09,382.27s9.54-9.16,22.23-4.26c0,0,1.91-3.72-.42-6,0,0-8.85-6.75-23.65,4.45C601.25,376.43,599.71,380.6,603.09,382.27Z"/><path class="cls-33" d="M443.06,753.54c-.05.7-1.06,1.31-2.79,1.83-.43.13-.9.25-1.42.36s-1.09.27-1.69.39c-1.21.27-2.57.46-4.06.75q-1.12.21-2.34.39c-.81.13-1.65.3-2.52.44-1.74.26-3.59.63-5.52,1-3.87.73-8.09,1.57-12.49,2.6s-8.53,2.22-12.31,3.31c-1.87.59-3.69,1.09-5.36,1.64-.84.27-1.66.49-2.44.75s-1.54.49-2.26.71c-1.16.33-2.21.66-3.19,1q-3,6.35-5.88,13c-4.6,10.87-8.54,21.48-11.91,31.42.91-.59,1.9-1.17,2.94-1.75a51.45,51.45,0,0,1,18.87-5.89c1.52-.14,3-.25,4.34-.24.67,0,1.33,0,2,0s1.24.09,1.82.15a21,21,0,0,1,3.11.51c.45.11.87.21,1.26.33s.74.28,1.06.42c1.27.58,1.95,1.23,2,1.93a2,2,0,0,1-.94,1.46c-16,1.09-31.89,4.17-47.7,8,.27-1.07.56-2.16.84-3.26,2.51-8.86,5.58-18.3,9.31-28a1.86,1.86,0,0,0-.11-.19c-.2-.34-.41-.73-.61-1.16s-.44-.88-.66-1.37c-.46-1-.88-2.12-1.4-3.35l-3.34-8.59c-1.28-3.2-2.69-6.67-4.27-10.29s-3.21-7-4.71-10.09l-4.08-8.27c-.56-1.21-1.1-2.29-1.52-3.29-.21-.5-.4-1-.57-1.42s-.32-.85-.45-1.23c-.48-1.53-.5-2.62,0-3.07s1.57-.26,3,.55c.37.2.76.44,1.18.71s.83.61,1.28,1a33.12,33.12,0,0,1,2.87,2.58c.5.51,1,1,1.55,1.62s1,1.2,1.58,1.84c1.09,1.28,2.12,2.73,3.21,4.28a67.92,67.92,0,0,1,9.84,22.34c.41,1.84.78,3.59,1,5.26.1.72.2,1.43.27,2.11a317.2,317.2,0,0,1,17.43-34.2q2.38-3.87,4.64-7.53l1.13-1.81c.38-.59.78-1.16,1.17-1.74l2.31-3.39c.76-1.11,1.5-2.2,2.24-3.27.26-.36.51-.73.76-1.1.47-.69.94-1.37,1.44-2l4.32-5.72c2.72-3.67,5.46-6.78,7.81-9.53,1.19-1.37,2.29-2.65,3.35-3.79s2.08-2.13,3-3c3.65-3.59,5.92-5.34,6.46-4.89s-.69,3.05-3.35,7.35c-.66,1.08-1.42,2.26-2.26,3.53l-2.62,4.23c-1.89,3-4.18,6.37-6.46,10.22l-2.67,4.33-1,1.64c-.66,1-1.26,2.12-1.9,3.2l-1.95,3.35-2,3.44c-.34.59-.7,1.16-1,1.77l-1,1.82c-1.34,2.45-2.74,5-4.16,7.54-1.87,3.52-3.76,7.19-5.65,11,1.52-.83,3.17-1.6,4.92-2.4a78.72,78.72,0,0,1,26.95-6.43c2.14-.09,4.17-.16,6.08-.07.94,0,1.86.06,2.73.15s1.73.16,2.53.26a37.67,37.67,0,0,1,4.31.76c.62.15,1.21.29,1.74.45s1,.35,1.45.53C442.2,752.12,443.11,752.84,443.06,753.54Z"/><path class="cls-33" d="M322.65,782.59c-.38.78-.82,1.61-1.29,2.5s-1,1.79-1.55,2.74c-1.11,1.92-2.36,4-3.69,6.1s-2.62,4.16-3.85,6c-.6.93-1.22,1.79-1.78,2.61s-1.13,1.57-1.68,2.25c-.38.5-.76,1-1.13,1.38.66,1.53,1.32,3.07,1.94,4.56.86,2.18,1.69,4.31,2.51,6.37.2.52.4,1,.59,1.54s.37,1,.55,1.53l1.06,3c.64,1.87,1.29,3.68,1.85,5.44-2.57.7-5.14,1.4-7.7,2.08-.64-1.42-1.33-2.87-2-4.38l-1.27-2.83-.65-1.44-.69-1.46-2.84-6c-3.69-7.67-7.85-16-12.46-24.59-1.18.22-2.58.39-4.16.52-2.41.18-5.24.3-8.35.34s-6.53.06-10.11,0-7-.1-10.11-.23-6-.29-8.34-.54c-4.79-.49-7.89-1.32-8.09-2.73s2.63-3.08,7.44-4.45a60.91,60.91,0,0,1,8.57-1.67,81.64,81.64,0,0,1,21.26.25,57.2,57.2,0,0,1,8.17,1.75c-4.14-7.37-8.28-14.33-12.17-20.7l-3.54-5.66c-.29-.45-.57-.91-.85-1.36l-.87-1.34-1.68-2.6c-1.11-1.7-2.14-3.37-3.18-4.94s-2.05-3.09-3-4.53c-1.86-2.93-3.66-5.51-5.15-7.84-.76-1.16-1.43-2.26-2.06-3.27s-1.23-1.91-1.74-2.75c-.34-.56-.64-1.09-.92-1.58-1.36-2.44-1.9-4-1.45-4.34s2.42.76,5.41,3.38l.56.49c.59.53,1.22,1.1,1.9,1.73.86.84,1.77,1.77,2.75,2.78,1.94,2,4.17,4.33,6.44,7q1.72,2,3.59,4.23c1.24,1.48,2.46,3.08,3.74,4.71l1.95,2.51c.33.43.66.85,1,1.29l1,1.34.79,1.11a35.68,35.68,0,0,1,1.47-4.5,36.47,36.47,0,0,1,3-5.93,25.7,25.7,0,0,1,3.39-4.33c2.25-2.27,4.31-3.2,5.51-2.48s1.38,2.91.85,5.85a57.2,57.2,0,0,1-3.29,10.66,59.47,59.47,0,0,1-4.71,9.64c4.36,6.55,8.77,13.74,13,21.43,2.49,4.61,4.8,9.18,6.92,13.65.14-.4.29-.8.44-1.21a42.06,42.06,0,0,1,8.4-13.49c.85-.89,1.67-1.72,2.51-2.44a25,25,0,0,1,2.41-1.89c3.1-2.16,5.6-2.78,6.58-1.8S324.16,779.46,322.65,782.59Z"/><path class="cls-33" d="M837.1,726.5c-.15.44-.32.91-.52,1.41s-.41,1.07-.65,1.64c-.48,1.15-1.12,2.39-1.75,3.79-1.35,2.73-2.94,6-4.71,9.52s-3.57,7.47-5.42,11.62-3.44,8.16-4.91,11.84l-3.84,9.89c-.61,1.42-1.1,2.72-1.62,3.86-.25.57-.52,1.09-.76,1.59s-.47.93-.7,1.33a1.48,1.48,0,0,0-.13.21c4.29,11.14,7.84,22,10.72,32.2.87,3.38,1.73,6.67,2.55,9.86.21.8.41,1.59.61,2.38s.35,1.58.52,2.36.35,1.64.52,2.45l-4.27,1.69-4.94,2c-.34-1.19-.67-2.39-1-3.61,0-.15-.09-.31-.13-.47-.17-.6-.34-1.2-.52-1.8s-.47-1.51-.72-2.28c-.33-1.05-.65-2.1-1-3.16-1-.24-2.14-.54-3.36-.91-.59-.17-1.2-.36-1.83-.58l-2-.61c-1.34-.46-2.78-.9-4.26-1.42-3-1-6.25-2-9.68-3.14s-6.73-2-9.74-2.91c-1.52-.42-3-.88-4.31-1.26l-2-.61c-.64-.18-1.24-.38-1.83-.56-4.66-1.51-7.71-2.93-7.7-4.59,0-.81.79-1.56,2.25-2.21.37-.17.77-.33,1.22-.49s.94-.26,1.46-.39a26.65,26.65,0,0,1,3.57-.58c.68-.07,1.37-.13,2.1-.17s1.48,0,2.26,0a49,49,0,0,1,5,.27,58.82,58.82,0,0,1,21.73,6.78c1.2.67,2.34,1.33,3.39,2-3.89-11.44-8.43-23.65-13.72-36.17-2.21-5.15-4.48-10.16-6.77-15-1.12-.33-2.34-.72-3.66-1.1-.84-.25-1.71-.52-2.61-.82s-1.85-.55-2.82-.86c-1.92-.64-4-1.21-6.17-1.89-4.35-1.26-9.12-2.58-14.17-3.81s-9.92-2.15-14.37-3c-2.24-.37-4.36-.8-6.36-1.1-1-.16-2-.36-2.9-.5s-1.84-.29-2.7-.45c-1.72-.34-3.29-.56-4.67-.86l-2-.45c-.59-.13-1.14-.27-1.64-.42-2-.59-3.15-1.31-3.21-2.11s1-1.64,3-2.45c.5-.21,1.06-.41,1.67-.61s1.29-.34,2-.52a42.78,42.78,0,0,1,5-.87c.92-.12,1.89-.21,2.91-.31s2.07-.12,3.15-.17c2.2-.1,4.53,0,7,.08a90.73,90.73,0,0,1,31,7.41c2,.92,3.92,1.8,5.67,2.76q-3.27-6.54-6.52-12.63-2.45-4.45-4.78-8.68l-1.15-2.1c-.39-.69-.8-1.36-1.19-2l-2.34-4-2.24-3.85c-.74-1.25-1.43-2.51-2.19-3.69l-4.25-6.87c-2.63-4.43-5.26-8.27-7.43-11.76l-3-4.87c-1-1.48-1.84-2.83-2.6-4.07-3.06-4.95-4.47-7.95-3.85-8.47s3.23,1.5,7.44,5.64c1,1,2.2,2.19,3.44,3.48s2.48,2.78,3.85,4.35c2.71,3.17,5.86,6.75,9,11,1.59,2.09,3.25,4.29,5,6.58.88,1.14,1.68,2.37,2.54,3.59l2.57,3.76c.88,1.28,1.76,2.58,2.66,3.91.45.66.91,1.32,1.35,2l1.3,2.09,5.35,8.66a366.88,366.88,0,0,1,20.06,39.37c.08-.78.19-1.59.31-2.43.24-1.91.66-3.93,1.13-6a78.27,78.27,0,0,1,11.33-25.72c1.25-1.78,2.45-3.46,3.7-4.93.62-.74,1.21-1.46,1.81-2.12s1.21-1.27,1.79-1.86a36.48,36.48,0,0,1,3.31-3c.51-.41,1-.78,1.47-1.1s.93-.6,1.35-.83c1.68-.92,2.89-1.16,3.5-.63S837.65,724.73,837.1,726.5Z"/><path class="cls-33" d="M957.5,783.75c-.22,1.62-3.79,2.59-9.3,3.15-2.76.28-6,.49-9.6.62s-7.52.22-11.64.26-8.05.06-11.64,0-6.85-.19-9.62-.4a46,46,0,0,1-4.79-.59c-5.24,9.77-10,19.24-14.2,28q-6.35,1.11-12.65,2.58l2.61-6.64c.72-1.72,1.47-3.49,2.24-5.25-.43-.49-.87-1-1.31-1.59-.63-.79-1.26-1.66-1.93-2.59s-1.36-1.94-2-3c-1.42-2.12-2.9-4.45-4.43-6.92s-3-4.81-4.25-7c-.65-1.09-1.23-2.16-1.79-3.16s-1-2-1.49-2.87c-1.73-3.61-2.47-6.35-1.31-7.52s4-.41,7.57,2.07A28,28,0,0,1,870.7,775a39.63,39.63,0,0,1,2.88,2.81,50,50,0,0,1,5.58,7.3,49.22,49.22,0,0,1,4.1,8.23c.18.47.34.94.5,1.39,2.44-5.15,5.1-10.4,8-15.71,4.85-8.86,9.93-17.13,15-24.67a68.64,68.64,0,0,1-5.43-11.11A67.86,67.86,0,0,1,897.47,731c-.6-3.4-.42-5.92,1-6.75s3.76.25,6.35,2.86a30.19,30.19,0,0,1,3.9,5,41.89,41.89,0,0,1,3.46,6.83,43.28,43.28,0,0,1,1.69,5.18l.91-1.27,1.12-1.54c.37-.51.76-1,1.14-1.49.76-1,1.5-1.94,2.24-2.89,1.48-1.88,2.88-3.72,4.3-5.42s2.81-3.33,4.13-4.88c2.63-3.11,5.19-5.76,7.42-8.1,1.13-1.16,2.18-2.24,3.18-3.2s2-1.8,2.82-2.56c3.44-3,5.63-4.41,6.24-3.89s-.4,2.94-2.74,6.82c-.58,1-1.25,2-2,3.17s-1.5,2.42-2.38,3.76c-1.71,2.69-3.78,5.64-5.92,9q-1.63,2.51-3.45,5.22c-1.2,1.81-2.39,3.74-3.67,5.69l-1.94,3c-.33.52-.66,1-1,1.54s-.64,1-1,1.58l-4.07,6.51c-4.49,7.33-9.25,15.34-14,23.83a68.3,68.3,0,0,1,9.41-2,94,94,0,0,1,24.47-.28,69.75,69.75,0,0,1,9.87,1.92C954.48,780.21,957.72,782.16,957.5,783.75Z"/><circle class="cls-9" cx="351.73" cy="302.44" r="11.9" transform="translate(-111.55 278.87) rotate(-37.78)"/><circle class="cls-9" cx="200.75" cy="645.67" r="11.9" transform="translate(-397.76 331.06) rotate(-45)"/><circle class="cls-9" cx="877.84" cy="278.19" r="11.9" transform="translate(60.4 702.21) rotate(-45)"/><circle class="cls-9" cx="1221.45" cy="525.16" r="11.9" transform="translate(-13.59 1017.51) rotate(-45)"/><circle class="cls-9" cx="1005.75" cy="604.69" r="11.9" transform="translate(-158.9 748.78) rotate(-38.07)"/><circle class="cls-9" cx="547.24" cy="591.27" r="11.9" transform="translate(-154.42 987.17) rotate(-76.65)"/><path class="cls-9" d="M167.25,464.06a5.95,5.95,0,1,1-5.95-5.95A6,6,0,0,1,167.25,464.06Z"/><path class="cls-9" d="M444.56,441.06a5.95,5.95,0,1,1-5.95-5.95A6,6,0,0,1,444.56,441.06Z"/><path class="cls-9" d="M722.53,462.06a6,6,0,1,1-5.95-5.95A5.95,5.95,0,0,1,722.53,462.06Z"/><path class="cls-9" d="M704,210.84a6,6,0,1,1-6-6A6,6,0,0,1,704,210.84Z"/><circle class="cls-9" cx="1112.58" cy="410.66" r="5.95"/><circle class="cls-9" cx="265.07" cy="533.3" r="5.95"/><path class="cls-9" d="M503.25,664.81a6,6,0,1,1-5.95-5.94A6,6,0,0,1,503.25,664.81Z"/><path class="cls-9" d="M858.92,482.11a5.95,5.95,0,1,1-5.94-5.95A5.94,5.94,0,0,1,858.92,482.11Z"/><path class="cls-9" d="M1129.3,626.18a6,6,0,1,1-6-5.95A6,6,0,0,1,1129.3,626.18Z"/></g></g></g></svg>