<svg xmlns="http://www.w3.org/2000/svg" xmlns:xlink="http://www.w3.org/1999/xlink" viewBox="0 0 1147.48 800"><defs><style>.cls-1{fill:none;}.cls-2{isolation:isolate;}.cls-3{fill:#fff;}.cls-4{fill:#ff8b85;}.cls-5{clip-path:url(#clip-path);}.cls-6{fill:url(#_27);}.cls-7{fill:#ff958f;}.cls-8{fill:url(#_27-2);}.cls-9{fill:url(#_3);}.cls-10{fill:url(#_27-3);}.cls-11{fill:url(#_27-4);}.cls-12{fill:url(#_88);}.cls-13{fill:url(#_5);}.cls-14{fill:url(#_5-2);}.cls-15{fill:url(#_5-3);}.cls-16{fill:url(#_5-4);}.cls-17{fill:url(#_5-5);}.cls-18{fill:url(#_88-2);}.cls-19{fill:#ffea71;}.cls-20{fill:#311e69;}.cls-21{fill:url(#_88-3);}.cls-22{fill:#ffe6e6;}.cls-23{fill:#1e1240;}.cls-24{fill:#614cd4;}.cls-25{fill:#ad263d;}.cls-26{fill:#ff6161;}.cls-27{fill:#8b81f7;}.cls-28{fill:#f7dada;}.cls-29{fill:#871e44;}.cls-30{fill:#9c94ed;}.cls-31{fill:url(#_88-4);}.cls-32{fill:url(#_23);}.cls-33{mix-blend-mode:multiply;}.cls-34{fill:#fce8e8;}.cls-35{fill:#ffa6a4;}</style><clipPath id="clip-path"><rect class="cls-1" width="1000" height="800"/></clipPath><linearGradient id="_27" x1="599.84" y1="197.85" x2="540.94" y2="60.74" gradientTransform="matrix(1, -0.07, 0.07, 1, 23.15, 68.7)" gradientUnits="userSpaceOnUse"><stop offset="0" stop-color="#ff8b85"/><stop offset="0.57" stop-color="#ffa09c"/></linearGradient><linearGradient id="_27-2" x1="639.89" y1="506.73" x2="644.36" y2="398.74" gradientTransform="translate(59.48 -235.26) rotate(0.6)" xlink:href="#_27"/><linearGradient id="_3" x1="633.37" y1="578.08" x2="646.32" y2="426.56" gradientTransform="translate(59.48 -235.26) rotate(0.6)" gradientUnits="userSpaceOnUse"><stop offset="0" stop-color="#ff8b85"/><stop offset="0.39" stop-color="#ffa09c"/></linearGradient><linearGradient id="_27-3" x1="1035.77" y1="294.3" x2="1028.06" y2="202.89" gradientTransform="translate(-30.81 -126.9) rotate(4.03)" xlink:href="#_27"/><linearGradient id="_27-4" x1="871.44" y1="90.43" x2="866.78" y2="35.18" gradientTransform="matrix(1, 0, 0, 1, 0, 0)" xlink:href="#_27"/><linearGradient id="_88" x1="348.99" y1="504.11" x2="350.06" y2="150.9" gradientUnits="userSpaceOnUse"><stop offset="0" stop-color="#ffaca8"/><stop offset="1" stop-color="#fff"/></linearGradient><linearGradient id="_5" x1="499.45" y1="276.9" x2="489.4" y2="179.93" gradientTransform="translate(40.23 77.22) rotate(-4.67)" gradientUnits="userSpaceOnUse"><stop offset="0" stop-color="#ff8b85"/><stop offset="1" stop-color="#fff"/></linearGradient><linearGradient id="_5-2" x1="370.71" y1="339.71" x2="380.53" y2="151.85" gradientTransform="translate(-25.64 -19.36) rotate(7.36)" xlink:href="#_5"/><linearGradient id="_5-3" x1="513.5" y1="-8.35" x2="446.36" y2="-173.29" gradientTransform="translate(-219.19 537.17) rotate(-15.9)" xlink:href="#_5"/><linearGradient id="_5-4" x1="2553.73" y1="352.43" x2="2600.18" y2="204.64" gradientTransform="matrix(-1, 0.08, 0.08, 1, 2653.76, -158.13)" xlink:href="#_5"/><linearGradient id="_5-5" x1="435.72" y1="303.65" x2="442.29" y2="180.5" gradientTransform="matrix(1, -0.09, 0.09, 1, -28.54, 74.79)" xlink:href="#_5"/><linearGradient id="_88-2" x1="499.28" y1="855.05" x2="500.59" y2="420.41" xlink:href="#_88"/><linearGradient id="_88-3" x1="297.61" y1="389.08" x2="414.53" y2="389.08" xlink:href="#_88"/><linearGradient id="_88-4" x1="275" y1="384.87" x2="380.67" y2="384.87" xlink:href="#_88"/><linearGradient id="_23" x1="261.06" y1="686.48" x2="261.06" y2="368.56" gradientTransform="matrix(0.98, 0.18, -0.18, 0.98, -2.82, -28.07)" gradientUnits="userSpaceOnUse"><stop offset="0" stop-color="#ffbbb8"/><stop offset="1" stop-color="#fff"/></linearGradient></defs><title>special-event</title><g class="cls-2"><g id="Layer_2" data-name="Layer 2"><g id="Layer_1-2" data-name="Layer 1"><rect class="cls-3" width="1000" height="800"/><rect class="cls-4" width="1000" height="800"/><g class="cls-5"><path class="cls-6" d="M498.31,162.46S531.12,149,566,153.07s130.3-1.22,149.49,8.26,36.83-14.48,36-29.27-35.13-5.72-48.3-7.81-16.6-71.51-79.79-66.59-64.19,56-83.33,61.51-51.21-13.34-70.53.13-4.2,18.23-6.17,26S402,188.46,498.31,162.46Z"/><path class="cls-7" d="M703.13,124.25c-8.93-1.42-13.38-33.8-35-53-1.08,4.56-.63,10-6.69,12.69-13.25,5.94-19.31-3.5-29.53,9s14.77,8.89,12.77,22.5-28,8.2-48.75,1.54-30.59,16.34-51.55,20.43-34.16-9.92-55-10.6-3.92,28-18.09,27.88a33.69,33.69,0,0,1-13.83-2.68c-13,12.2-37.21,31.46,40.87,10.39,0,0,32.81-13.49,67.65-9.39s130.3-1.22,149.49,8.26,36.83-14.48,36-29.27S716.3,126.34,703.13,124.25Z"/><path class="cls-8" d="M846.38,284.51s10.36,27-23.32,32.69S712.65,314,677.48,313s-114,4.18-132-2.06,1-35.61,13.52-38.16a50.51,50.51,0,0,1,6.76-.89,39.65,39.65,0,0,0,32.06-20.38c9.41-17.17,25.84-38.41,49.7-39,16.08-.37,23.76,4.77,27.19,11.06,3.75,6.9,12.61,9,18.69,4,17.92-14.66,47.56-32,81.18-23.82,27.44,6.67,35.51,19.53,36.73,30.71,1.11,10.27,7.09,19.53,16.6,23.56C836.34,261.61,844.5,269.1,846.38,284.51Z"/><path class="cls-9" d="M578,286.68c17.62-8.71,58.16-33.79,73.11-33.63s16.6,15.3,16.6,15.3,82.06-45.7,107.41-31.2-.44,42.11-.44,42.11,38.58-2.56,54.56.58,13,28.58,13,28.59c-3.71,3.89-9.7,7.17-19.16,8.77C789.37,322.89,712.65,314,677.48,313s-114,4.18-132-2.06a10.48,10.48,0,0,1-6.17-4.94C545.6,295.72,564.67,293.25,578,286.68Z"/><path class="cls-10" d="M857.63,212.72s-49.41-2.13-41.9-26.14,48.07-13.9,67-14.23,24.63-17.23,42.71-12.61,20,17.58,33.15,20.18,32.9-55.12,72.49-43.41,19.38,53.23,39.12,58,56.31-7.83,70.73,9.12,3.71,42.41-20.86,42.91S919.75,217.41,857.63,212.72Z"/><path class="cls-7" d="M1139.43,217.75c-5.08-7.05-13.48,1.28-33.4-4.59s-25.06,3.26-46.4-8.84-11.14-49.3-18.7-53.18-7,13.45-5.7,26.19-1.51,21.26-18.44,18.4-25.2,7.14-48.38,3.84-22.53-20.55-35-25.89,6.16,23.3-4,25.37-41.22-.67-75.3-7.53c-20.15-4.06-29.78-8.93-34.28-12.24a19.4,19.4,0,0,0-4.1,7.3c-7.51,24,41.9,26.14,41.9,26.14,62.12,4.69,237.92,34.28,262.49,33.78,15.47-.32,25.44-10.52,27.11-22.27C1144,221.87,1140.87,219.76,1139.43,217.75Z"/><path class="cls-11" d="M796.06,61.73s-18.8.51-20.5,11.91,20.62,18.91,53,15.16,71.06-.45,91.9,0S964.65,92,965.25,81s-19.8-15-27.6-19.27-12-36.68-37.2-36.68-41.4,25.2-41.4,25.2S825.47,25.22,796.06,61.73Z"/><path class="cls-7" d="M952.45,67.87c-4.71,1.31-9,2.4-12,1-8.53-4-13.6-20.54-30.66-34.94s-21.6,32.54-42.67,36-17.33-11.2-33.6-12.51-22.13,18.38-33.36,14.65a46.57,46.57,0,0,1-14.7-8.31c-4.58,1.63-9.09,4.58-9.88,9.89-1.7,11.4,20.62,18.91,53,15.16s71.06-.45,91.9,0S964.65,92,965.25,81C965.58,74.88,959.36,70.92,952.45,67.87Z"/></g><path class="cls-12" d="M699.51,346.63S533.57,63.59,318.19,54.77,0,155,0,155V459.54Z"/><path class="cls-13" d="M537.34,232.26c2.08-6.15,3.2-20,8.22-26.26s9.16,19,16.54,22.63,16,3.75,14.41,11.35-6.75,10.42-6.75,10.42,18.52.35,18.7,8.86-10.57,14.46-10.57,14.46,29.22,10.67,24.48,22.52-27.52,18.51-27.52,18.51,1.79,4.92-3.79,10.7-24.48,9.2-24.92,6,.9-8.07.9-8.07-30.8,1.72-31.71-7.27-.76-22.06,13.91-32.85c0,0-13.08-3.56-13.41-11.75s16.8-14.39,16.8-14.39-11-3.36-12.06-8.07S534.28,241.27,537.34,232.26Z"/><path class="cls-14" d="M291.18,349.51c-9.42-2.55-29.32-4.89-30.63-19.52-1-10.76,7-21.2,12.83-23.09,2.69-.87,6.66-.72,8.12-3.21s-4.81-.94-6.25-.79c-4.24.44-9.76.37-11.35-4.3-4-11.67,11.36-25,20.93-29.26,4-1.78,6.63-5.57,5.86-10-.42-2.39-2.2-6-5-5.45-3.34.62-14.3-.27-14.18-2,.19-2.53,12.86-6.79,18-9,2.68-1.18,17.59-7.56,16.2-9.75-1.28-2-7.08-1.43-10.4-1.55-1.42-.05-6.89-.42-3-3a120.18,120.18,0,0,1,25.09-12.3c8.92-3.08,21.18-7.36,30.62-4.3,11.88,3.84-1.46,6.69-5.62,10.3-5.22,4.55,5.66,15.23,5.52,20.69-.16,6.57-15-5-17.19-2.62S335.3,250.65,337,253c3.2,4.45,8.93,11.06,8.09,16.92-1.19,8.21-21.8-8.5-25.26-4.94-2.43,2.49,4.94,8.59,6.67,10.37,5.58,5.75,10.49,12.17,12.6,20,4.74,17.61-16.35,2.43-17.63,10.67-.77,5,8.88,10.88,12.28,13.79,6.85,5.87,13.77,12.71,16.41,21.54C356,360.86,298.2,351.4,291.18,349.51Z"/><path class="cls-15" d="M178.2,243.36c-2.77-12.85-11-24.72-13.36-37.28-1.29-6.78,12.6,3,14,4,6.36,4.64,14.13,13.68,22,14.67,8.87,1.1,20.75-2.16,23.63,9.77,1.51,6.26-.58,19.67-.58,19.67.45.55,22.45-2.41,25.46,8.55,2.62,9.54-6.62,27.43-6.4,28.26.82,3,35.81,21.36,31.23,40.29-3.89,16.06-31.52,27.26-34.92,31.82-1.6,2.13-3.61,13.13-8.16,17.52s-12.4,5.86-19,5.82c-3,0-11.7-.7-11.53-4.1s4.45-11.18,4.22-11.6c-.79-1.49-34.82-6-34-17.22,1.12-16.11,17.91-41,17.91-41-.25-.88-15.89-5.47-17.34-12.78-1.7-8.49,14.74-22.42,14.74-22.42-.12-.36-13.89-1.11-16.61-5.64-1.93-3.21,2.51-8.25,4.17-11.05C176.75,255.43,179.54,249.58,178.2,243.36Z"/><path class="cls-16" d="M89.12,217s49,21.1,41.3,28.15-19,.46-16.69,7.42,59.81,21,54.55,27.46-8.9,1-13.12,7.1-5.09,4-11.14,4.8,9.73,19.39,18.25,22.71,32.09,10.87,25,16.8-22.22.85-27.58,6-13.53,6.47-10,10.52,63.84,26.74,62.34,35.33-10.43-.07-23.83,3.45-18.67,5-27.72,4.09-16.43-8-27.8-1.54-31,13.33-44.43,16.15-25.41,6.23-25.84.51,40.42-45.47,36.4-46.24-10.33,1.14-15.73,5.86-14.71,5.06-16.94,4.15,31.51-63.48,25.41-63.38-4.79,3.2-10.65,6.54-18.55,10.73-13.74,1,24-55,15.74-55.46-10.3,11.21-16,7.32,10-39.57,3.75-45.57S70.39,208.09,89.12,217Z"/><path class="cls-17" d="M452,229.71c.66-4.89-1.85-11.66-11.56-5.36s-36.49,19.1-33.16,25.46S419.06,252.54,418,257s-32.92,25-28.66,32.18,20.88,3.28,21.07,5.78-15,19.2-15,26.3,66.65,2.64,72.75,4.59,3.58-14.43-4.13-22.66.35-6.9,2.61-6.08,7.94-6.16,4-12.77-24.41-28.78-19.77-27.79C466.88,260,451.33,234.6,452,229.71Z"/><path class="cls-18" d="M1000,377.65V800H0V433.47S265,321,533.35,304.11,1000,377.65,1000,377.65Z"/><path class="cls-3" d="M512.27,129.78c0,2.65-3.4,4.8-7.6,4.8s-7.6-2.15-7.6-4.8,3.4-4.8,7.6-4.8S512.27,127.13,512.27,129.78Z"/><ellipse class="cls-3" cx="710.53" cy="112.28" rx="7.6" ry="4.8"/><path class="cls-3" d="M718.13,171c0,1.32-1.7,2.4-3.8,2.4s-3.8-1.08-3.8-2.4,1.7-2.4,3.8-2.4S718.13,169.68,718.13,171Z"/><path class="cls-3" d="M686.29,248.91c-2.29,1.33-5.85-.55-7.95-4.18s-1.94-7.66.35-9,5.86.55,8,4.18S688.59,247.59,686.29,248.91Z"/><path class="cls-3" d="M496.05,122.53c-.57,1.75-3.27,2.44-6,1.54s-4.55-3-4-4.78,3.27-2.44,6-1.54S496.61,120.78,496.05,122.53Z"/><path class="cls-3" d="M577.48,58.71c-.57,1.75-3.27,2.44-6,1.55s-4.55-3-4-4.79,3.27-2.44,6-1.54S578,57,577.48,58.71Z"/><path class="cls-3" d="M489.85,63.62c-.57,1.75-3.27,2.44-6,1.55s-4.55-3-4-4.78,3.27-2.44,6-1.55S490.41,61.88,489.85,63.62Z"/><path class="cls-3" d="M963.38,84.29c-.57,1.74-3.27,2.44-6,1.54s-4.55-3-4-4.78,3.27-2.44,6-1.55S963.94,82.54,963.38,84.29Z"/><path class="cls-3" d="M927.14,88.74c-.56,1.75-3.26,2.44-6,1.55s-4.56-3-4-4.78,3.26-2.44,6-1.55S927.71,87,927.14,88.74Z"/><path class="cls-3" d="M745.22,155.41c-1.11,1.46-5.18.24-9.1-2.73s-6.18-6.57-5.07-8,4.22,1.44,8.14,4.41S746.33,153.94,745.22,155.41Z"/><path class="cls-3" d="M686.33,133c-.28.88-1.63,1.22-3,.78s-2.28-1.52-2-2.39,1.63-1.22,3-.78S686.61,132.12,686.33,133Z"/><path class="cls-3" d="M781.4,85.37c-.29.87-1.64,1.22-3,.77s-2.28-1.52-2-2.39,1.64-1.22,3-.77S781.68,84.49,781.4,85.37Z"/><path class="cls-3" d="M735.83,61.46c-.28.87-1.63,1.22-3,.77s-2.28-1.52-2-2.39,1.63-1.22,3-.78S736.11,60.58,735.83,61.46Z"/><path class="cls-3" d="M581.78,92.48c-.28.88-1.63,1.22-3,.78s-2.28-1.52-2-2.4,1.63-1.22,3-.77S582.07,91.61,581.78,92.48Z"/><path class="cls-3" d="M629.71,79.42c-.28.88-1.63,1.22-3,.78s-2.27-1.52-2-2.39,1.63-1.22,3-.78S630,78.55,629.71,79.42Z"/><path class="cls-3" d="M650.54,68.81c-.28.87-1.63,1.22-3,.77s-2.28-1.52-2-2.39,1.64-1.22,3-.77S650.83,67.94,650.54,68.81Z"/><path class="cls-3" d="M515.5,113.27c-.28.87-1.63,1.22-3,.77s-2.28-1.52-2-2.39,1.63-1.22,3-.78S515.78,112.39,515.5,113.27Z"/><path class="cls-3" d="M687.17,184.24c-.28.87-1.63,1.22-3,.77s-2.27-1.52-2-2.39,1.63-1.22,3-.77S687.45,183.36,687.17,184.24Z"/><path class="cls-3" d="M601.54,96.39c1.82.21,3,2.73,2.67,5.62s-2.1,5.06-3.92,4.84-3-2.74-2.68-5.63S599.71,96.17,601.54,96.39Z"/><path class="cls-3" d="M831.31,189.28c1.82.21,3,2.73,2.68,5.62s-2.11,5.06-3.93,4.84-3-2.74-2.68-5.63S829.48,189.06,831.31,189.28Z"/><path class="cls-3" d="M675.77,141.32c1,1.53-.11,4.08-2.52,5.7s-5.21,1.7-6.23.18.1-4.08,2.52-5.7S674.74,139.8,675.77,141.32Z"/><ellipse class="cls-3" cx="434.79" cy="68" rx="10.44" ry="6.59" transform="translate(35.89 253.87) rotate(-33.87)"/><path class="cls-3" d="M524.29,43.45c1,1.52-.1,4.07-2.52,5.69s-5.2,1.7-6.23.18.11-4.08,2.52-5.7S523.27,41.92,524.29,43.45Z"/><path class="cls-3" d="M787.59,66.68c1,1.53-.1,4.08-2.52,5.7s-5.2,1.7-6.22.17.1-4.07,2.52-5.69S786.57,65.16,787.59,66.68Z"/><path class="cls-3" d="M594.25,36.09c1,1.53-.1,4.08-2.52,5.7s-5.2,1.7-6.23.18.11-4.08,2.52-5.7S593.23,34.57,594.25,36.09Z"/><path class="cls-3" d="M636.8,73.53c1,1.53-.11,4.08-2.52,5.7s-5.21,1.7-6.23.17.1-4.07,2.52-5.69S635.77,72,636.8,73.53Z"/><path class="cls-3" d="M718.36,270.82c1,1.52-.1,4.07-2.52,5.69s-5.2,1.7-6.23.18.11-4.08,2.52-5.7S717.34,269.29,718.36,270.82Z"/><path class="cls-3" d="M906.3,134.71c.59,3.52-3.46,7.14-9,8.08s-10.6-1.16-11.19-4.69,3.46-7.14,9-8.08S905.71,131.18,906.3,134.71Z"/><path class="cls-3" d="M622,179.92c-1.79,3.1-7.22,3.31-12.12.48s-7.43-7.64-5.64-10.73,7.21-3.31,12.11-.48S623.81,176.83,622,179.92Z"/><path class="cls-3" d="M686.47,32.93c-1.79,3.09-7.21,3.31-12.12.48s-7.43-7.64-5.64-10.73,7.21-3.31,12.12-.48S688.26,29.83,686.47,32.93Z"/><path class="cls-3" d="M785.24,154.69c1.68,2.5-.17,6.68-4.13,9.34s-8.53,2.79-10.2.29.17-6.68,4.13-9.34S783.57,152.2,785.24,154.69Z"/><path class="cls-3" d="M668.16,126.16c1.67,2.49-.18,6.67-4.13,9.33s-8.53,2.79-10.21.29.17-6.68,4.13-9.34S666.48,123.66,668.16,126.16Z"/><path class="cls-3" d="M474.67,51.9c.59,3.52-3.46,9-9,10S455,58.81,454.44,55.29s3.46-5.25,9.05-6.19S474.08,48.37,474.67,51.9Z"/><ellipse class="cls-3" cx="819.24" cy="37.75" rx="10.25" ry="6.47" transform="translate(5.04 136.05) rotate(-9.52)"/><path class="cls-3" d="M727.32,87.53c-2.29,2.75-7.67,2-12-1.58s-6-8.78-3.75-11.53,7.67-2,12,1.58S729.61,84.78,727.32,87.53Z"/><path class="cls-3" d="M26.35,47.27c0,2.65-3.4,4.79-7.6,4.79s-7.6-2.14-7.6-4.79,3.4-4.8,7.6-4.8S26.35,44.62,26.35,47.27Z"/><path class="cls-3" d="M424.13,29c0,2.65-3.4,4.8-7.6,4.8s-7.6-2.15-7.6-4.8,3.41-4.8,7.6-4.8S424.13,26.31,424.13,29Z"/><path class="cls-3" d="M10.13,40c-.57,1.74-3.27,2.44-6,1.54s-4.55-3-4-4.78,3.27-2.44,6-1.55S10.69,38.27,10.13,40Z"/><path class="cls-3" d="M185.83,49.49c-.56,1.75-3.27,2.44-6,1.54s-4.56-3-4-4.78,3.26-2.44,6-1.54S186.39,47.74,185.83,49.49Z"/><path class="cls-3" d="M98.2,54.4c-.56,1.75-3.26,2.44-6,1.55s-4.56-3-4-4.78,3.26-2.44,6-1.55S98.77,52.65,98.2,54.4Z"/><path class="cls-3" d="M392.33,49.68c-.28.87-1.63,1.22-3,.77s-2.28-1.52-2-2.39,1.63-1.22,3-.77S392.62,48.8,392.33,49.68Z"/><path class="cls-3" d="M314.62,28.93c-.29.87-1.64,1.22-3,.77s-2.28-1.52-2-2.39,1.64-1.22,3-.77S314.9,28.06,314.62,28.93Z"/><path class="cls-3" d="M29.58,30.75c-.28.88-1.63,1.22-3,.78s-2.28-1.52-2-2.39,1.63-1.22,3-.78S29.87,29.88,29.58,30.75Z"/><path class="cls-3" d="M334.37,32.83c1.82.22,3,2.74,2.68,5.63s-2.11,5-3.93,4.83-3-2.73-2.68-5.62S332.54,32.62,334.37,32.83Z"/><ellipse class="cls-3" cx="43.14" cy="58.78" rx="10.44" ry="6.59" transform="translate(-25.44 34.02) rotate(-33.87)"/><path class="cls-3" d="M132.64,34.22c1,1.53-.1,4.08-2.52,5.7s-5.2,1.7-6.22.18.1-4.08,2.52-5.7S131.62,32.7,132.64,34.22Z"/><path class="cls-3" d="M202.6,26.87c1,1.53-.1,4.08-2.52,5.7s-5.2,1.7-6.22.17.1-4.07,2.52-5.69S201.58,25.35,202.6,26.87Z"/><path class="cls-3" d="M294.82,23.71c-1.79,3.09-7.21,3.31-12.11.48s-7.43-7.64-5.65-10.74,7.21-3.31,12.12-.47S296.61,20.61,294.82,23.71Z"/><path class="cls-3" d="M374.16,42.84c1.68,2.5-.17,6.68-4.13,9.34s-8.53,2.78-10.2.28.17-6.68,4.13-9.33S372.48,40.34,374.16,42.84Z"/><path class="cls-3" d="M83,42.68c.59,3.52-3.45,9-9,10s-10.59-3-11.18-6.57,3.45-5.26,9-6.19S82.43,39.15,83,42.68Z"/><path class="cls-3" d="M916.15,52.94c-2.29,2.75-7.67,2-12-1.58s-6-8.79-3.75-11.54,7.67-2,12,1.58S918.43,50.19,916.15,52.94Z"/><polygon class="cls-19" points="616.14 220.2 654.01 220.2 639.33 233.41 654.01 246.89 616.14 246.89 616.14 220.2"/><path class="cls-20" d="M616.14,354.63a1.44,1.44,0,0,1-1.44-1.43V220.33a1.44,1.44,0,0,1,2.88,0V353.2A1.44,1.44,0,0,1,616.14,354.63Z"/><polygon class="cls-19" points="834.43 258.07 872.31 258.07 857.63 271.29 872.31 284.76 834.43 284.76 834.43 258.07"/><path class="cls-20" d="M834.43,392.51a1.44,1.44,0,0,1-1.43-1.44V258.2a1.44,1.44,0,1,1,2.87,0V391.07A1.44,1.44,0,0,1,834.43,392.51Z"/><path class="cls-21" d="M297.61,343.73l105.71,93.71h11.21L313.19,340.72A151.3,151.3,0,0,0,297.61,343.73Z"/><path class="cls-20" d="M367,424.6s43,48.74,49.35,50.71,19.93-5.58,22.92-8.54l0,0c1.25-1.23-.81-1.13-4,.18-2.56,1.06-5.1,2-6.22,2-2.62,0-48.41-47.92-48.41-47.92Z"/><path class="cls-20" d="M388.74,439.16S537.14,468.7,549,469.1s10.62-8.46,7.39-11.48l0,0a2.64,2.64,0,0,0-4.24.92c-.59,1.37-1.47,2.62-2.78,2.83-3.07.51-152.85-27.82-152.85-27.82Z"/><path class="cls-22" d="M450.59,261.41s27.5,29.27,23,41.78c-1.85,5.12-12,4.41-18.69-.27-9.73-6.77-16.51-20.54-15.53-26C441,267.73,450.59,261.41,450.59,261.41Z"/><path class="cls-23" d="M422,237.41l.08-.83,4.3-1.41c1.5,1.51-3.42,5.72-4.29,4.76S422,237.41,422,237.41Z"/><path class="cls-20" d="M451,267.06c-3.34.78-7.92,5.39-11.71,9.88h0c-.52,2.89,1.15,8.14,4.3,13.44Z"/><path class="cls-24" d="M391.8,377c.09-2.27-7.89-33.69-5.42-49.26,1-6.38,1.79-22,2.27-26.61.06-.53.09-1.06.1-1.58,18.3,2.09,36.26-2.54,40.54-3.75a24.89,24.89,0,0,0,4.19,9.72c8,11.16,28.8,121.75,23.06,127.06-2.16,2-8.53,4.27-10.2,1.65-6.14-9.6-16.29-33.44-19.43-61.76-1.13-10.24-11.54-38.67-11.54-38.67-.37,1.47-.82,23.72-2.71,44.36-2,21.6-6.1,45.83-15.1,56.23-2.21,2.55-8.64,2.93-9.34-1.17C381.9,396.28,391.54,383.57,391.8,377Z"/><path class="cls-20" d="M433.48,305.56a24.89,24.89,0,0,1-4.19-9.72c-1.31.37-3.91,1.06-7.4,1.78.29,5.61-29.26,17.92-29.26,17.92s4.63,6.15,18.34,8.45a25.63,25.63,0,0,1,20,16.65,75.24,75.24,0,0,0,5.2,11.9c9.27,16.21,16.83,61.51,18.59,78.63.09.87.2,1.7.31,2.49a8.19,8.19,0,0,0,1.47-1C462.28,427.31,441.48,316.72,433.48,305.56Z"/><path class="cls-25" d="M395.51,253.48c5.66-6.55,10.06-12.47,36.72-3.95,8.33,2.66,23,10.62,19.67,16.12-5.77,9.58-13.25,19.06-15.32,26.41-1.28,4.54-.59,17.21-.11,18.87,2.07,7.22-9.29,10-21.59,10.27-13.15.26-26.9-7.6-27.05-9C383.4,269.77,390.89,258.81,395.51,253.48Z"/><path class="cls-26" d="M423.18,237.08l-4.68,9.72c0,1.64,8.25,5.42,9.28,2.44l.55-7.44Z"/><path class="cls-26" d="M426.07,234.21l-4,5.56a4.18,4.18,0,0,0,1.29,5.69,11.37,11.37,0,0,0,4.81,1.76c1.84.36,3.3-1.05,4-3.38a22.61,22.61,0,0,0,.94-7.7C433,232.41,429,230.79,426.07,234.21Z"/><path class="cls-20" d="M412.66,378.13a7.57,7.57,0,0,1-2.43,3.36c-5.49,3.48-11.11-1.65-11.69,1.65s2,24.19,0,32.44c-1.35,5.43-5.59,13.38-7.36,20.6a7,7,0,0,0,6.38-1.75c9-10.4,13.12-34.63,15.1-56.23Z"/><path class="cls-27" d="M451.15,405.45,430.68,393.9c4.47,18.56,11.15,33.31,15.66,40.37,1.67,2.62,8,.34,10.2-1.65s.7-17.4-2.27-37Z"/><path class="cls-24" d="M456.68,432.45a3.62,3.62,0,0,0,.52-1.38,12.86,12.86,0,0,0,.22-1.62c.1-1.11.11-2.23.1-3.34,0-2.43-.18-4.86-.38-7.28-.4-4.93-1-9.84-1.65-14.74-.38-2.82-.79-5.65-1.22-8.47l-3.12,9.83-.18-.1c1.85,10.42,3.18,19.84,3.79,25.82.09.87.2,1.7.31,2.49A5.17,5.17,0,0,0,456.68,432.45Z"/><path class="cls-23" d="M422,239.77l3.44-6c.35-.42,1.31-.37,1.69-.64-.49,1.22-1.37,3.9-1.17,4.46.49,1.44.77.35,2.87,1a13.09,13.09,0,0,1,4,2.41,19.27,19.27,0,0,1-.67,2.83c-.74,2.33-2.2,3.74-4,3.38a11.37,11.37,0,0,1-4.81-1.76A4.18,4.18,0,0,1,422,239.77Z"/><path class="cls-3" d="M428.33,239.93a11.15,11.15,0,0,0,3.51,1.25s-.38,1.37-1.35,1.57S428.3,241.7,428.33,239.93Z"/><path class="cls-26" d="M425,236.62a6.18,6.18,0,0,1,.4-1.11c.31-.69.62-1.75-.59-1.42-1.75.47-3.3,3.84-1.79,4.42C424.09,238.94,424.74,237.55,425,236.62Z"/><path class="cls-28" d="M403.32,290c7.33-4.76,7.1-28.95,5.36-35.55a15.18,15.18,0,0,0-4.94-7.83c-3.69,1.51-5.85,4.15-8.23,6.91-3.07,3.54-7.4,9.56-8.67,25.62C388.89,284.84,397.59,293.67,403.32,290Z"/><path class="cls-27" d="M388.56,389.19c-2.21,8.63-4.1,22.05-.34,44.07.7,4.1,7.13,3.72,9.34,1.17,7-8.1,11.05-24.58,13.44-41.67l-12.31,16.77Z"/><path class="cls-24" d="M398.27,433.56c3.43-4.36,5.55-9.71,7.23-14.95a131.75,131.75,0,0,0,4-16.5c.57-3.11,1.06-6.23,1.5-9.35l-11.71,15.95a37.23,37.23,0,0,1-.56,6,28.44,28.44,0,0,1-1.33,4.51c-1.31,3.6-2.88,7.1-4.22,10.69a57.11,57.11,0,0,0-2,6.31,7.35,7.35,0,0,0,4-.24,6.08,6.08,0,0,0,1.75-.91A7.36,7.36,0,0,0,398.27,433.56Z"/><path class="cls-29" d="M433.35,249.91c0,6.32-.61,15-3.54,22.56-4.54,11.74-11.19,34-11.53,48.59,10.9-.67,20.06-3.58,18.19-10.13-.48-1.66-1.17-14.33.11-18.87,2.07-7.35,9.55-16.83,15.32-26.41C455.06,260.39,441.8,252.88,433.35,249.91Z"/><path class="cls-26" d="M386.63,433.09c.76-2,2.67-3.15,5-3.61,1.44-.29,7.85-.93,8.66.18s-3.65,6.56-2.51,8.43c.49.81,10,12.3,6.44,13.68-9,3.49-14.78-6.56-18.1-8.52C384.34,442.23,386.42,433.62,386.63,433.09Z"/><path class="cls-26" d="M443.31,433.49c.64-2,3.66-3.85,5.91-4.46,1.42-.38,7.43-1,8.31,0s.27,7,1.52,8.79c.55.78,8.1,5.1,8.2,8.93,0,1.79-20.76,2.18-24.2.44C441.25,446.28,443.14,434,443.31,433.49Z"/><path class="cls-25" d="M433,235.38a13.65,13.65,0,0,0-5.7-.74,9.4,9.4,0,0,0-5.38,2.77s-1.29-5.22.81-6.81,4.83-3.29,8.69-.71C433.65,231.35,433,235.38,433,235.38Z"/><rect class="cls-30" x="478.81" y="242.5" width="47.83" height="1.7"/><path class="cls-20" d="M480.44,244.69l.5-2.19H455.66l-3-2.07h-9.17a.94.94,0,0,0-.95.95h0a1,1,0,0,1-.55.86l-3.3,1.54a.84.84,0,0,0-.48.75h0a.83.83,0,0,1-.83.83h-3.46a2.23,2.23,0,0,0-1.88,1,7.77,7.77,0,0,1-4.13,2.87c-5.64,2-16.22,2.32-23.19,2.95a14.53,14.53,0,0,0-1.16,8.27c.61,2.9,4.75,6.39,4.75,6.39l27-8.44,9.48-6.53a1.09,1.09,0,0,1,1.7.73h0c.51,1.24,2.15,3.78,6.79,2.37h0a6.49,6.49,0,0,0,.86-.28c2.16-.87,1.73-4.59,1.73-4.59h2.79a2.59,2.59,0,0,1,1.87.79l1,1.06a2.63,2.63,0,0,0,2.54.7l15-4a1.84,1.84,0,0,0,1.33-2.11l0-.13A4.23,4.23,0,0,1,480.44,244.69Zm-27.19,8.85s-.91,1.27-3.37.69h-.05a2,2,0,0,1-.64-3.55l.23-.17a2,2,0,0,1,1.18-.38h2.94A4.94,4.94,0,0,1,453.25,253.54Z"/><path class="cls-20" d="M528.62,241.42v-.17a.44.44,0,0,1,.44-.44h0a.45.45,0,0,0,.45-.45v-1.53a.45.45,0,0,0-.45-.44h-3.89a.45.45,0,0,0-.45.44v1.53a.45.45,0,0,0,.45.45h1.5a.44.44,0,0,1,.44.44v.17a.44.44,0,0,1-.44.44h-2.5a.45.45,0,0,0-.44.45v2.37a.44.44,0,0,0,.44.44h5.56a.45.45,0,0,0,.45-.44v-2.37a.45.45,0,0,0-.45-.45h-.67A.44.44,0,0,1,528.62,241.42Z"/><path class="cls-20" d="M396.78,272.47s3.71,21.33,15.41,29.12,18,2.47,20.66-6.32-7-.67-13.42-4.92S396.78,272.47,396.78,272.47Z"/><path class="cls-3" d="M462,303.88c2.83,3.57,6.44,2.29,9.89.27,5.24-3,1.34-19.15-.33-30s-5.72-21.74-9.24-21.37c-.87.09-4.27,0-5.4,3.53C453.54,266.84,455.68,295.89,462,303.88Z"/><path class="cls-26" d="M464.27,255.58s4.62-1.2,5.38-2.41.1-4.15-1.06-4.26-3,2-3,2,1.17-1.31.56-1.48-3.39,2-3.6,2.06-3.77,1.17-2.71,2.75S464.27,255.58,464.27,255.58Z"/><path class="cls-3" d="M408.54,256.87c-1.77-3-6-10-12.43-2.13s8.29,45.71,26.93,47.63S416.79,271,408.54,256.87Z"/><path class="cls-22" d="M408.54,256.87c-1.27-2.18-3.79-6.36-7.49-5.66,2.15,1.86,5.46,8.55,6.53,13.82,1.65,8.15,5.43,19.41,11.85,24.55,3.17,2.55,3.59-2.14,7.77-1.13C422.59,278.15,413.06,264.64,408.54,256.87Z"/><path class="cls-3" d="M417.54,290.41s15.25-34.64,24.59-34.37-6.53,45.17-15.52,46S417.54,290.41,417.54,290.41Z"/><path class="cls-26" d="M442.06,258.24A2.15,2.15,0,0,1,441,255.3c.9-1.83,2.53-4.4,4.67-4.75,3.36-.55,5.08-.28,5.08.41s-1.27,1.14-1.27,1.48a4.4,4.4,0,0,1-.69,3c-.92,1.37-2.37.34-4.12,2.58C444,258.77,443,258.61,442.06,258.24Z"/><path class="cls-22" d="M442.13,256a5.46,5.46,0,0,0-2.73.77,24,24,0,0,1,.31,11.61c-1.71,7.6-6.61,21.42-12.38,26.85a7.48,7.48,0,0,1-8.56,1.43c1.17,2.95,3.43,5.73,7.84,5.33C435.6,301.21,451.47,256.32,442.13,256Z"/><path class="cls-20" d="M421.7,236.62s3.14-5.66,3.69-6.36,1.38-2,3.48-1.12h.78s.15-.44.93-.37a2.65,2.65,0,0,1,1.88,1.05c.52.78-1.17.72-1.72.58a1.77,1.77,0,0,1-.92-.83l-.8,0a3.14,3.14,0,0,1-1.74,1.5c-1.08.24-1.25-.07-1.25-.07s-3.67,6.22-4.08,6.36S421.7,236.62,421.7,236.62Z"/><path class="cls-23" d="M688.88,622s-27.46-4.72-45.39-2.73-66.85,10.23-78.82,10c-6.33-.15-7.52,8.1-4,10,5.55,2.91,43.4,13.09,61.76,10.95s54.2-4,58-9.25S688.88,622,688.88,622Z"/><path class="cls-26" d="M567.41,627.18s2.91.19,3.19,1.54.38,15.35-3.08,15.55-17.51-3.83-19.36-4.54-10.74-13.66-7.25-15.87a9.18,9.18,0,0,1,9.32-.36c1.92,1.21,6.12,4.49,6.12,4.49Z"/><path class="cls-25" d="M518.29,591.69c.46.84-2.47,3.16-2.65,3.93-.41,1.8,55,49.25,55,49.25l-9.49,5.6S506.63,607.08,505,602,516.92,589.17,518.29,591.69Z"/><path class="cls-20" d="M678.64,663.42s-29.17,3.55-45.82,2.41-93.76-7.39-93.33-10.81.85-11.24,18.21-10.81,41.78-.89,55.42-4c17.86-4.06,45.67-17.47,71.92-11.56C701.72,632.41,688.08,662.41,678.64,663.42Z"/><path class="cls-22" d="M769.17,622.75a87,87,0,0,0,17.67,21.92C791.6,649,798.24,654,799,657.51c2.42,11.24-6.79,15-14.42,12s-38.89-21.1-33.36-31.11S769.17,622.75,769.17,622.75Z"/><path class="cls-20" d="M644.11,619.24l-.62.07c-4.83.53-11.92,1.53-19.93,2.68-7.07,7.71-10.15,21.36-11.32,28.35a60.52,60.52,0,0,0,10.2-.16c3.67-.42,8-.84,12.73-1.28Z"/><path class="cls-24" d="M613.12,640.22q-2.6.6-5.66,1.09c-3.16,6.68-4.87,15.77-5.73,22,7,.61,13.64,1.16,19.13,1.59,1.45-10,8.26-24.31,11.29-30.29C625.09,636.83,618.63,639,613.12,640.22Z"/><path class="cls-20" d="M766.54,659.18c2.79-7.08,3.27-20.72,3.27-20.72l-14.66,11.18A70.55,70.55,0,0,0,766.54,659.18Z"/><path class="cls-23" d="M691,649a10.3,10.3,0,0,0-2.09-.78c-11.37-2.92-43.75,6.08-57.41,6.93a266.3,266.3,0,0,1-39.91-.64c-10-1.06-31.37-1.06-37.56.22-3.75.77-8.51.54-10.59,1.84,15.87,3.49,75.07,8.27,89.41,9.25,16.65,1.14,45.82-2.41,45.82-2.41C683,663,688.21,656.36,691,649Z"/><path class="cls-20" d="M623.23,655.52c-6.84.18-13.86.1-20.13-.18-.6,2.88-1.05,5.64-1.37,8l.27,0,.8.07.36,0,1.05.09.34,0,.94.08.19,0,1.05.09.38,0,1,.09.18,0,1,.08.24,0,1.09.09h.14l1.07.09h.08l1.11.09h.16l2.21.18h0l5.43.43A56.12,56.12,0,0,1,623.23,655.52Z"/><path class="cls-24" d="M770.61,623c-4-13.2-27.7-9.45-41.48-4.33-26.87,10-36.89-3.42-44.66,5.18s-15.31,31.91-10.1,38.29,46.25,11.31,64.9,3.75C765.53,655.22,774.63,636.19,770.61,623Z"/><path class="cls-20" d="M770.61,623a11.21,11.21,0,0,0-6.34-7c-1.25,4.14-3.3,9.89-5.5,11.89-3.59,3.25-31.19,19-41.43,21.17A59.82,59.82,0,0,1,692,649c-5-1.11-12.18-4-17.8-4-1.91,7.24-2.3,14.05.16,17.07,5.2,6.39,46.25,11.31,64.9,3.75C765.53,655.22,774.63,636.19,770.61,623Z"/><path class="cls-22" d="M753.76,635.53s-1.81-8.71-12.48-9-25.19,8.92-26.68,20.14,18.57,15.8,30.2,9.61S753.76,635.53,753.76,635.53Z"/><path class="cls-20" d="M772.53,614.19a13.06,13.06,0,0,0,1-4.51c.16-2.68,0-5.21-2-5.8s-2.89.32-2.89.32S768,602,766.19,602c-2.16,0-3.2,1.05-3.36,3,0,0-2.14-.36-1.78,1.21a14.88,14.88,0,0,1-.11,4.36c-.58,3.16-2.65,6.79-.25,7.51C764.83,619.37,771.38,615.51,772.53,614.19Z"/><path class="cls-26" d="M764.89,614.1l-10,7.86c-.94,1.41,4.13,10.36,7.55,10,1-.1,1.71-1.58,2.06-3.46l1.58-10.45Z"/><path class="cls-20" d="M765.73,620.18c-1.39-1.3-3.26-3.11-3.26-3.11a8.09,8.09,0,0,0-.54,5.9,7.68,7.68,0,0,0,2.77,4Z"/><path class="cls-26" d="M765.53,611.44l-3.93,5.88a4.31,4.31,0,0,0,1.55,5.81,11.85,11.85,0,0,0,5,1.63c1.91.29,3.36-1.22,4-3.65a23.47,23.47,0,0,0,.66-8C772.55,609.3,768.37,607.79,765.53,611.44Z"/><path class="cls-3" d="M768.09,617.24a11.68,11.68,0,0,0,3.66,1.14s-.33,1.43-1.33,1.68S768.13,619.06,768.09,617.24Z"/><path class="cls-25" d="M769.42,622.51c-1.95-1-4.4,1.7-7.25-2.3a5.59,5.59,0,0,1-.49-3l-.08.13a4.31,4.31,0,0,0,1.55,5.81,11.85,11.85,0,0,0,5,1.63,3,3,0,0,0,2.91-1.28C770.7,623.44,770,622.81,769.42,622.51Z"/><path class="cls-26" d="M765,614.1a6.28,6.28,0,0,1,.24-1.28c.22-.81.37-2.05-1-1.8-2,.37-3.08,4.27-1.19,5.14C764.44,616.82,764.91,615.21,765,614.1Z"/><rect class="cls-30" x="819.7" y="619.17" width="50.96" height="1.81"/><path class="cls-29" d="M821.44,621.5l.53-2.33H795L791.81,617H782a1,1,0,0,0-1,1h0a1,1,0,0,1-.58.92l-3.52,1.65a.87.87,0,0,0-.51.79h0a.88.88,0,0,1-.88.89h-3.69a2.39,2.39,0,0,0-2,1.08,8.3,8.3,0,0,1-4.39,3.07c-6,2.12-17.28,2.46-24.71,3.13a15.49,15.49,0,0,0-1.23,8.81c.64,3.09,5,6.81,5,6.81l28.77-9,10.11-7a1.16,1.16,0,0,1,1.81.78h0c.54,1.32,2.28,4,7.23,2.52h0a6,6,0,0,0,.91-.3c2.31-.92,1.85-4.88,1.85-4.88h3a2.76,2.76,0,0,1,2,.84l1.09,1.12A2.76,2.76,0,0,0,804,630l16-4.3a2,2,0,0,0,1.42-2.25l0-.14A4.41,4.41,0,0,1,821.44,621.5Zm-29,9.43s-1,1.35-3.59.74l0,0a2.12,2.12,0,0,1-.69-3.78l.25-.18a2.19,2.19,0,0,1,1.26-.4h3.13A5.3,5.3,0,0,1,792.47,630.93Z"/><path class="cls-20" d="M872.77,618v-.17a.48.48,0,0,1,.48-.48h0a.47.47,0,0,0,.47-.47v-1.63a.47.47,0,0,0-.47-.47h-4.16a.47.47,0,0,0-.47.47v1.63a.47.47,0,0,0,.47.47h1.6a.48.48,0,0,1,.48.48V618a.47.47,0,0,1-.48.48H868a.48.48,0,0,0-.48.48v2.52a.48.48,0,0,0,.48.47H874a.48.48,0,0,0,.48-.47V619a.48.48,0,0,0-.48-.48h-.71A.47.47,0,0,1,872.77,618Z"/><path class="cls-20" d="M748.25,661.55,728.82,641s.64,16.66,6.89,26.1c1.25-.37,2.45-.77,3.56-1.22A78.15,78.15,0,0,0,748.25,661.55Z"/><path class="cls-22" d="M791,670.43s8.44.21,15.49-17.72,6.61-22.61,2.45-23.15-11.31,4.48-15,12.27S774.93,670.78,791,670.43Z"/><path class="cls-27" d="M761.16,608.07s7.88.06,12.21,1a.36.36,0,0,1,.27.35,6.3,6.3,0,0,1,0,1.75c-.21,1.31-.45,1.51-.45,1.51a.67.67,0,0,1-.64.47c-2,0-9.62,0-11.91-1.16A4.42,4.42,0,0,1,761.16,608.07Z"/><path class="cls-3" d="M729.32,643.32c-2.66-8.67,4.22-13.9,10-14.59a6,6,0,0,1,5,1.22c4.1,3.82,26.33,38.55,26.33,38.55s5.66-35.14,14.62-35.75a8.84,8.84,0,0,1,3.59,2.64c3.41,8.29,5.38,50-15.1,52.11C758.1,689.13,735.11,662.13,729.32,643.32Z"/><path class="cls-26" d="M783.78,636.9a2.32,2.32,0,0,1-1.21-3.19c1-2,2.75-4.79,5.07-5.17,3.67-.59,5.53-.29,5.53.45s-1.38,1.24-1.38,1.61a4.78,4.78,0,0,1-.75,3.25c-1,1.49-1.38.32-3.29,2.74C787.1,637.42,784.79,637.31,783.78,636.9Z"/><path class="cls-25" d="M808.92,633.59s4.92-1.29,5.73-2.57.11-4.43-1.13-4.54-3.25,2.12-3.25,2.12,1.25-1.39.6-1.57-3.62,2.11-3.84,2.2-4,1.24-2.88,2.93S808.92,633.59,808.92,633.59Z"/><path class="cls-26" d="M559.7,644.25s2.36,11.62-3,13.33-8.09,2.42-8.66,4.27,2.56,13.52-8.54,9.82-12.37-25.11-10-27.42,8.67-3,12-2.42S559.42,642.46,559.7,644.25Z"/><path class="cls-25" d="M601.28,735.81c-1.23-1.19-4.43.83-5.52.5C593.2,735.54,523.05,631,523.05,631l-7.63,8S579.73,739.42,587,745.18,604.93,739.36,601.28,735.81Z"/><path class="cls-22" d="M790.51,643.55c-.31,1.25-.69,2.67-1.11,4-1.13,3.77.22,6.29.71,11.84s-4.87,9.07-7.78,17.07-4.77,5.66-12.25,6.3-11.2-4.16-14.18-12.3-11.85-12.78-17.72-19.07c-4.72-5.07-6.61-14.67-7.17-18.23a10.47,10.47,0,0,0-1.69,10.12c5.79,18.81,28.78,45.81,44.41,44.18C790.2,685.78,792.15,658.48,790.51,643.55Z"/><path class="cls-31" d="M275,348.15l92,76.45L380.67,421l-90.08-75.86S282.17,346.7,275,348.15Z"/><path class="cls-32" d="M51.23,695.38s54.42,46,156,28.32S306.41,388.92,188,385.91-35.81,617.43,51.23,695.38Z"/><g class="cls-33"><path class="cls-34" d="M199.84,387.33c11.16,21.18,39.85,78.19,41.92,108.29,2.58,37.43-29.16,33.35-22.71,59.72s34.35,48.23,10.26,67.37S154,618,137,646.27s-32,35.07-68,13.41c-30.39-18.27-35.78-49.51-49.68-53.49-.93,35.95,8.56,68.23,32,89.19,0,0,54.42,46,156,28.32C305.3,706.63,306.45,410.52,199.84,387.33Z"/></g><path class="cls-35" d="M148.06,608.36c-.22,1.22-1.89,12.9-4.38,30.4-3.22,22.63-7.81,55-12.4,87-3.88,27-7.76,53.81-10.81,74.26H105.18c4.08-25.85,10.14-57.43,13.36-76.37,1.41-8.32,2.28-14.2,2.18-16.08-.36-6.9-22.51-26.14-35.14-39.27-5.54-5.76-9.25-10.35-8.48-12.21,1.1-2.68,10.15,5.79,20.12,15.79,12.8,12.84,27.12,28.21,28.09,25.75,1.59-4,5-29,3.42-39.28a13.3,13.3,0,0,0-.55-2.36c-2.76-8-37.86-59.81-37-62s39.18,57.7,40,56,32-167.48,32.76-171.65c-.44,3.31-14.43,109.36-14.47,117.2s51.67-44.65,52.95-38.8S149.05,602.92,148.06,608.36Z"/><polygon class="cls-19" points="893.93 373.01 952.31 373.01 929.68 393.39 952.31 414.17 893.93 414.17 893.93 373.01"/><path class="cls-20" d="M893.93,580.27a2.22,2.22,0,0,1-2.22-2.22V373.21a2.22,2.22,0,0,1,4.43,0V578.05A2.22,2.22,0,0,1,893.93,580.27Z"/></g></g></g></svg>