<svg xmlns="http://www.w3.org/2000/svg" xmlns:xlink="http://www.w3.org/1999/xlink" viewBox="0 0 1000 1000"><defs><style>.cls-1{isolation:isolate;}.cls-2{fill:#ff8b85;}.cls-3{fill:url(#_10);}.cls-4{fill:#311e69;}.cls-5{fill:#1e1240;}.cls-6{fill:#614cd4;}.cls-7{fill:#ad263d;}.cls-8{fill:#8c2d63;}.cls-9{fill:#fff;}.cls-10{fill:#ff6161;}.cls-11{fill:#d95f76;}.cls-12,.cls-13{mix-blend-mode:screen;}.cls-12{fill:url(#_16);}.cls-13{fill:url(#_16-2);}.cls-14{fill:#ffbdbb;}</style><linearGradient id="_10" x1="281.61" y1="1665.96" x2="662.3" y2="1023.79" gradientTransform="translate(-919.75 -456.25) rotate(-41.83)" gradientUnits="userSpaceOnUse"><stop offset="0" stop-color="#614cd4"/><stop offset="1" stop-color="#ff8b85"/></linearGradient><linearGradient id="_16" x1="459.71" y1="830.14" x2="463.68" y2="849.42" gradientTransform="matrix(0.86, -0.23, 0.26, 0.97, -151.49, -370.38)" gradientUnits="userSpaceOnUse"><stop offset="0" stop-color="#fff"/><stop offset="0.03" stop-color="#f1f1f1"/><stop offset="0.19" stop-color="#b2b2b2"/><stop offset="0.35" stop-color="#7c7c7c"/><stop offset="0.5" stop-color="#4f4f4f"/><stop offset="0.64" stop-color="#2d2d2d"/><stop offset="0.77" stop-color="#141414"/><stop offset="0.9" stop-color="#050505"/><stop offset="1"/></linearGradient><linearGradient id="_16-2" x1="471.59" y1="835.87" x2="473.45" y2="844.88" xlink:href="#_16"/></defs><title>virtual-challenge</title><g class="cls-1"><g id="Layer_2" data-name="Layer 2"><g id="Layer_1-2" data-name="Layer 1"><rect class="cls-2" width="1000" height="1000"/><path class="cls-3" d="M277.43,349.45s-52.39-202.7,40.16-263,188.9,133.08,162,266.09c0,0,52.72-62.43,117.86-27.64s-57.35,374.83-26,467.34S414.33,944.78,345.58,754,86.37,507.38,109,406.72C127.34,325.11,277.43,349.45,277.43,349.45Z"/><path class="cls-2" d="M494.68,771.1c-12.14-44.67-25.41-97.61-38.74-158.15L591.38,321.88c-1.65-.74-3.28-1.38-4.9-2L454.08,604.43c-.44-2-.87-4-1.3-6-19.69-91.2-43.69-202.75-65-301.81l79.58-94.37c-.65-2-1.3-3.92-2-5.86l-79,93.69c-19.61-91.27-36.76-171.17-45.86-213.59-1.71.38-3.41.82-5.12,1.36,5.12,23.85,12.75,59.43,21.94,102.2l-85.24-26.53q-.74,2.53-1.41,5.1L358.62,186c20.2,94.05,47.41,220.69,71.66,333.21L112.61,395.5c-.68,1.6-1.3,3.26-1.86,5l320.86,125c5.54,25.7,10.91,50.61,16,74.16Q457.86,647,468,688.47L290.05,651.12c1.54,2.1,3.08,4.22,4.6,6.37l174.72,36.68c7.48,30.55,14.77,58.5,21.68,83.74a2.3,2.3,0,0,0,.1.35c10.7,39.09,20.47,71.63,28.56,97.18,1.71-.49,3.38-1,5-1.6-8-25.25-17.64-57.37-28.21-95.93l78.87-120c.67-4.21,1.36-8.48,2.07-12.77Z"/><path class="cls-4" d="M346.57,575.2h97a9.83,9.83,0,0,1,9.83,9.83v4.12A9.83,9.83,0,0,1,443.6,599h-97a0,0,0,0,1,0,0V575.2a0,0,0,0,1,0,0Z"/><path class="cls-5" d="M471,852.41H235.53a18.14,18.14,0,0,0,0,36.27H471a18.14,18.14,0,1,0,0-36.27Z"/><polygon class="cls-5" points="218.06 865.7 285.66 599.86 317.66 599.86 251.66 865.7 218.06 865.7"/><path class="cls-5" d="M768.74,870.29,214.65,823.72c-3.08-.26-68.23,14.77-68.23,14.77s55,24.26,64.88,25.09l258.07,21.69,248,35.93,53.48-11.35h0a20.07,20.07,0,0,0,16.13-18h0A20.06,20.06,0,0,0,768.74,870.29Z"/><path class="cls-4" d="M709.5,923.92l-561-47.15a16.58,16.58,0,0,1-15.09-17.86L134,852a16.59,16.59,0,0,1,17.87-15.09l561,47.15a16.58,16.58,0,0,1,15.09,17.87l-.58,6.9A16.58,16.58,0,0,1,709.5,923.92Z"/><path class="cls-5" d="M391.35,888.68H155.87a18.13,18.13,0,1,0,0,36.26H391.35a18.13,18.13,0,1,0,0-36.26Z"/><path class="cls-6" d="M700,908.09l-.32,0-544-47.33a3.67,3.67,0,0,1,.64-7.31l544,47.34a3.67,3.67,0,0,1-.31,7.32Z"/><polygon class="cls-5" points="138.41 901.97 206 636.13 238 636.13 172 901.97 138.41 901.97"/><path class="cls-5" d="M162.92,550.05c1.27,19,8.12,61.54,43.08,86.08l75.05,9A9.19,9.19,0,0,0,291.34,636V630a18.71,18.71,0,0,1,15.29-18.39l34.72-6.44A14.54,14.54,0,0,0,352.75,587c-5.92-21.63-21.74-60.41-61.41-78.61-49.59-22.76-104.28-22.54-123,14.05A52.85,52.85,0,0,0,162.92,550.05Z"/><path class="cls-6" d="M294,523.3c5.94,8.77,6.42,18.8,1.09,22.41s-14.48-.56-20.41-9.33-6.42-18.8-1.08-22.41S288.07,514.53,294,523.3Z"/><path class="cls-4" d="M376.65,643.57H274.17a24.75,24.75,0,0,0,7.17-10.67c2.84-8.72,1.83-13.11,1.83-13.11h93.48a11.89,11.89,0,0,1,11.89,11.89h0A11.89,11.89,0,0,1,376.65,643.57Z"/><path class="cls-4" d="M286.12,554.21l-63.18,5.37a2.91,2.91,0,0,1-2.81-1.52l-32.56-60.54a2.91,2.91,0,0,1,2.32-4.27l63.18-5.37a2.91,2.91,0,0,1,2.81,1.52l32.56,60.53A2.92,2.92,0,0,1,286.12,554.21Z"/><polygon class="cls-6" points="249.66 497.54 200.43 501.72 226.35 549.92 275.58 545.74 249.66 497.54"/><path class="cls-4" d="M270.55,526.23l-16.92,1.44a4.75,4.75,0,0,0-3.76,7h0a4.77,4.77,0,0,0,4.56,2.44l21.15-1.8Z"/><polygon class="cls-5" points="199.34 523.73 250 561.73 215.34 561.73 199.34 523.73"/><path class="cls-6" d="M262.43,532.23c0,1.32-2.14,2.39-4.77,2.39s-4.77-1.07-4.77-2.39,2.14-2.39,4.77-2.39S262.43,530.91,262.43,532.23Z"/><path class="cls-6" d="M204.33,542.32c5.93,8.77,6.42,18.8,1.08,22.42s-14.47-.57-20.4-9.34-6.42-18.8-1.09-22.41S198.4,533.56,204.33,542.32Z"/><path class="cls-7" d="M555.4,356.55S613.16,395,615.76,425.8s-31.22,61.5-44.49,50.58S537.17,342.91,555.4,356.55Z"/><path class="cls-8" d="M604.37,400.82c-17.54-23.34-49-44.27-49-44.27-12.63-9.45-6.51,46.43,2.85,85.3C589.5,429.7,600.52,411.37,604.37,400.82Z"/><path class="cls-5" d="M572.45,379.46s22.82,40.82,23.13,48.23-4.39,22.53-7.41,22.53S572.45,379.46,572.45,379.46Z"/><path class="cls-7" d="M509.56,824.05s.5,17-2.34,21.27a8.4,8.4,0,0,0,6.24,3.42,89.18,89.18,0,0,0,17.5-.38c-1.14-6.77-.36-18.62-.26-22.38Z"/><path class="cls-9" d="M511,860c-11.5-.29-24.28-2.49-30.61-3.71a11.16,11.16,0,0,0-.51,2.28c-.48,4.12,41.3,8.83,48.79,5.69,2-.84,3.13-2.92,3.51-5.53A133,133,0,0,1,511,860Z"/><path class="cls-5" d="M511,860a133,133,0,0,0,21.18-1.27,20,20,0,0,0-.76-8.27,19,19,0,0,1-.46-2.1,89.18,89.18,0,0,1-17.5.38,8.4,8.4,0,0,1-6.24-3.42,2,2,0,0,1-.19.28c-1.34,1.66-4.78,2.61-9.54,4-6.91,2.59-14.86-.06-17.1,6.7C486.72,857.51,499.5,859.71,511,860Z"/><path class="cls-10" d="M674.49,673.52s15.87-6,20.87-4.68a8.33,8.33,0,0,0,1.22-7,89.48,89.48,0,0,0-6-16.44c-6,3.27-17.5,6.38-21.09,7.5Z"/><path class="cls-9" d="M708,660.51c3.45,11,5.51,23.78,6.41,30.16a11.2,11.2,0,0,0,2.32-.26c4-.88-5-41.93-10.42-48-1.45-1.63-3.79-2-6.38-1.53A132.92,132.92,0,0,1,708,660.51Z"/><path class="cls-5" d="M708,660.51A132.92,132.92,0,0,0,700,640.89a19.81,19.81,0,0,0-7.57,3.4,19.84,19.84,0,0,1-1.84,1.11,89.48,89.48,0,0,1,6,16.44,8.33,8.33,0,0,1-1.22,7l.33.1c2,.72,4,3.67,6.86,7.72,4.7,5.71,4.77,14.09,11.89,14C713.54,684.29,711.48,671.49,708,660.51Z"/><path class="cls-5" d="M612,657.51s-16.2-129.38-29.49-145.23c-9.53-11.36-54-.81-71.81,14.65l-46.35.78s-9.4,104.11-6.64,153.93,26.93,155.91,39.53,157.26,29.62,1.29,38.36-7.58c4.18-4.24-21-132.25-22.66-156.36-.49-7.37.34-53.23,6.2-81.21,13.28,42.72,26,106,59.08,117.22,43.09,14.54,80.51-18.39,105-37.45,8.36-6.5,3-19.44-2.79-26.21C668.34,633.28,612,657.51,612,657.51Z"/><path class="cls-11" d="M562.68,364c-8.9-11.49-34-24.67-62.75-16.54s-32.23,18.79-37.68,26.95C451,391.15,455.74,473,457.11,492.6c3,43.54-1.15,51.25,44.42,50.66,38.73-.5,92.74,10.9,94.87-10C599.4,504,597,408.2,562.68,364Z"/><path class="cls-8" d="M596.4,533.31c3-29.3.57-125.11-33.72-169.34-6.93-9-23.72-18.92-44.37-19.05,5.79,8.66,14.91,24.93,21.48,49.23,8.79,32.52.79,123.73-1.84,150.63C567.54,546.67,594.9,548,596.4,533.31Z"/><path class="cls-5" d="M484.93,495.12a259.56,259.56,0,0,1-27.27,6.12c.91,15.19,1.32,25.15,4.69,31.54,36.77-2.13,62.79-25.6,77.13-54.15,15.27-30.4,18.29-65.36,18.29-65.36S506.37,488.77,484.93,495.12Z"/><path class="cls-4" d="M465.3,323.31c-.39-5.32,6.57-14,10-14.38s4.07,3.14,4.78,4.71c.95,2.12,15.14.77,17,7.61s6.69,24.16-9,21.82C484.74,342.57,465.89,331.47,465.3,323.31Z"/><path class="cls-10" d="M492.65,333.52l13,20.22c.85,3.2-14.15,16.5-20.25,13.73-1.79-.81-2.16-4-1.61-7.68l3.68-20.26Z"/><path class="cls-4" d="M486.77,343.6c3.38-1.53,8-3.67,8-3.67a15.75,15.75,0,0,1-2.72,11.2,15.1,15.1,0,0,1-7.65,5.7Z"/><path class="cls-10" d="M485.66,326.56l8.12,11.14a8.41,8.41,0,0,1-2.55,11.45c-3.05,2-5.22,2.7-9.66,3.57-3.7.72-6.64-2.1-8.16-6.77a45.89,45.89,0,0,1-1.91-15.49C471.81,323,479.83,319.69,485.66,326.56Z"/><path class="cls-10" d="M487.41,332.14a12,12,0,0,0,.3-2.53c.05-1.63.49-4,2.87-2.78,3.45,1.82,2.74,10.46-1.29,11C486.29,338.24,486.9,334.23,487.41,332.14Z"/><path class="cls-9" d="M481.92,341.27a22.47,22.47,0,0,1-7.26,1.78,2.92,2.92,0,0,0,2.14,2.09C478.7,345.74,481.63,344.82,481.92,341.27Z"/><path class="cls-7" d="M479,348.44c3.73-2.09,8.71,3,13.94-5.05,1-1.5.85-4.29.71-5.93l.17.24a8.41,8.41,0,0,1-2.55,11.45c-3.05,2-5.22,2.7-9.66,3.57a5.85,5.85,0,0,1-5.77-2.26C476.55,350.35,477.82,349.08,479,348.44Z"/><path class="cls-10" d="M541.35,356.83c-31.75-6.15-30.9,88.59-74.44,110.72-30.12,15.32-126.19-44.35-140.49-29.68-17.75,18.2,12.81,38.47,40.91,55.08s77,42.14,121.35,25C547,495.41,581.84,364.68,541.35,356.83Z"/><path class="cls-7" d="M558.76,394.86c-8,12.56-43.91,86.56-66,96.24-13.7,6-58.54,9.62-94.52.54s-67.13-45.35-75-46.22a10.06,10.06,0,0,0-1.53-.05C316.92,461.5,343,478.59,367.33,493c28.1,16.62,77,42.14,121.35,25C528.27,502.66,557,437.59,558.76,394.86Z"/><path class="cls-10" d="M328.93,447.13s3.48-6.14.62-9.52-4.69-8.59-7.29-9.11S319.4,430,319.4,430s-6-5.62-9.37-4.32-2.6,7.87-3.64,11.35,11,14.41,14.62,14.41S328.93,447.13,328.93,447.13Z"/><path class="cls-4" d="M529.1,481.61c2.27-3.42,4.43-7,6.47-10.62L487,453.68S500.29,476.87,529.1,481.61Z"/><path class="cls-11" d="M541.35,356.83c-26.59-5.15-30.32,60.48-56.42,94.94,6.27,6.16,25.16,20.87,48.81,25.51C562.68,430.5,570.22,362.43,541.35,356.83Z"/><path class="cls-8" d="M506.43,467.15a96.48,96.48,0,0,0,27.31,10.13c28.5-46.07,36.25-112.79,8.89-120.15.89,6.23,2.21,19.86-.58,33.67S517.65,446.17,506.43,467.15Z"/><path class="cls-9" d="M607.38,669.13a3.26,3.26,0,0,1-1.81-.51c-1.57-1-1.72-3-1.68-4.67.29-11.13-21.42-105.33-21.64-106.28a1.82,1.82,0,0,1,3.54-.82c.9,3.9,22,95.61,21.73,107.2a6.26,6.26,0,0,0,.08,1.43c1-.12,3.68-1.46,6.24-2.75,9.1-4.58,26-13.11,55.43-16.26a1.81,1.81,0,0,1,.38,3.61c-28.73,3.08-45.28,11.42-54.18,15.89C611.64,667.9,609.21,669.13,607.38,669.13Z"/><path class="cls-9" d="M605.74,678.88c-2.5,0-4.78-1.19-6.73-4.42-4.87-8.07-22.49-105.77-24.49-116.88a1.81,1.81,0,0,1,3.57-.64c7.79,43.38,20.61,110,24,115.65,2.49,4.13,4.82,3.38,13-1.35,2.18-1.27,4.65-2.7,7.38-4,10.4-5.06,32.51-12.85,46.93-13.49a1.82,1.82,0,0,1,.16,3.63c-13.9.61-35.37,8.19-45.5,13.12-2.61,1.27-5,2.67-7.15,3.91C613,676.67,609.14,678.88,605.74,678.88Z"/><path class="cls-9" d="M530.33,829.41a1.82,1.82,0,0,1-1.78-1.49c-.21-1.16-21.21-116.23-23.51-144.42s3.17-89.8,3.23-90.42a1.83,1.83,0,0,1,2-1.64,1.81,1.81,0,0,1,1.64,2c-.05.61-5.51,61.85-3.23,89.8s23.26,142.9,23.47,144.06a1.81,1.81,0,0,1-1.46,2.11Z"/><path class="cls-9" d="M518.26,828.34a1.82,1.82,0,0,1-1.79-1.51c-.2-1.16-19.74-116.49-21.68-144.7s4.31-89.76,4.37-90.38a1.81,1.81,0,0,1,3.61.38c-.06.61-6.29,61.78-4.36,89.75s21.44,143.18,21.64,144.34a1.81,1.81,0,0,1-1.49,2.09A1.53,1.53,0,0,1,518.26,828.34Z"/><path class="cls-5" d="M466.94,331a1.63,1.63,0,0,1,0-2.26c1.12-1,2.12.17,5.1,0a26.75,26.75,0,0,0,9.93-2.87c2.44-1.45,4.74-2,5.81-.36s3.17,9.17,2.88,10c-.67,2-2.14,1.15-2.14,1.15s-.93-6.49-2.22-7.64-3.66-.58-6.73.35-5.45,2.24-7.6,2.05S467.83,332,466.94,331Z"/><path class="cls-9" d="M487.12,326.49a2.49,2.49,0,0,0-2.72-.57l-4.7,2a20.39,20.39,0,0,1-3.16,1c-.61.14-1.23.27-1.85.39a19.63,19.63,0,0,1-5.63.27l-1.21-.11a2.25,2.25,0,0,0-1.94.78l0,0L462,334.57l25.53,5.37,1.46-1.46,1-1.35a9.22,9.22,0,0,0-.29-4.06L488,328A3.14,3.14,0,0,0,487.12,326.49Z"/><path class="cls-6" d="M487.54,332.8c-.25-1.19-1-4.06-2.32-4.48-1.7-.53-4.12,1.07-5.78,1.67a70.65,70.65,0,0,1-9.12,2.41,38.49,38.49,0,0,1-5.1.25,6,6,0,0,0-1.08.08,1.58,1.58,0,0,0-.95.52L462,334.57l25.11,6.19,1.88-2.28-1.12-4.32C487.75,333.71,487.64,333.26,487.54,332.8Z"/><path class="cls-6" d="M482.43,329.73l-7,1.88a54.27,54.27,0,0,1-7.37,1.46l-4.37.56a3,3,0,0,0-2.25,3.9l1.57,5.82a3.08,3.08,0,0,0,3.24,2.41l5-.65a55.85,55.85,0,0,0,7.37-1.46l7-1.89a3,3,0,0,0,1.91-3.82L486,332.07A3,3,0,0,0,482.43,329.73Z"/><path class="cls-12" d="M467.37,333.69s-3.91-.15-5.09,1.4.85,7,1.29,8c.52,1.13.88,2,2.79,1.82S470.37,333.37,467.37,333.69Z"/><path class="cls-13" d="M469.29,335a1.11,1.11,0,0,1,.79-1.36,70.29,70.29,0,0,0,7.95-1.92c1.45-.66,1.72,2.61-1.9,4.36s-5.63,1.78-6.14,1.15A7.06,7.06,0,0,1,469.29,335Z"/><path class="cls-5" d="M486.34,327.7s8.4-5.46,10.15-7.85c0,0,1.53,1.7,1.65,5.44,0,0-5.18,5.89-9.58,7.14Z"/><path class="cls-14" d="M700,316.67a45.49,45.49,0,0,1-25.26-7.62A6.64,6.64,0,1,1,682.06,298a32.18,32.18,0,0,0,17.9,5.39h.32a6.65,6.65,0,0,1,.11,13.29Zm32.26-17.1a6.65,6.65,0,0,1-5.49-10.38A32.11,32.11,0,0,0,732.3,271c0-.41,0-.83,0-1.25a6.64,6.64,0,0,1,13.28-.49c0,.57,0,1.15,0,1.72a45.38,45.38,0,0,1-7.87,25.64A6.63,6.63,0,0,1,732.22,299.57ZM661,278.43a6.64,6.64,0,0,1-6.64-6.53v-.83a45.5,45.5,0,0,1,7.38-24.93,6.64,6.64,0,0,1,11.13,7.26A32.19,32.19,0,0,0,667.61,271v.63a6.65,6.65,0,0,1-6.53,6.76Zm59.93-33.63a6.59,6.59,0,0,1-3.57-1.05,32.46,32.46,0,0,0-18.32-5,6.64,6.64,0,0,1-.37-13.28,45.61,45.61,0,0,1,25.84,7.13,6.64,6.64,0,0,1-3.58,12.24Z"/><path class="cls-14" d="M535.48,160a6.65,6.65,0,0,1-2.3-.41,38.23,38.23,0,0,1-20.64-18.16,6.64,6.64,0,1,1,11.77-6.17,25,25,0,0,0,13.48,11.87A6.64,6.64,0,0,1,535.48,160Zm34.43-8.46a6.65,6.65,0,0,1-4.92-11.1,25,25,0,0,0,3.29-28.9,6.64,6.64,0,0,1,11.6-6.48,38.27,38.27,0,0,1-5,44.29A6.63,6.63,0,0,1,569.91,151.58Zm-47.48-41.77a6.64,6.64,0,0,1-5-11,38.22,38.22,0,0,1,24.2-13.07A6.64,6.64,0,0,1,543.27,99a24.9,24.9,0,0,0-15.79,8.54A6.63,6.63,0,0,1,522.43,109.81Z"/></g></g></g></svg>