<svg xmlns="http://www.w3.org/2000/svg" xmlns:xlink="http://www.w3.org/1999/xlink" version="1.1" x="0px" y="0px" viewBox="0 0 100 125" enable-background="new 0 0 100 100" xml:space="preserve"><g><path d="M91.879,84.492C83.21,72.098,80.792,61.73,83.89,47.077c3.243-2.512,4.975-6.359,4.975-11.313   c0-1.162-0.402-2.15-1.161-2.859c0.084-0.341,0.166-0.682,0.244-1.022c0.004-0.017,0.009-0.035,0.013-0.052   c0.076-0.336,0.146-0.672,0.217-1.008c0.048-0.226,0.096-0.453,0.14-0.677c0.06-0.306,0.115-0.613,0.169-0.921   c0.044-0.254,0.085-0.509,0.124-0.763c0.046-0.3,0.093-0.601,0.132-0.902c0.004-0.036,0.011-0.073,0.016-0.109   c0.001-0.007-0.003-0.013-0.002-0.02c0.374-2.99,0.368-6.083-0.393-9.464C86.145,8.108,76.918,1.739,64.857,1.739   c-2.797,0-5.712,0.337-8.665,1.001C46.02,5.028,33.502,9.396,31.224,21.193L11.5,23.691c-2.201,0.279-3.786,2.311-3.532,4.529   l2.696,23.506c0.235,2.07,2.003,3.631,4.111,3.631l17.398-0.359c0.632,4.295,1.912,8.467,2.725,11.09   c0.256,0.826,0.469,1.514,0.604,2.018c0.183,0.686,0.3,1.592,0.423,2.553c0.356,2.773,0.8,6.225,3.339,7.631   c3.354,1.857,6.48,2.008,9.284,2.008c0.275,0,0.548,0,0.817-0.002h0.001v16.49c0,0.504,0.377,0.932,0.879,0.992   c2.641,0.322,5.32,0.484,7.959,0.484c0.001,0,0.001,0,0.002,0c9.732,0,23.455-2.168,33.567-12.498   C92.11,85.42,92.154,84.887,91.879,84.492z M78.698,34.64l-15.367,1.873l-0.625-5.123l23.872-2.912   c-0.016,0.096-0.027,0.191-0.043,0.287c-0.058,0.337-0.124,0.677-0.19,1.017c-0.048,0.243-0.092,0.485-0.143,0.728   c-0.103,0.482-0.216,0.975-0.335,1.473c-0.483-0.108-0.998-0.164-1.549-0.121C82.409,32.007,80.597,32.906,78.698,34.64z    M47.885,49.428l-2.58-25.653l6.438,3.2l2.151,16.821L47.885,49.428z M55.798,42.914l-1.993-15.596h6.595   c1.438,0,2.685,0.777,3.385,1.926l-2.313,0.281c-0.264,0.033-0.503,0.168-0.666,0.377c-0.164,0.209-0.237,0.475-0.205,0.737   l0.867,7.109c0.062,0.507,0.492,0.879,0.991,0.879c0.04,0,0.081-0.003,0.122-0.007l1.614-0.197   c-0.308,1.447-1.376,2.608-2.864,3.007L55.798,42.914z M56.632,4.691c2.809-0.632,5.576-0.952,8.226-0.952   c11.259,0,19.519,5.62,21.554,14.667c0.636,2.822,0.689,5.461,0.434,8.024l-20.926,2.553c-0.913-2.149-3.044-3.665-5.52-3.665   h-7.497l-9.633-4.789c-0.163-0.097-0.331-0.178-0.503-0.25l-0.123-0.061c-0.034-0.018-0.071-0.017-0.107-0.029   c-0.579-0.199-1.198-0.275-1.862-0.193l-7.36,0.933C35.17,12.99,42.705,7.824,56.632,4.691z M14.775,54.357v-1   c-1.091,0-2.004-0.799-2.125-1.857L9.954,27.994c-0.13-1.137,0.677-2.176,1.798-2.318l29.174-3.695   c0.105-0.014,0.21-0.02,0.313-0.02c0.214,0,0.416,0.034,0.609,0.096l0.527,0.262c0.047,0.031,0.094,0.059,0.14,0.094   c0.47,0.371,0.728,0.842,0.788,1.439l2.675,26.598c0.03,0.301,0.004,0.579-0.078,0.84l-1.074,1.008   c-0.105,0.098-0.182,0.215-0.234,0.34c-0.192,0.066-0.394,0.111-0.613,0.115l-29.155,0.605L14.775,54.357z M58.206,96.262   c-2.268,0-4.564-0.123-6.84-0.369V80.25c7.879-0.432,14.133-5.109,20.13-15.023c0.286-0.473,0.135-1.088-0.338-1.373   c-0.474-0.287-1.088-0.135-1.373,0.338c-5.899,9.752-11.954,14.1-19.631,14.1l-0.799,0.004c-2.907,0.016-5.896,0.031-9.122-1.756   c-1.653-0.914-2.01-3.689-2.324-6.137c-0.132-1.029-0.257-2-0.475-2.814c-0.141-0.523-0.36-1.234-0.626-2.092   c-0.777-2.51-1.996-6.484-2.619-10.541l9.829-0.203c1.154-0.023,2.177-0.508,2.957-1.398c0.236-0.27,0.417-0.564,0.572-0.869   l7.905-7.409l6.396-1.714c2.461-0.659,4.155-2.706,4.398-5.188l11.157-1.361c0.053,0.12,0.129,0.231,0.23,0.327   c0.403,0.378,1.035,0.358,1.413-0.044c1.95-2.076,3.674-3.105,5.424-3.24c0.784-0.061,1.446,0.119,1.862,0.504   c0.352,0.326,0.53,0.799,0.53,1.404c0,8.561-5.571,11.404-10.245,12.281c-0.543,0.102-0.9,0.624-0.798,1.167   c0.09,0.48,0.51,0.815,0.981,0.815c0.062,0,0.123-0.006,0.186-0.018c1.691-0.316,3.205-0.821,4.553-1.482   c-2.607,14.004-0.082,24.307,8.221,36.42C80.192,94.281,67.367,96.262,58.206,96.262z"/><path d="M49.124,60.148l-2.354-0.713c-0.743-0.225-1.4,0.041-1.928,0.254c-0.323,0.133-0.622,0.256-0.886,0.244   c-0.304-0.014-0.533-0.133-0.851-0.299c-0.371-0.191-0.832-0.432-1.437-0.459c-0.846-0.035-1.708,0.303-2.388,0.578   c-0.149,0.061-0.295,0.119-0.435,0.172c-0.518,0.193-0.78,0.77-0.587,1.287c0.192,0.518,0.769,0.779,1.286,0.586   c0.156-0.057,0.318-0.123,0.486-0.191c0.524-0.213,1.14-0.449,1.547-0.434c0.155,0.006,0.322,0.09,0.604,0.236   c0.396,0.205,0.939,0.488,1.684,0.521c0.672,0.029,1.265-0.201,1.727-0.389c0.203-0.08,0.514-0.201,0.597-0.193l2.354,0.713   c0.097,0.029,0.194,0.045,0.29,0.045c0.43-0.002,0.826-0.279,0.957-0.711C49.951,60.867,49.652,60.309,49.124,60.148z"/><path d="M45.775,63.068c-1.058,0.58-2.149,0.518-3.443-0.197c-0.481-0.266-1.091-0.09-1.358,0.393   c-0.267,0.484-0.091,1.092,0.394,1.359c1.012,0.559,1.999,0.838,2.952,0.838c0.833,0,1.641-0.213,2.417-0.639   c0.484-0.266,0.662-0.873,0.396-1.357C46.868,62.98,46.26,62.803,45.775,63.068z"/><path d="M40.514,25.267c-0.745-0.588-1.608-0.834-2.582-0.711L14.99,27.462c-1.848,0.234-3.176,1.939-2.962,3.799l0.135,1.17   l1.984-0.24l-0.133-1.158c-0.089-0.777,0.462-1.488,1.228-1.586l22.941-2.906c0.074-0.009,0.147-0.014,0.219-0.014   c0.327,0,0.604,0.098,0.872,0.31c0.326,0.257,0.498,0.571,0.539,0.985l0.125,1.244l1.986-0.241l-0.121-1.202   C41.708,26.671,41.262,25.857,40.514,25.267z"/></g><text x="0" y="115" fill="#000000" font-size="5px" font-weight="bold" font-family="'Helvetica Neue', Helvetica, Arial-Unicode, Arial, Sans-serif">Created by Nikita Kozin</text><text x="0" y="120" fill="#000000" font-size="5px" font-weight="bold" font-family="'Helvetica Neue', Helvetica, Arial-Unicode, Arial, Sans-serif">from the Noun Project</text></svg>