<?xml version="1.0" standalone="no"?>
<!DOCTYPE svg PUBLIC "-//W3C//DTD SVG 20010904//EN"
 "http://www.w3.org/TR/2001/REC-SVG-20010904/DTD/svg10.dtd">
<svg version="1.0" xmlns="http://www.w3.org/2000/svg"
 width="500.000000pt" height="500.000000pt" viewBox="0 0 500.000000 500.000000"
 preserveAspectRatio="xMidYMid meet">

<g transform="translate(0.000000,500.000000) scale(0.100000,-0.100000)"
fill="#000000" stroke="none">
<path d="M2715 2915 c-85 -20 -171 -51 -220 -79 -57 -34 -121 -106 -135 -153
l-12 -40 -147 -18 c-80 -10 -154 -22 -163 -27 -35 -17 -36 -39 -13 -237 19
-162 26 -197 41 -208 14 -11 52 -13 156 -11 l137 3 21 -85 c12 -47 29 -119 38
-160 15 -65 21 -77 50 -97 20 -13 57 -25 92 -29 33 -4 59 -9 58 -13 0 -3 0
-61 1 -128 l1 -123 118 0 c137 0 251 24 349 72 60 29 153 101 153 117 0 4 -20
43 -45 86 -25 44 -51 100 -60 125 -44 135 -37 314 15 379 35 43 57 130 41 159
-8 14 -7 37 0 79 14 72 5 161 -20 219 -28 62 -100 128 -169 155 -72 27 -204
34 -287 14z m280 -44 c112 -50 166 -126 169 -239 l1 -66 -148 -19 -148 -18
-30 25 c-26 22 -40 26 -100 26 -61 0 -79 5 -151 41 -78 39 -84 41 -145 34 -35
-4 -63 -4 -63 0 0 18 43 84 72 111 118 112 404 167 543 105z m-477 -258 c12
-23 47 -395 40 -415 -5 -12 -35 -16 -144 -21 -214 -11 -320 -9 -331 6 -15 18
-53 370 -42 382 9 9 364 61 436 64 21 1 35 -5 41 -16z m115 -47 c13 -10 21
-43 33 -135 l16 -122 -44 -38 -43 -39 -12 97 c-6 53 -15 135 -19 183 l-7 88
29 -10 c16 -6 37 -17 47 -24z m185 -33 c2 -8 -5 -13 -19 -13 -20 0 -21 -3 -15
-46 3 -26 6 -55 6 -65 0 -12 7 -19 20 -19 47 0 14 -34 -53 -54 l-46 -14 -5 27
c-3 14 -7 53 -11 86 -3 33 -8 73 -11 88 l-6 28 68 -3 c43 -2 69 -8 72 -15z
m340 -25 c-2 -15 -11 -23 -33 -25 -16 -3 -43 -13 -60 -23 -26 -15 -231 -48
-240 -38 -5 5 -17 68 -13 69 21 5 274 37 306 38 39 1 43 -1 40 -21z m1 -62
c17 -20 5 -82 -24 -126 -20 -32 -55 -54 -119 -74 -15 -5 -16 -10 -8 -18 9 -9
21 -9 47 -1 34 11 35 10 29 -10 -3 -11 -6 -66 -6 -121 0 -121 29 -226 91 -326
l40 -65 -37 -33 c-50 -45 -161 -96 -249 -116 -41 -9 -118 -16 -177 -16 l-106
0 0 115 0 114 38 7 c60 11 131 54 186 116 63 69 84 104 70 118 -7 7 -23 -8
-49 -45 -86 -125 -177 -173 -308 -162 -85 7 -114 25 -122 74 -4 21 -20 87 -35
147 -16 60 -27 113 -24 118 3 4 40 8 82 8 l77 0 74 70 c60 56 86 73 130 86 57
16 101 47 101 70 0 17 22 23 114 28 47 3 85 10 95 19 43 37 72 45 90 23z"/>
<path d="M2240 2569 c-121 -16 -148 -23 -162 -40 -22 -26 -23 -49 -3 -49 8 0
15 6 15 14 0 8 4 17 9 20 12 8 296 46 339 46 22 0 32 -5 32 -15 0 -8 7 -15 15
-15 18 0 20 31 3 48 -16 16 -72 14 -248 -9z"/>
<path d="M2290 2430 c0 -5 5 -10 10 -10 6 0 10 5 10 10 0 6 -4 10 -10 10 -5 0
-10 -4 -10 -10z"/>
<path d="M2080 2408 c0 -13 3 -46 6 -74 l7 -52 41 2 c34 1 42 5 49 26 5 15 5
36 -2 54 -10 25 -15 28 -46 24 -31 -4 -35 -1 -35 19 0 13 -4 23 -10 23 -5 0
-10 -10 -10 -22z m78 -40 c25 -25 8 -78 -25 -78 -22 0 -37 44 -24 69 13 24 31
27 49 9z"/>
<path d="M2350 2416 c0 -8 -6 -17 -12 -19 -10 -4 -10 -6 0 -6 7 -1 12 -14 12
-32 0 -39 16 -69 38 -69 16 1 16 2 0 14 -21 15 -25 82 -6 88 9 3 8 9 -4 21
-20 21 -28 21 -28 3z"/>
<path d="M2436 2394 c-22 -21 -20 -67 2 -87 23 -21 42 -21 68 -2 18 13 16 14
-20 12 -53 -3 -58 19 -7 28 44 7 51 23 23 48 -23 21 -46 22 -66 1z m62 -21 c2
-9 -7 -13 -27 -13 -30 0 -39 9 -24 24 11 10 46 3 51 -11z"/>
<path d="M2211 2356 c1 -64 17 -93 18 -33 1 40 5 50 21 54 30 8 24 22 -10 21
-28 -1 -30 -3 -29 -42z"/>
<path d="M2296 2348 c7 -53 11 -65 18 -57 8 8 -7 109 -16 109 -5 0 -6 -23 -2
-52z"/>
<path d="M2460 2071 c-25 -17 -4 -24 80 -26 59 -1 80 2 80 11 0 21 -131 33
-160 15z"/>
<path d="M2490 2014 c0 -28 82 -32 88 -4 2 11 -8 15 -43 16 -31 1 -45 -3 -45
-12z"/>
<path d="M1825 2355 c-10 -36 -21 -63 -24 -60 -3 4 -15 29 -26 57 -11 29 -26
53 -32 55 -7 3 2 -30 19 -71 18 -42 36 -75 42 -73 8 3 56 129 56 149 0 4 -4 8
-9 8 -5 0 -17 -29 -26 -65z"/>
<path d="M1890 2345 c0 -43 4 -75 10 -75 6 0 10 14 10 30 0 23 4 30 20 30 12
0 26 -12 35 -30 9 -16 20 -30 25 -30 14 0 13 7 -6 36 -13 19 -14 28 -5 37 14
14 14 50 -1 65 -7 7 -29 12 -50 12 l-38 0 0 -75z m64 59 c16 -6 23 -54 9 -54
-5 0 -18 -3 -30 -6 -20 -6 -23 -3 -23 24 0 17 6 33 13 35 6 3 13 6 14 6 1 1 8
-2 17 -5z"/>
</g>
</svg>
