<?xml version="1.0" standalone="no"?>
<!DOCTYPE svg PUBLIC "-//W3C//DTD SVG 20010904//EN"
 "http://www.w3.org/TR/2001/REC-SVG-20010904/DTD/svg10.dtd">
<svg version="1.0" xmlns="http://www.w3.org/2000/svg"
 width="500.000000pt" height="500.000000pt" viewBox="0 0 500.000000 500.000000"
 preserveAspectRatio="xMidYMid meet">

<g transform="translate(0.000000,500.000000) scale(0.100000,-0.100000)"
fill="#000000" stroke="none">
<path d="M2773 3949 c-235 -27 -487 -127 -609 -242 -73 -68 -99 -106 -130
-191 l-22 -61 -258 -32 c-143 -18 -270 -38 -283 -45 -13 -7 -31 -28 -39 -46
-15 -30 -14 -53 17 -325 42 -371 43 -376 77 -405 l28 -24 243 4 243 3 11 -55
c6 -30 24 -102 41 -160 17 -58 35 -127 40 -155 33 -185 44 -205 126 -243 42
-19 78 -27 140 -30 l82 -5 0 -219 0 -218 28 -11 c45 -18 343 -14 457 6 172 30
326 88 453 173 61 40 162 129 162 143 0 5 -21 41 -47 81 -67 105 -130 241
-159 344 -34 117 -43 316 -21 452 14 82 20 98 51 132 49 55 74 108 88 190 10
58 10 77 -1 103 -17 40 -17 55 -3 137 35 194 -5 377 -109 503 -81 98 -242 176
-404 196 -99 12 -99 12 -202 0z m327 -76 c236 -85 350 -245 350 -490 0 -35 -3
-63 -7 -63 -5 0 -116 -13 -248 -30 -294 -37 -288 -36 -305 -5 -25 47 -83 65
-208 65 l-111 0 -143 70 -143 71 -80 -11 c-44 -5 -93 -12 -108 -15 -25 -4 -28
-2 -22 18 51 174 223 299 519 377 153 40 144 39 306 35 114 -2 157 -7 200 -22z
m-785 -458 c6 -7 26 -163 43 -347 18 -183 35 -343 38 -356 3 -15 -3 -30 -19
-46 l-23 -23 -385 -7 c-211 -4 -392 -4 -401 -1 -9 4 -19 14 -22 22 -4 9 -20
133 -37 277 -46 401 -44 369 -23 388 14 12 90 25 304 53 157 20 328 42 380 49
100 14 128 12 145 -9z m258 -325 l28 -215 -73 -67 c-40 -38 -76 -68 -79 -68
-3 0 -18 127 -33 283 -15 155 -30 302 -33 326 l-6 43 84 -43 84 -44 28 -215z
m256 186 c24 -22 14 -36 -26 -36 -12 0 -24 -4 -27 -9 -3 -5 -1 -46 5 -92 16
-130 15 -129 49 -129 36 0 38 -10 8 -44 -23 -25 -173 -75 -186 -62 -5 6 -51
338 -52 379 0 17 8 19 104 15 86 -2 108 -6 125 -22z m605 -43 c-9 -51 -7 -50
-59 -56 -27 -2 -67 -18 -97 -36 -46 -29 -65 -33 -241 -55 -106 -14 -193 -23
-194 -22 -2 1 -4 31 -5 66 l-3 64 264 33 c314 38 324 39 334 41 4 1 5 -15 1
-35z m1 -120 c14 -13 16 -27 11 -67 -11 -85 -35 -142 -77 -186 -39 -40 -127
-90 -160 -90 -8 0 -24 -6 -35 -14 -17 -14 -18 -16 -3 -31 15 -15 21 -15 75 4
32 11 60 18 61 17 1 -1 -2 -29 -7 -62 -17 -102 -12 -309 10 -406 30 -138 98
-292 183 -417 l30 -45 -39 -34 c-63 -56 -172 -123 -257 -159 -167 -70 -316
-95 -542 -91 l-150 3 0 199 0 199 70 14 c101 21 196 75 280 158 78 78 176 219
168 241 -11 29 -39 12 -78 -48 -54 -85 -158 -193 -227 -238 -86 -56 -161 -73
-304 -68 -199 6 -232 32 -255 194 -6 42 -15 88 -21 103 -18 45 -76 285 -72
293 3 5 65 8 137 8 114 0 136 3 165 20 17 11 32 23 32 28 0 4 47 51 105 105
l104 98 103 29 c87 24 108 34 135 64 18 20 33 45 33 55 0 11 4 22 8 25 17 10
258 37 286 32 23 -5 37 1 72 29 68 56 127 70 159 38z"/>
<path d="M1874 3330 c-161 -21 -301 -43 -312 -49 -22 -12 -45 -61 -40 -88 2
-11 14 -19 31 -21 25 -3 27 -1 22 21 -4 15 -1 28 10 37 9 8 137 28 321 52 320
40 334 40 334 -3 0 -14 7 -19 25 -19 36 0 34 43 -4 81 -37 36 -22 36 -387 -11z"/>
<path d="M1851 2988 c1 -57 15 -142 18 -110 1 10 6 10 22 2 32 -18 69 11 69
53 0 50 -20 71 -58 64 -30 -6 -32 -5 -32 23 0 17 -4 30 -10 30 -6 0 -9 -27 -9
-62z m84 -53 c0 -33 -4 -41 -22 -43 -27 -4 -47 30 -39 65 5 19 12 24 34 21 24
-3 27 -7 27 -43z"/>
<path d="M2085 3040 c3 -5 8 -10 11 -10 2 0 4 5 4 10 0 6 -5 10 -11 10 -5 0
-7 -4 -4 -10z"/>
<path d="M2143 3021 c-7 -11 -8 -22 -3 -27 5 -5 10 -29 12 -54 3 -42 5 -45 33
-47 27 -2 28 -2 8 7 -19 8 -23 17 -23 55 0 36 4 45 18 46 13 0 14 2 2 6 -8 3
-20 11 -26 18 -8 11 -12 10 -21 -4z"/>
<path d="M1644 2959 l-20 -71 -25 63 c-13 34 -30 64 -37 67 -7 2 2 -29 21 -73
17 -43 36 -77 42 -77 9 1 55 124 55 149 0 34 -17 6 -36 -58z"/>
<path d="M1710 2988 c0 -60 11 -118 22 -118 5 0 6 16 2 35 -5 31 -4 35 14 35
12 0 29 -14 42 -35 12 -19 26 -35 31 -35 14 0 11 9 -11 41 -20 27 -20 30 -5
53 26 40 6 66 -50 66 l-45 0 0 -42z m79 14 c13 -24 2 -39 -29 -43 -22 -4 -25
0 -28 29 -3 28 0 32 22 32 14 0 30 -8 35 -18z"/>
<path d="M2236 2998 c-22 -31 -20 -64 5 -89 21 -21 69 -23 76 -3 2 7 -6 10
-22 7 -24 -5 -55 11 -55 28 0 5 18 9 40 9 33 0 40 3 40 19 0 25 -26 51 -50 51
-10 0 -26 -10 -34 -22z m61 -14 c2 -7 -10 -14 -27 -16 -29 -4 -40 9 -23 26 10
10 46 3 50 -10z"/>
<path d="M2025 3000 c-3 -5 -12 -7 -20 -3 -12 4 -15 -3 -14 -28 1 -38 15 -100
19 -84 1 6 1 22 0 37 -2 33 16 68 35 68 8 0 15 5 15 10 0 13 -27 13 -35 0z"/>
<path d="M2090 2950 c0 -33 4 -60 10 -60 6 0 10 27 10 60 0 33 -4 60 -10 60
-6 0 -10 -27 -10 -60z"/>
<path d="M2227 2464 c-35 -19 -33 -50 3 -47 39 4 196 -2 235 -9 14 -2 21 3 23
19 4 27 -42 44 -113 41 -28 0 -66 2 -85 5 -24 5 -44 2 -63 -9z"/>
<path d="M2272 2378 c-33 -41 94 -80 142 -45 33 24 14 42 -45 42 -30 0 -61 4
-70 8 -9 5 -20 3 -27 -5z"/>
</g>
</svg>
