<?xml version="1.0" standalone="no"?>
<!DOCTYPE svg PUBLIC "-//W3C//DTD SVG 20010904//EN"
 "http://www.w3.org/TR/2001/REC-SVG-20010904/DTD/svg10.dtd">
<svg version="1.0" xmlns="http://www.w3.org/2000/svg"
 width="700.000000pt" height="700.000000pt" viewBox="0 0 700.000000 700.000000"
 preserveAspectRatio="xMidYMid meet">

<g transform="translate(0.000000,700.000000) scale(0.100000,-0.100000)"
fill="#000000" stroke="none">
<path d="M4230 6890 c-135 -10 -270 -33 -445 -75 -802 -192 -1249 -513 -1389
-996 -19 -69 -28 -85 -47 -91 -13 -4 -280 -40 -594 -78 -314 -39 -590 -78
-615 -86 -91 -29 -159 -124 -160 -222 0 -74 158 -1448 173 -1497 17 -58 99
-137 160 -154 39 -11 140 -12 578 -2 292 7 533 11 534 9 2 -2 17 -71 34 -154
17 -84 56 -239 87 -345 31 -107 65 -221 74 -255 10 -33 27 -127 39 -207 46
-317 103 -406 309 -485 107 -42 208 -61 361 -68 l131 -7 0 -502 c0 -576 -8
-532 98 -546 134 -19 437 -28 619 -19 627 33 1139 201 1558 510 106 79 270
223 279 246 13 34 3 59 -62 157 -253 378 -398 716 -462 1077 -17 94 -24 179
-27 345 -6 236 7 393 48 611 l20 110 79 81 c134 139 205 316 217 539 6 121 -2
165 -42 213 -23 27 -24 29 -10 83 30 114 56 298 62 433 18 460 -147 835 -479
1085 -288 217 -698 323 -1128 290z m405 -131 c515 -63 904 -363 1030 -794 45
-153 66 -379 49 -507 l-6 -44 -602 -73 c-330 -40 -612 -75 -626 -77 -21 -4
-29 2 -52 44 -31 57 -93 112 -164 144 -46 22 -65 23 -324 28 l-275 5 -320 158
c-251 124 -328 157 -360 157 -22 0 -138 -12 -257 -27 -120 -14 -220 -24 -223
-21 -8 7 33 125 67 193 174 344 560 582 1203 743 345 86 578 106 860 71z
m-1597 -1099 c18 -11 39 -35 47 -52 9 -21 43 -324 95 -843 44 -445 80 -815 80
-822 0 -7 -21 -33 -47 -60 l-48 -47 -820 -18 c-451 -10 -864 -17 -917 -16 -92
3 -98 5 -127 32 -17 16 -33 37 -36 45 -7 25 -165 1412 -165 1455 0 48 25 90
64 110 30 15 1693 233 1796 235 29 1 57 -6 78 -19z m380 -184 l187 -94 64
-500 c35 -275 62 -504 60 -509 -8 -18 -353 -336 -356 -327 -2 8 -153 1502
-153 1518 0 11 9 7 198 -88z m810 -142 c47 -23 92 -65 92 -84 0 -4 -33 -11
-72 -15 -85 -8 -108 -23 -108 -73 0 -19 11 -127 25 -241 30 -244 30 -244 127
-234 60 6 60 6 53 -18 -15 -45 -59 -100 -100 -124 -43 -26 -382 -121 -393
-110 -5 5 -120 870 -122 913 0 9 51 12 223 12 220 0 224 0 275 -26z m1461 -66
c0 -13 -8 -59 -18 -103 l-16 -80 -52 3 c-100 7 -226 -40 -326 -122 l-54 -44
-458 -56 c-252 -31 -460 -55 -462 -53 -4 4 -43 301 -40 303 3 2 1379 171 1405
173 17 1 22 -4 21 -21z m-6 -338 l30 -33 -6 -106 c-7 -130 -25 -202 -77 -308
-87 -176 -234 -287 -463 -348 -101 -27 -117 -37 -117 -73 0 -34 27 -62 60 -62
37 0 192 45 241 70 21 11 39 19 39 17 0 -3 -9 -62 -20 -132 -85 -554 -21
-1030 203 -1517 48 -104 162 -305 242 -429 36 -56 65 -105 63 -109 -2 -5 -30
-32 -63 -62 -416 -370 -964 -572 -1643 -607 -169 -9 -528 0 -575 15 -16 5 -17
34 -15 472 l3 467 70 8 c288 31 538 166 780 419 143 149 365 460 365 509 0 23
-38 59 -62 59 -26 0 -48 -27 -135 -160 -245 -375 -529 -610 -825 -684 -191
-47 -501 -48 -683 -1 -74 19 -182 69 -213 98 -53 49 -79 133 -108 347 -11 84
-34 185 -71 305 -81 271 -161 601 -148 614 3 2 147 7 322 11 296 6 321 8 359
27 39 21 104 79 104 94 0 4 110 110 244 236 l244 229 198 53 c232 61 287 84
344 141 46 46 100 150 100 193 0 15 2 27 6 27 3 0 153 18 335 41 298 36 331
39 345 25 30 -30 63 -19 132 45 116 105 217 152 311 146 47 -3 59 -9 84 -37z"/>
<path d="M2080 5440 c-376 -49 -702 -93 -723 -100 -96 -28 -154 -142 -131
-257 6 -32 3 -31 87 -18 37 6 37 6 31 45 -9 52 1 86 30 105 17 11 230 42 728
105 386 50 709 90 716 90 8 0 27 -13 43 -29 23 -23 29 -38 29 -71 0 -48 11
-55 75 -46 44 7 45 8 45 44 0 125 -97 225 -215 221 -16 -1 -338 -41 -715 -89z"/>
<path d="M2885 3425 c-93 -33 -114 -63 -79 -113 19 -28 43 -28 120 0 l61 22
49 -21 c80 -34 106 -36 173 -13 l62 21 80 -26 c65 -20 84 -23 102 -14 28 15
37 28 37 56 0 32 -37 55 -134 82 l-87 25 -66 -22 -66 -21 -58 24 c-73 31 -106
31 -194 0z"/>
<path d="M3000 3232 c-48 -16 -65 -65 -32 -95 70 -63 219 -81 306 -37 55 28
70 55 52 91 -15 31 -48 35 -112 13 -54 -18 -86 -15 -164 19 -19 8 -42 12 -50
9z"/>
</g>
</svg>
